<svg width="141" height="140" viewBox="0 0 141 140" fill="none" xmlns="http://www.w3.org/2000/svg">
<g id="Group">
<g id="Group_2">
<path id="Vector" d="M112.008 45.1522C124.972 67.4549 118.721 95.2766 98.0472 107.294C77.373 119.311 50.1041 110.973 37.1403 88.6703C24.1766 66.3676 30.4272 38.5459 51.1015 26.5287C71.7757 14.5116 99.0446 22.8496 112.008 45.1522Z" fill="#DF5F26"/>
<path id="Vector_2" d="M39.4451 79.3126C39.4451 79.3126 20.8113 80.5116 24.2472 86.364C27.6843 92.2105 39.0336 85.9706 39.0336 85.9706C39.0336 85.9706 22.8066 89.3392 26.1364 95.0706C29.4661 100.802 44.7119 88.3769 44.7119 88.3769C44.7119 88.3769 30.4719 97.0109 34.7473 101.301C39.0228 105.591 54.569 86.2132 54.569 86.2132L39.4416 79.3149L39.4451 79.3126Z" fill="#DF5F26"/>
</g>
<g id="Group_3">
<path id="Vector_3" d="M62.1995 79.8992C67.6973 76.2205 69.1687 68.7825 65.4923 63.2881C61.8158 57.7938 54.3755 56.3189 48.8811 59.9954C43.3868 63.6718 41.9119 71.1122 45.5884 76.6065C49.2648 82.1009 56.7052 83.5757 62.1995 79.8992Z" fill="white"/>
<path id="Vector_4" d="M73.644 90.1518C77.393 87.6432 78.3989 82.5683 75.8903 78.8194C73.3817 75.0704 68.3069 74.0644 64.5579 76.573C60.8089 79.0816 59.803 84.1564 62.3116 87.9054C64.8201 91.6544 69.895 92.6604 73.644 90.1518Z" fill="white"/>
<path id="Vector_5" d="M58.6033 74.4421C60.3312 73.2859 60.7943 70.9495 59.6382 69.2216C58.482 67.4937 56.1456 67.0306 54.4177 68.1868C52.6898 69.343 52.2267 71.6794 53.3829 73.4073C54.539 75.1352 56.8754 75.5983 58.6033 74.4421Z" fill="#676463"/>
<path id="Vector_6" d="M71.0385 85.2696C72.5116 84.2839 72.9101 82.289 71.9221 80.8124C70.934 79.3359 68.9414 78.9408 67.4648 79.9288C65.9882 80.9169 65.5933 82.9095 66.5813 84.3861C67.5693 85.8627 69.5619 86.2576 71.0385 85.2696Z" fill="#676463"/>
<path id="Vector_7" d="M88.0889 91.7103C99.3743 84.1589 101.719 67.8685 93.3271 55.3265C84.9347 42.7845 68.9817 38.7381 57.6963 46.2895" stroke="white" stroke-width="1.5" stroke-linecap="round" stroke-linejoin="round"/>
</g>
</g>
</svg>
