<svg width="97" height="97" viewBox="0 0 97 97" fill="none" xmlns="http://www.w3.org/2000/svg">
<g id="Group">
<g id="Group_2">
<path id="Vector" d="M75.1185 67.3007C64.6866 82.0107 45.5658 86.3056 32.4109 76.8935C19.2561 67.4815 17.0487 47.9268 27.4805 33.2168C37.9124 18.5068 57.0333 14.2119 70.1881 23.6239C83.343 33.0359 85.5504 52.5907 75.1185 67.3007Z" fill="#F7C400"/>
<path id="Vector_2" d="M33.9729 31.8989C33.9729 31.8989 28.1467 20.5723 25.4186 24.4537C22.6945 28.3341 29.6925 33.6064 29.6925 33.6064C29.6925 33.6064 23.1635 24.429 20.4823 28.2081C17.801 31.9873 29.7326 37.8761 29.7326 37.8761C29.7326 37.8761 20.4484 31.4986 18.9272 35.4451C17.4059 39.3915 33.7722 43.4162 33.7722 43.4162L33.9705 31.8974L33.9729 31.8989Z" fill="#F7C400"/>
</g>
<g id="Group_3">
<path id="Vector_3" d="M40.5683 47.9306C44.369 50.2909 49.4265 49.0175 51.8649 45.091C54.3033 41.1645 53.2001 36.0652 49.4018 33.7064C45.6035 31.3476 40.5437 32.6195 38.1052 36.546C35.6668 40.4725 36.7701 45.5718 40.5683 47.9306Z" fill="white"/>
<path id="Vector_4" d="M37.2644 58.1293C39.8561 59.7388 43.3072 58.8713 44.9711 56.1921C46.6349 53.5129 45.8824 50.0348 43.2907 48.4253C40.699 46.8158 37.2478 47.6833 35.584 50.3625C33.9202 53.0417 34.6727 56.5198 37.2644 58.1293Z" fill="white"/>
<path id="Vector_5" d="M43.0032 44.0639C44.1977 44.8057 45.7866 44.4063 46.5534 43.1715C47.3203 41.9367 46.9739 40.3354 45.7794 39.5936C44.5849 38.8518 42.9959 39.2512 42.2291 40.486C41.4623 41.7208 41.8087 43.3221 43.0032 44.0639Z" fill="#676463"/>
<path id="Vector_6" d="M39.6115 55.055C40.6299 55.6874 41.9874 55.3482 42.6427 54.293C43.298 53.2378 43.0025 51.8721 41.9818 51.2382C40.961 50.6043 39.6059 50.9449 38.9506 52.0002C38.2953 53.0554 38.5908 54.421 39.6115 55.055Z" fill="#676463"/>
<path id="Vector_7" d="M40.2248 67.6415C48.0264 72.4864 58.864 69.1475 64.4303 60.1844C69.9965 51.2213 68.1845 40.0267 60.3828 35.1818" stroke="white" stroke-width="1.5" stroke-linecap="round" stroke-linejoin="round"/>
</g>
</g>
</svg>
