<svg width="224" height="221" viewBox="0 0 224 221" fill="none" xmlns="http://www.w3.org/2000/svg">
<g id="Group">
<g id="Group_2">
<path id="Vector" d="M188.129 137.232C202.418 96.1488 183.129 52.1064 145.045 38.8608C106.961 25.6152 64.505 48.1822 50.2161 89.2656C35.9272 130.349 55.2167 174.391 93.3004 187.637C131.384 200.883 173.84 178.316 188.129 137.232Z" fill="#F7C400"/>
<path id="Vector_2" d="M57.039 104.014C57.039 104.014 25.8101 108.019 29.6162 97.2277C33.426 86.4454 54.2177 93.1257 54.2177 93.1257C54.2177 93.1257 26.2753 92.766 29.9444 82.2088C33.6136 71.6516 62.8431 87.3174 62.8431 87.3174C62.8431 87.3174 36.4971 77.6036 42.195 69.1283C47.8929 60.653 79.8546 87.7303 79.8546 87.7303L57.0325 104.011L57.039 104.014Z" fill="#F7C400"/>
</g>
<g id="Group_3">
<path id="Vector_3" d="M94.5144 95.7288C104.797 100.051 109.624 111.889 105.304 122.166C100.985 132.442 89.1436 137.275 78.8673 132.956C68.5911 128.636 63.7582 116.795 68.0774 106.519C72.3967 96.2424 84.2381 91.4095 94.5144 95.7288Z" fill="white"/>
<path id="Vector_4" d="M110.161 75.0797C117.173 78.0269 120.469 86.1037 117.522 93.1155C114.575 100.127 106.498 103.424 99.4865 100.477C92.4746 97.5294 89.1782 89.4527 92.1254 82.4409C95.0726 75.429 103.149 72.1325 110.161 75.0797Z" fill="white"/>
<path id="Vector_5" d="M90.316 105.918C93.5478 107.276 95.0654 110.994 93.7071 114.226C92.3487 117.458 88.6303 118.975 85.3986 117.617C82.1669 116.259 80.6492 112.54 82.0076 109.309C83.3659 106.077 87.0843 104.559 90.316 105.918Z" fill="#676463"/>
<path id="Vector_6" d="M107.419 83.9983C110.174 85.1563 111.475 88.3303 110.314 91.0919C109.153 93.8536 105.982 95.148 103.22 93.9873C100.458 92.8265 99.1641 89.6551 100.325 86.8934C101.486 84.1318 104.657 82.8375 107.419 83.9983Z" fill="#676463"/>
<path id="Vector_7" d="M133.57 67.8567C154.678 76.7285 163.796 102.939 153.936 126.397C144.077 149.855 118.971 161.681 97.8638 152.809" stroke="white" stroke-width="1.5" stroke-linecap="round" stroke-linejoin="round"/>
</g>
</g>
</svg>
