<svg width="113" height="117" viewBox="0 0 113 117" fill="none" xmlns="http://www.w3.org/2000/svg">
<g id="Group">
<g id="Group_2">
<path id="Vector" d="M59.4422 113.147C88.8249 111.288 111.247 87.7009 109.524 60.4636C107.801 33.2262 82.5848 12.653 53.2021 14.5119C23.8194 16.3708 1.39691 39.9579 3.12008 67.1952C4.84325 94.4325 30.0595 115.006 59.4422 113.147Z" fill="#6A5C8F"/>
<path id="Vector_2" d="M45.7804 22.6329C45.7804 22.6329 35.0909 4.19712 42.8228 3.74173C50.5499 3.29115 51.8346 18.0168 51.8346 18.0168C51.8346 18.0168 44.7306 0.486952 52.2804 0.00760272C59.8301 -0.471747 57.7211 21.8755 57.7211 21.8755C57.7211 21.8755 56.8725 2.88849 63.6553 4.22108C70.4381 5.55367 61.925 32.5986 61.925 32.5986L45.7804 22.6281V22.6329Z" fill="#6A5C8F"/>
</g>
<g id="Group_3">
<path id="Vector_3" d="M37.0797 79.9103C37.0797 79.9103 24.5207 90.1972 32.3532 95.5467C40.1858 100.896 47.6397 83.2322 47.6397 83.2322L37.0797 79.9103Z" fill="#DF5F15"/>
<path id="Vector_4" d="M86.6496 67.7828C86.6496 76.3152 72.945 83.237 56.0336 83.237C39.1221 83.237 25.4175 76.32 25.4175 67.7828" stroke="white" stroke-width="1.5" stroke-linecap="round" stroke-linejoin="round"/>
<path id="Vector_5" d="M82.4692 48.9348C82.4692 55.4491 77.1869 60.7268 70.6773 60.7268C64.1677 60.7268 58.8853 55.4444 58.8853 48.9348C58.8853 42.4252 64.1677 37.1428 70.6773 37.1428C77.1869 37.1428 82.4692 42.4252 82.4692 48.9348Z" fill="white"/>
<path id="Vector_6" d="M74.1485 52.4005C74.1485 54.3179 72.5954 55.871 70.678 55.871C68.7606 55.871 67.2075 54.3179 67.2075 52.4005C67.2075 50.4831 68.7606 48.93 70.678 48.93C72.5954 48.93 74.1485 50.4831 74.1485 52.4005Z" fill="#676463"/>
<path id="Vector_7" d="M53.2148 48.9348C53.2148 55.4491 47.9325 60.7268 41.4229 60.7268C34.9133 60.7268 29.6309 55.4444 29.6309 48.9348C29.6309 42.4252 34.9133 37.1428 41.4229 37.1428C47.9325 37.1428 53.2148 42.4252 53.2148 48.9348Z" fill="white"/>
<path id="Vector_8" d="M44.8931 52.4005C44.8931 54.3179 43.34 55.871 41.4226 55.871C39.5052 55.871 37.9521 54.3179 37.9521 52.4005C37.9521 50.4831 39.5052 48.93 41.4226 48.93C43.34 48.93 44.8931 50.4831 44.8931 52.4005Z" fill="#676463"/>
</g>
</g>
</svg>
