<svg width="112" height="114" viewBox="0 0 112 114" fill="none" xmlns="http://www.w3.org/2000/svg">
<g id="Group">
<g id="Group_2">
<path id="Vector" d="M70.5397 98.152C92.5454 90.1917 104.403 67.2019 97.0234 46.803C89.6443 26.404 65.8232 16.3205 43.8175 24.2809C21.8118 32.2412 9.95461 55.231 17.3337 75.6299C24.7129 96.0289 48.534 106.112 70.5397 98.152Z" fill="#7BC5E1"/>
<path id="Vector_2" d="M39.9743 32.1553C39.9743 32.1553 27.7133 20.4684 33.5115 18.3995C39.3072 16.3353 43.566 27.2852 43.566 27.2852C43.566 27.2852 34.2426 15.4913 39.8965 13.4446C45.5503 11.3979 48.9166 28.9189 48.9166 28.9189C48.9166 28.9189 44.0418 14.6203 49.5139 14.1269C54.986 13.6336 54.5117 36.1648 54.5117 36.1648L39.9732 32.1517L39.9743 32.1553Z" fill="#7BC5E1"/>
</g>
<g id="Group_3">
<path id="Vector_3" d="M47.6855 62.3513C53.899 60.5382 57.4662 54.0314 55.6531 47.8179C53.8401 41.6044 47.3332 38.0371 41.1197 39.8502C34.9062 41.6633 31.3389 48.1701 33.152 54.3836C34.9651 60.5972 41.4719 64.1644 47.6855 62.3513Z" fill="white"/>
<path id="Vector_4" d="M64.7006 54.0406C68.9385 52.804 71.3716 48.3659 70.1349 44.128C68.8983 39.89 64.4603 37.4569 60.2223 38.6936C55.9844 39.9302 53.5513 44.3682 54.7879 48.6062C56.0246 52.8441 60.4626 55.2772 64.7006 54.0406Z" fill="white"/>
<path id="Vector_5" d="M46.9281 53.9478C48.8794 53.3785 49.9997 51.335 49.4303 49.3837C48.8609 47.4324 46.8175 46.3121 44.8662 46.8815C42.9149 47.4509 41.7946 49.4943 42.364 51.4456C42.9334 53.397 44.9768 54.5172 46.9281 53.9478Z" fill="#676463"/>
<path id="Vector_6" d="M63.0958 50.1072C64.7623 49.6209 65.7191 47.8757 65.2328 46.2092C64.7465 44.5427 63.0013 43.5859 61.3348 44.0722C59.6683 44.5585 58.7116 46.3037 59.1979 47.9702C59.6841 49.6367 61.4293 50.5934 63.0958 50.1072Z" fill="#676463"/>
</g>
<path id="Vector_7" d="M66.6196 63.9506C66.6196 63.9506 65.1232 72.0434 56.5467 70.8072C47.9692 69.5674 44.4034 71.493 44.9978 77.5428C45.5923 83.5927 61.1665 84.6127 70.6859 79.1241C80.2054 73.6356 80.3281 52.0483 66.6148 63.9481L66.6196 63.9506Z" fill="#524975"/>
<path id="Vector_8" d="M55.7804 82.5965C55.7804 82.5965 54.9189 76.5293 58.7187 75.2697C62.5149 74.0112 66.0034 75.4659 66.0034 75.4659C66.0034 75.4659 67.2306 72.9249 70.9414 71.088C74.6558 69.2501 76.4779 71.5363 76.4779 71.5363C76.4779 71.5363 75.7609 82.1641 55.7851 82.5991L55.7804 82.5965Z" fill="#DF5F15"/>
</g>
</svg>
