<svg width="121" height="122" viewBox="0 0 121 122" fill="none" xmlns="http://www.w3.org/2000/svg">
<g id="&#209;&#129;&#208;&#188;&#208;&#176;&#208;&#185;&#208;&#187;">
<g id="Group">
<path id="Vector" d="M37.0777 94.9982C55.4954 107.425 79.7639 103.658 91.2829 86.585C102.802 69.5121 97.2095 45.5982 78.7919 33.1718C60.3743 20.7455 36.1058 24.5122 24.5868 41.5851C13.0677 58.658 18.6601 82.5718 37.0777 94.9982Z" fill="#DF5F15"/>
<path id="Vector_2" d="M70.6056 34.62C70.6056 34.62 72.7106 18.6765 77.5416 21.9667C82.3674 25.2574 76.3507 34.6504 76.3507 34.6504C76.3507 34.6504 80.1814 20.9003 84.9145 24.0922C89.6476 27.2841 78.0911 39.6687 78.0911 39.6687C78.0911 39.6687 86.3318 27.9298 89.7717 31.8512C93.2116 35.7727 75.6632 48.0144 75.6632 48.0144L70.6078 34.6171L70.6056 34.62Z" fill="#DF5F15"/>
</g>
<path id="Vector_3" d="M43.6217 77.1731C43.6217 77.1731 47.7937 73.1179 50.8858 75.3279C53.9751 77.5357 54.8109 81.0255 54.8109 81.0255C54.8109 81.0255 57.4466 80.5452 60.9317 82.364C64.4196 84.1849 63.6853 86.8617 63.6853 86.8617C63.6853 86.8617 55.132 92.2576 43.6224 77.1782L43.6217 77.1731Z" fill="#DF5F15"/>
<g id="Group_2">
<path id="Vector_4" d="M68.2206 55.139C64.7422 59.6513 58.2657 60.4867 53.7563 57.0105C49.2469 53.5344 48.4086 47.0556 51.8848 42.5462C55.3609 38.0368 61.8397 37.1985 66.3491 40.6747C70.8585 44.1508 71.6968 50.6296 68.2206 55.139Z" fill="white"/>
<path id="Vector_5" d="M76.371 65.5644C73.9991 68.6413 69.5802 69.2131 66.5032 66.8412C63.4263 64.4692 62.8545 60.0503 65.2265 56.9734C67.5984 53.8964 72.0173 53.3246 75.0943 55.6966C78.1712 58.0685 78.7429 62.4874 76.371 65.5644Z" fill="white"/>
<path id="Vector_6" d="M63.7386 51.7341C62.6454 53.1522 60.611 53.4155 59.1929 52.3223C57.7747 51.2291 57.5115 49.1947 58.6047 47.7765C59.6979 46.3584 61.7323 46.0951 63.1505 47.1883C64.5686 48.2815 64.8318 50.316 63.7386 51.7341Z" fill="#676463"/>
<path id="Vector_7" d="M72.3232 63.0421C71.3912 64.2511 69.654 64.4785 68.4421 63.5443C67.2302 62.6102 67.0057 60.875 67.9399 59.6632C68.8741 58.4513 70.6092 58.2268 71.8211 59.161C73.0329 60.0952 73.2574 61.8303 72.3232 63.0421Z" fill="#676463"/>
<path id="Vector_8" d="M76.8747 78.065C69.7347 87.3274 55.6006 88.403 45.3069 80.4679C35.0132 72.5328 32.4561 58.5905 39.5962 49.3282" stroke="white" stroke-width="1.5" stroke-linecap="round" stroke-linejoin="round"/>
</g>
</g>
</svg>
