<svg width="118" height="118" viewBox="0 0 118 118" fill="none" xmlns="http://www.w3.org/2000/svg">
<g id="Group">
<g id="Group_2">
<path id="Vector" d="M83.6512 90.7504C100.606 77.2194 104.182 53.5096 91.6386 37.7932C79.0956 22.0767 55.1832 20.3051 38.2289 33.8361C21.2745 47.3671 17.6984 71.0768 30.2414 86.7933C42.7845 102.51 66.6968 104.281 83.6512 90.7504Z" fill="#8CCAE7"/>
<path id="Vector_2" d="M37.202 41.8988C37.202 41.8988 22.9627 35.2828 27.4384 31.7426C31.9132 28.2073 38.9077 36.5551 38.9077 36.5551C38.9077 36.5551 27.2157 28.9719 31.5713 25.4941C35.9269 22.0163 44.0911 36.3989 44.0911 36.3989C44.0911 36.3989 35.5604 25.2941 40.2182 23.2341C44.8759 21.1742 51.1576 41.0974 51.1576 41.0974L37.2 41.8959L37.202 41.8988Z" fill="#8CCAE7"/>
</g>
<g id="Group_3">
<path id="Vector_3" d="M52.9496 66.1181C57.866 62.679 59.0636 55.9056 55.6246 50.9892C52.1856 46.0728 45.4121 44.8751 40.4957 48.3141C35.5793 51.7532 34.3816 58.5266 37.8207 63.443C41.2597 68.3594 48.0331 69.5571 52.9496 66.1181Z" fill="white"/>
<path id="Vector_4" d="M65.4174 53.7632C68.7707 51.4175 69.5875 46.7977 67.2419 43.4444C64.8963 40.0912 60.2765 39.2743 56.9232 41.6199C53.5699 43.9655 52.7531 48.5854 55.0987 51.9386C57.4443 55.2919 62.0641 56.1088 65.4174 53.7632Z" fill="white"/>
<path id="Vector_5" d="M49.7838 58.967C51.3278 57.887 51.7039 55.7599 50.6239 54.2159C49.5439 52.6719 47.4167 52.2958 45.8728 53.3758C44.3288 54.4558 43.9527 56.583 45.0327 58.1269C46.1127 59.6709 48.2398 60.047 49.7838 58.967Z" fill="#676463"/>
<path id="Vector_6" d="M62.8401 50.7865C64.1587 49.8641 64.4799 48.0475 63.5575 46.7289C62.6351 45.4102 60.8185 45.089 59.4999 46.0114C58.1812 46.9338 57.86 48.7504 58.7824 50.069C59.7048 51.3877 61.5214 51.7089 62.8401 50.7865Z" fill="#676463"/>
</g>
<path id="Vector_7" d="M70.0464 61.8955C70.0464 61.8955 71.1384 69.4457 63.2409 70.91C55.3413 72.3714 52.783 75.122 55.1034 80.257C57.4239 85.392 71.4011 81.6577 78.1274 74.0088C84.8538 66.3599 78.5441 47.3701 70.0415 61.8946L70.0464 61.8955Z" fill="#524975"/>
<path id="Vector_8" d="M66.0754 81.4869C66.0754 81.4869 63.5153 76.4161 66.4771 74.1805C69.436 71.947 72.9313 72.1872 72.9313 72.1872C72.9313 72.1872 73.2534 69.5914 75.9653 66.8754C78.6802 64.1575 80.9596 65.6232 80.9596 65.6232C80.9596 65.6232 83.4895 75.1673 66.0803 81.4878L66.0754 81.4869Z" fill="#F7C400"/>
</g>
</svg>
