<svg width="141" height="146" viewBox="0 0 141 146" fill="none" xmlns="http://www.w3.org/2000/svg">
<path d="M74.4025 141.591C111.18 139.264 139.246 109.741 137.089 75.6484C134.932 41.5561 103.369 15.805 66.5918 18.1318C29.8142 20.4585 1.74848 49.982 3.90533 84.0743C6.06218 118.167 37.6249 143.918 74.4025 141.591Z" fill="#6A5C8F"/>
<path d="M57.31 28.3291C57.31 28.3291 43.9302 5.25343 53.6081 4.68344C63.2799 4.11945 64.8879 22.5511 64.8879 22.5511C64.8879 22.5511 55.996 0.609506 65.4459 0.00951615C74.8957 -0.590474 72.2557 27.3811 72.2557 27.3811C72.2557 27.3811 71.1938 3.61546 79.6836 5.28343C88.1735 6.9514 77.5177 40.8028 77.5177 40.8028L57.31 28.3231V28.3291Z" fill="#6A5C8F"/>
<path d="M78.5444 55.4485C78.5444 64.8983 70.8826 72.5542 61.4387 72.5542C51.9949 72.5542 44.333 64.8923 44.333 55.4485C44.333 46.0046 51.9949 38.3428 61.4387 38.3428C70.8826 38.3428 78.5444 46.0046 78.5444 55.4485Z" fill="white"/>
<path d="M99.8133 60.8847C99.8133 67.3286 94.5873 72.5545 88.1434 72.5545C81.6995 72.5545 76.4736 67.3286 76.4736 60.8847C76.4736 54.4408 81.6995 49.2148 88.1434 49.2148C94.5873 49.2148 99.8133 54.4408 99.8133 60.8847Z" fill="white"/>
<path d="M69.2128 55.5148C69.2128 58.4848 66.8069 60.8907 63.8369 60.8907C60.8669 60.8907 58.4609 58.4848 58.4609 55.5148C58.4609 52.5449 60.8669 50.1389 63.8369 50.1389C66.8069 50.1389 69.2128 52.5449 69.2128 55.5148Z" fill="#676463"/>
<path d="M91.9406 61.6766C91.9406 64.2086 89.8886 66.2665 87.3507 66.2665C84.8127 66.2665 82.7607 64.2146 82.7607 61.6766C82.7607 59.1386 84.8127 57.0867 87.3507 57.0867C89.8886 57.0867 91.9406 59.1386 91.9406 61.6766Z" fill="#676463"/>
<path d="M113.133 76.8025C113.133 96.2002 95.6555 111.926 74.0979 111.926C52.5402 111.926 35.0625 96.2002 35.0625 76.8025" stroke="white" stroke-width="1.5" stroke-linecap="round" stroke-linejoin="round"/>
</svg>
