<svg width="73" height="75" viewBox="0 0 73 75" fill="none" xmlns="http://www.w3.org/2000/svg">
<g id="Group">
<g id="Group_2">
<path id="Vector" d="M45.9675 63.9609C60.3076 58.7735 68.0344 43.7922 63.2258 30.4991C58.4171 17.2061 42.894 10.6351 28.5539 15.8225C14.2138 21.0099 6.48703 35.9912 11.2957 49.2843C16.1043 62.5774 31.6274 69.1483 45.9675 63.9609Z" fill="#F7C400"/>
<path id="Vector_2" d="M26.0498 20.954C26.0498 20.954 18.0599 13.3382 21.8384 11.99C25.6151 10.6448 28.3904 17.7804 28.3904 17.7804C28.3904 17.7804 22.3147 10.0948 25.9991 8.7611C29.6835 7.42737 31.8771 18.845 31.8771 18.845C31.8771 18.845 28.7004 9.52728 32.2663 9.20577C35.8323 8.88426 35.5232 23.5668 35.5232 23.5668L26.0491 20.9516L26.0498 20.954Z" fill="#F7C400"/>
</g>
<g id="Group_3">
<path id="Vector_3" d="M31.0749 40.6311C35.124 39.4496 37.4486 35.2094 36.2671 31.1603C35.0856 27.1112 30.8454 24.7866 26.7963 25.9681C22.7472 27.1496 20.4226 31.3898 21.6041 35.4389C22.7856 39.488 27.0259 41.8126 31.0749 40.6311Z" fill="white"/>
<path id="Vector_4" d="M42.1629 35.2154C44.9245 34.4095 46.5101 31.5175 45.7042 28.7558C44.8984 25.9941 42.0063 24.4086 39.2446 25.2145C36.4829 26.0203 34.8974 28.9124 35.7033 31.6741C36.5091 34.4357 39.4012 36.0212 42.1629 35.2154Z" fill="white"/>
<path id="Vector_5" d="M30.5816 35.1549C31.8532 34.7839 32.5832 33.4522 32.2122 32.1807C31.8412 30.9091 30.5095 30.179 29.2379 30.5501C27.9664 30.9211 27.2363 32.2527 27.6074 33.5243C27.9784 34.7959 29.31 35.526 30.5816 35.1549Z" fill="#676463"/>
<path id="Vector_6" d="M41.1178 32.6521C42.2038 32.3352 42.8272 31.198 42.5104 30.112C42.1935 29.026 41.0562 28.4026 39.9702 28.7194C38.8843 29.0363 38.2608 30.1736 38.5777 31.2596C38.8946 32.3455 40.0318 32.969 41.1178 32.6521Z" fill="#676463"/>
</g>
<path id="Vector_7" d="M43.4131 41.6734C43.4131 41.6734 42.438 46.9471 36.8491 46.1415C31.2596 45.3336 28.9359 46.5884 29.3233 50.5308C29.7107 54.4732 39.8596 55.1379 46.063 51.5613C52.2664 47.9846 52.3464 33.9172 43.4101 41.6717L43.4131 41.6734Z" fill="#524975"/>
<path id="Vector_8" d="M36.3498 53.8241C36.3498 53.8241 35.7885 49.8704 38.2646 49.0496C40.7384 48.2295 43.0117 49.1774 43.0117 49.1774C43.0117 49.1774 43.8114 47.5216 46.2296 46.3246C48.6501 45.1268 49.8375 46.6167 49.8375 46.6167C49.8375 46.6167 49.3702 53.5423 36.3529 53.8258L36.3498 53.8241Z" fill="#DF5F15"/>
</g>
</svg>
