<svg width="97" height="96" viewBox="0 0 97 96" fill="none" xmlns="http://www.w3.org/2000/svg">
<path d="M74.0691 28.1182C84.6242 42.0931 82.679 61.3538 69.7245 71.1382C56.77 80.9226 37.7117 77.5255 27.1566 63.5506C16.6015 49.5757 18.5466 30.315 31.5012 20.5306C44.4557 10.7462 63.514 14.1433 74.0691 28.1182Z" fill="#8AC8E5"/>
<path d="M27.9625 57.0385C27.9625 57.0385 15.5014 59.3654 18.2941 63.0297C21.0872 66.69 28.2278 61.5594 28.2278 61.5594C28.2278 61.5594 17.5657 65.1524 20.2771 68.7438C22.9884 72.3353 32.251 62.7184 32.251 62.7184C32.251 62.7184 23.3573 69.6982 26.5885 72.2411C29.8198 74.7839 38.7181 60.4567 38.7181 60.4567L27.9603 57.0403L27.9625 57.0385Z" fill="#8AC8E5"/>
<path d="M45.8489 41.9561C49.0066 45.6294 48.5886 51.1671 44.9153 54.3248C41.242 57.4825 35.7043 57.0645 32.5466 53.3911C29.3889 49.7178 29.8069 44.1802 33.4803 41.0225C37.1536 37.8648 42.6912 38.2828 45.8489 41.9561Z" fill="white"/>
<path d="M53.1308 54.1138C55.2845 56.6192 54.9994 60.3962 52.494 62.5499C49.9886 64.7037 46.2116 64.4186 44.0579 61.9132C41.9041 59.4077 42.1892 55.6308 44.6946 53.477C47.2001 51.3233 50.977 51.6084 53.1308 54.1138Z" fill="white"/>
<path d="M41.9438 46.9185C42.9354 48.0721 42.8042 49.8112 41.6506 50.8029C40.497 51.7945 38.7579 51.6632 37.7663 50.5096C36.7746 49.3561 36.9059 47.617 38.0595 46.6253C39.213 45.6337 40.9521 45.7649 41.9438 46.9185Z" fill="#676463"/>
<path d="M50.5182 55.9269C51.3651 56.9121 51.253 58.3973 50.2678 59.2442C49.2826 60.0912 47.7974 59.979 46.9505 58.9938C46.1036 58.0086 46.2157 56.5234 47.2009 55.6765C48.1861 54.8296 49.6713 54.9417 50.5182 55.9269Z" fill="#676463"/>
<path d="M58.3777 48.6785C58.3777 48.6785 60.742 42.9913 54.8576 40.2663C48.9709 37.5432 47.52 34.8799 50.3621 31.3275C53.2042 27.7751 63.3901 33.4918 67.1215 40.82C70.8529 48.1482 62.1192 61.7398 58.3737 48.6782L58.3777 48.6785Z" fill="#524975"/>
<path d="M59.1903 32.5601C59.1903 32.5601 56.1736 36.0144 58.0431 38.3554C59.9108 40.6942 62.6928 41.2055 62.6928 41.2055C62.6928 41.2055 62.4255 43.3003 64.0036 45.9671C65.5834 48.6361 67.6596 47.9456 67.6596 47.9456C67.6596 47.9456 71.5474 40.9862 59.1943 32.5604L59.1903 32.5601Z" fill="#DF5F15"/>
</svg>
