<svg width="182" height="191" viewBox="0 0 182 191" fill="none" xmlns="http://www.w3.org/2000/svg">
<g id="Group">
<g id="Group_2">
<path id="Vector" d="M131.422 149.688C160.534 129.56 169.007 91.3662 150.349 64.3802C131.69 37.3943 92.9647 31.835 63.8532 51.9634C34.7416 72.0917 26.2679 110.285 44.9266 137.271C63.5853 164.257 102.311 169.817 131.422 149.688Z" fill="#F7C400"/>
<path id="Vector_2" d="M61.2388 64.9066C61.2388 64.9066 38.8008 52.5441 46.4823 47.2822C54.1618 42.0282 64.613 56.3992 64.613 56.3992C64.613 56.3992 46.4298 42.7472 53.9088 37.5736C61.3878 32.3999 73.0679 56.7248 73.0679 56.7248C73.0679 56.7248 60.4244 37.6943 68.2367 34.8623C76.0489 32.0304 84.0449 65.1635 84.0449 65.1635L61.2358 64.9016L61.2388 64.9066Z" fill="#F7C400"/>
</g>
<g id="Group_3">
<path id="Vector_3" d="M88.9903 127.928C88.9903 127.928 82.4314 146.308 93.8149 146.963C105.198 147.618 101.926 124.803 101.926 124.803L88.9903 127.928Z" fill="#DF5F15"/>
<path id="Vector_4" d="M132.527 84.7045C137.816 93.4928 127.991 109.117 110.572 119.6C93.1537 130.083 74.7505 131.454 69.4585 122.661" stroke="white" stroke-width="1.5" stroke-linecap="round" stroke-linejoin="round"/>
<path id="Vector_5" d="M116.537 67.8826C120.576 74.5923 118.406 83.3027 111.701 87.3378C104.997 91.3729 96.2813 89.2066 92.2461 82.5018C88.211 75.797 90.3774 67.0817 97.0822 63.0466C103.787 59.0114 112.502 61.1778 116.537 67.8826Z" fill="white"/>
<path id="Vector_6" d="M110.113 76.6182C111.302 78.5931 110.665 81.1555 108.69 82.344C106.715 83.5326 104.153 82.8957 102.964 80.9208C101.776 78.9459 102.413 76.3835 104.388 75.1949C106.362 74.0064 108.925 74.6433 110.113 76.6182Z" fill="#676463"/>
<path id="Vector_7" d="M86.406 86.0167C90.4441 92.7264 88.2747 101.437 81.5699 105.472C74.8651 109.507 66.1499 107.341 62.1148 100.636C58.0796 93.9311 60.2459 85.2158 66.9507 81.1807C73.6555 77.1455 82.3709 79.3119 86.406 86.0167Z" fill="white"/>
<path id="Vector_8" d="M79.9859 94.7498C81.1745 96.7247 80.5376 99.2871 78.5627 100.476C76.5878 101.664 74.0254 101.027 72.8368 99.0523C71.6483 97.0774 72.2852 94.5151 74.2601 93.3265C76.235 92.138 78.7974 92.7749 79.9859 94.7498Z" fill="#676463"/>
</g>
</g>
</svg>
