<svg width="98" height="104" viewBox="0 0 98 104" fill="none" xmlns="http://www.w3.org/2000/svg">
<path d="M87.6615 47.0602C87.6615 25.097 69.7963 7.20502 47.8063 7.20502C25.8431 7.20502 7.95117 25.0702 7.95117 47.0602C7.95117 69.0234 25.8164 86.9153 47.8063 86.9153C58.7076 86.9153 68.6178 82.5227 75.796 75.398L75.9031 75.5052L76.4924 74.9159L76.3852 74.8088C83.3492 67.6038 87.6615 57.8275 87.6615 47.0602ZM21.5041 20.0079L23.245 21.8025C16.7364 28.1236 12.6652 36.9089 12.5581 46.6316H10.0671C10.1743 36.2125 14.5401 26.7844 21.5041 20.0079ZM34.0124 31.552C35.6462 30.1057 37.4943 28.9004 39.5299 28.0165L46.0118 43.7925L34.0124 31.552ZM30.6375 63.5326L23.2718 70.8715C17.3793 64.8182 13.7098 56.5686 13.6027 47.4887H23.995C24.1289 53.7027 26.6199 59.3542 30.6375 63.5326ZM27.0484 46.6316C27.102 44.1675 27.5841 41.8104 28.4144 39.6141L45.6636 46.6316H27.0484ZM28.6555 55.0955L46.0386 48.1851L32.7803 61.3898C31.0661 59.5685 29.6465 57.4525 28.6555 55.0955ZM24.0218 46.6316H13.6295C13.7366 37.2035 17.7007 28.6593 23.995 22.5525L31.2804 29.9717C26.8877 34.2037 24.1289 40.0962 24.0218 46.6316ZM10.0671 47.4619H12.5581C12.6652 56.8365 16.4418 65.3271 22.5219 71.5947L20.7541 73.3624C14.2455 66.6395 10.1743 57.5329 10.0671 47.4619ZM47.3778 84.7994C37.2533 84.6922 28.0662 80.5674 21.3434 73.9785L23.1111 72.2107C29.3787 78.3711 37.9229 82.2013 47.351 82.3084V84.7994H47.3778ZM47.3778 81.237C38.2443 81.1299 29.9411 77.4069 23.8611 71.4607L31.2268 64.1218C35.4319 68.193 41.1102 70.7376 47.3778 70.8447V81.237ZM47.3778 67.8181C45.1011 67.7645 42.9048 67.3627 40.8424 66.6395L47.3778 49.3636V67.8181ZM47.3778 23.2489C41.4316 23.356 35.9944 25.6595 31.8696 29.3825L24.6111 21.9632C30.6108 16.3921 38.6193 12.9637 47.4046 12.8565V23.2489H47.3778ZM47.3778 11.8119C38.2979 11.9191 30.0483 15.4546 23.8611 21.2132L22.1201 19.4187C28.7626 13.2315 37.6283 9.40133 47.3778 9.2942V11.8119ZM85.5455 46.6316H83.0546C82.9474 37.2571 79.1708 28.7664 73.0908 22.4989L74.8585 20.7311C81.3671 27.454 85.4384 36.5875 85.5455 46.6316ZM68.5642 47.4619C68.5106 49.9261 68.0285 52.2831 67.1982 54.4794L49.9491 47.4619H68.5642ZM66.9572 38.9981L49.5741 45.9084L62.8324 32.7305C64.5466 34.5251 65.9661 36.641 66.9572 38.9981ZM48.9313 47.9708L62.4574 61.7648C60.636 63.5861 58.4665 65.0593 56.0827 66.1039L48.5831 47.8369L48.9313 47.9708ZM71.5908 47.4619H81.9832C81.8761 56.4883 78.2602 64.6843 72.4212 70.7376L65.1358 63.3183C69.0731 59.1399 71.4837 53.5956 71.5908 47.4619ZM71.5908 46.6316C71.4837 40.4176 68.966 34.7661 64.9483 30.5878L72.314 23.2489C78.2066 29.3289 81.8761 37.5517 81.9832 46.6316H71.5908ZM48.2349 9.32098C58.3594 9.42812 67.5464 13.5529 74.2693 20.1687L72.5015 21.9364C66.234 15.776 57.6898 11.9459 48.2617 11.8387V9.32098H48.2349ZM48.2349 12.8565C57.3683 12.9637 65.6715 16.6867 71.7516 22.6328L64.3858 29.9717C60.1807 25.9005 54.5024 23.356 48.2349 23.2489V12.8565ZM48.2349 26.2755C50.5115 26.3291 52.7079 26.7308 54.7703 27.454L48.2349 44.7299V26.2755ZM48.2349 70.8447C54.6096 70.7376 60.3682 68.1127 64.5733 63.9343L71.8587 71.3536C65.7786 77.3801 57.4219 81.1299 48.2349 81.2638V70.8447ZM48.2349 84.7994V82.3084C57.7165 82.2013 66.3143 78.3175 72.5819 72.1036L74.3229 73.8981C67.6 80.5406 58.3861 84.6654 48.2349 84.7994ZM74.9389 73.2821L73.1979 71.4875C79.2244 65.2468 82.9474 56.7829 83.0546 47.4619H85.5455C85.4384 57.4793 81.4207 66.5592 74.9389 73.2821Z" fill="white"/>
<path d="M46.3337 47.5691L44.9141 46.712L44.4856 46.5245L28.3882 103.468H33.3165L46.3337 47.5691Z" fill="white"/>
<path d="M49.2793 47.8905L50.6989 47.0602L51.1274 46.8727L67.2248 103.816H62.2965L49.2793 47.8905Z" fill="white"/>
<path d="M52.2525 47.0601C52.2525 49.2832 50.458 51.1046 48.2081 51.1046C45.985 51.1046 44.1904 49.31 44.1904 47.0601C44.1904 44.837 45.985 43.0157 48.2081 43.0157C50.4312 43.0157 52.2525 44.8102 52.2525 47.0601Z" fill="white"/>
<path d="M55.3058 7.52641C55.3058 11.678 51.9309 15.0528 47.7793 15.0528C43.6278 15.0528 40.2529 11.678 40.2529 7.52641C40.2529 3.37483 43.6278 0 47.7793 0C51.9577 0 55.3058 3.37483 55.3058 7.52641Z" fill="white"/>
<path d="M55.3058 7.52643C55.3058 11.678 51.9309 15.0528 47.7793 15.0528C43.6278 15.0528 40.2529 11.678 40.2529 7.52643H55.3058Z" fill="white"/>
<path d="M83.2691 19.0973C83.2691 23.2489 79.8943 26.6237 75.7427 26.6237C71.5911 26.6237 68.2163 23.2489 68.2163 19.0973C68.2163 14.9457 71.5911 11.5709 75.7427 11.5709C79.8943 11.5709 83.2691 14.9457 83.2691 19.0973Z" fill="white"/>
<path d="M83.2691 19.0973C83.2691 23.2489 79.8943 26.6237 75.7427 26.6237C71.5911 26.6237 68.2163 23.2489 68.2163 19.0973H83.2691Z" fill="white"/>
<path d="M92.645 52.3883C95.5842 49.449 95.5842 44.6836 92.645 41.7444C89.7058 38.8052 84.9403 38.8052 82.0011 41.7444C79.0619 44.6836 79.0619 49.449 82.0011 52.3883C84.9403 55.3275 89.7058 55.3275 92.645 52.3883Z" fill="white"/>
<path d="M94.8394 47.0602C94.8394 51.2118 91.4646 54.5866 87.313 54.5866C83.1615 54.5866 79.7866 51.2118 79.7866 47.0602H94.8394Z" fill="white"/>
<path d="M15.7989 47.0602C15.7989 51.2117 12.4241 54.5866 8.2725 54.5866C4.12092 54.5866 0.746094 51.2117 0.746094 47.0602C0.746094 42.9086 4.12092 39.5338 8.2725 39.5338C12.4241 39.5338 15.7989 42.8818 15.7989 47.0602Z" fill="white"/>
<path d="M15.7989 47.0602C15.7989 51.2118 12.4241 54.5866 8.2725 54.5866C4.12092 54.5866 0.746094 51.2118 0.746094 47.0602H15.7989Z" fill="white"/>
<path d="M83.2691 74.9962C83.2691 79.1478 79.8943 82.5226 75.7427 82.5226C71.5911 82.5226 68.2163 79.1478 68.2163 74.9962C68.2163 70.8446 71.5911 67.4698 75.7427 67.4698C79.8943 67.4698 83.2691 70.8446 83.2691 74.9962Z" fill="white"/>
<path d="M83.2691 74.9962C83.2691 79.1478 79.8943 82.5226 75.7427 82.5226C71.5911 82.5226 68.2163 79.1478 68.2163 74.9962H83.2691Z" fill="white"/>
<path d="M27.3697 19.0973C27.3697 23.2489 23.9949 26.6237 19.8433 26.6237C15.6917 26.6237 12.3169 23.2489 12.3169 19.0973C12.3169 14.9457 15.6917 11.5709 19.8433 11.5709C23.9949 11.5709 27.3697 14.9457 27.3697 19.0973Z" fill="white"/>
<path d="M27.3697 19.0973C27.3697 23.2489 23.9949 26.6237 19.8433 26.6237C15.6917 26.6237 12.3169 23.2489 12.3169 19.0973H27.3697Z" fill="white"/>
<path d="M19.8433 82.5226C24 82.5226 27.3697 79.1529 27.3697 74.9962C27.3697 70.8395 24 67.4698 19.8433 67.4698C15.6866 67.4698 12.3169 70.8395 12.3169 74.9962C12.3169 79.1529 15.6866 82.5226 19.8433 82.5226Z" fill="white"/>
<path d="M27.3697 74.9962C27.3697 79.1478 23.9949 82.5226 19.8433 82.5226C15.6917 82.5226 12.3169 79.1478 12.3169 74.9962H27.3697Z" fill="white"/>
<path d="M55.3058 86.5671C55.3058 90.7187 51.9309 94.0935 47.7793 94.0935C43.6278 94.0935 40.2529 90.7187 40.2529 86.5671C40.2529 82.4155 43.6278 79.0407 47.7793 79.0407C51.9577 79.0675 55.3058 82.4155 55.3058 86.5671Z" fill="white"/>
<path d="M55.3058 86.5671C55.3058 90.7187 51.9309 94.0935 47.7793 94.0935C43.6278 94.0935 40.2529 90.7187 40.2529 86.5671H55.3058Z" fill="white"/>
</svg>
