<svg width="107" height="95" viewBox="0 0 107 95" fill="none" xmlns="http://www.w3.org/2000/svg">
<path fill-rule="evenodd" clip-rule="evenodd" d="M78.7049 84.4575C80.9547 83.996 83.1468 83.3903 85.3389 82.6692C86.3484 67.3823 74.7534 55.9603 59.8414 54.2297C54.7361 53.6528 49.4001 53.9701 45.6793 55.1527C42.0739 56.2776 38.9011 58.3831 35.6995 61.9597C29.902 68.3918 27.3926 75.7468 24.0468 83.4191C25.4313 83.8229 26.8446 84.1691 28.2579 84.4575C41.5259 87.2842 65.4081 87.2842 78.7049 84.4575ZM80.2625 34.2413C100.684 24.6941 91.1652 51.5473 105.731 58.9023C98.3472 66.0555 93.2708 61.8155 88.4828 55.5276C88.5982 56.6814 88.8866 57.864 89.55 59.7099C90.8191 63.2288 92.3478 66.517 93.9342 70.0935L97.0204 77.1313C98.3761 76.266 99.7317 75.3142 101.087 74.2758C102.731 73.0067 105.068 73.3817 106.279 75.1123C107.491 76.8429 107.144 79.2657 105.472 80.5348C97.3665 86.7938 88.9731 90.1973 80.1759 92.0721C65.7543 95.1295 41.2374 95.1295 26.8158 92.0721C18.0186 90.1973 9.59631 86.7938 1.52018 80.5348C-0.123886 79.2657 -0.498849 76.8429 0.71257 75.1123C1.92399 73.3817 4.23145 73.0067 5.90437 74.2758C8.70217 76.4391 11.5288 78.1985 14.4131 79.6695C16.9225 75.3719 20.153 68.3341 22.9508 60.6329C28.1137 46.4132 31.7768 29.8859 26.412 23.8865C25.9793 23.3962 25.3159 23.0212 24.1333 22.7328C22.9796 22.4155 22.172 22.6751 19.778 22.6463C17.0667 22.6174 14.2401 22.3578 12.6825 21.2329C11.7307 20.5695 11.0673 19.5889 11.0096 18.2044C10.9808 17.714 11.125 17.0795 11.4134 16.0411C11.7596 14.8297 12.3653 13.9644 13.9228 12.6376C16.5764 10.4167 22.7777 7.64772 26.2389 6.17672C26.8735 5.8306 27.5369 5.48448 28.1714 5.13836C28.4887 4.59033 28.7771 4.01347 29.0944 3.46544C29.3252 3.03279 29.5559 2.62899 29.8155 2.28287C30.3924 1.5041 30.6519 1.0426 31.1134 0.667641C31.5461 0.292677 31.8057 0.0907751 32.0364 0.0330884C33.767 -0.457248 33.3055 4.64802 33.2478 5.68638C35.2957 7.64773 36.8244 9.17642 38.0935 10.5897C50.2942 24.3192 40.5452 33.5202 61.197 33.3471C66.7349 33.2894 73.3401 32.453 78.7338 33.7798C79.2818 33.8952 79.7721 34.0682 80.2625 34.2413Z" fill="white"/>
</svg>
