<svg width="83" height="88" viewBox="0 0 83 88" fill="none" xmlns="http://www.w3.org/2000/svg">
<path d="M52.9153 10.6627C62.845 14.2891 70.9993 21.8059 75.3925 31.5029C75.8046 31.1347 76.2025 30.7463 76.574 30.3175C81.688 24.4166 80.6354 15.1068 74.2218 9.52609C67.8083 3.94322 58.4632 4.20322 53.3471 10.104C53.1912 10.2839 53.0585 10.4779 52.913 10.6648L52.9153 10.6627Z" fill="white"/>
<path d="M31.6776 9.22346C21.4696 11.9717 12.6931 18.7514 7.47176 28.0282C7.09358 27.6252 6.72912 27.2032 6.39851 26.7454C1.81453 20.4227 3.67533 11.2393 10.5493 6.2369C17.4234 1.23446 26.7117 2.30417 31.2934 8.6289C31.4317 8.82311 31.548 9.02739 31.6776 9.22563L31.6776 9.22346Z" fill="white"/>
<path d="M24.2328 78.6323C24.2328 82.8483 20.8236 86.2646 16.6164 86.2646C12.4092 86.2646 9 82.8461 9 78.6323C9 74.4184 12.4092 71 16.6164 71C20.8236 71 24.2328 74.4184 24.2328 78.6323Z" fill="white"/>
<path d="M70.4322 80.4824C71.2586 76.3494 68.585 72.3275 64.4606 71.4994C60.3361 70.6713 56.3227 73.3505 55.4963 77.4835C54.6699 81.6166 57.3435 85.6384 61.468 86.4665C65.5924 87.2947 69.6058 84.6155 70.4322 80.4824Z" fill="white"/>
<path d="M40.6921 80.6191C21.6468 80.6191 6.15381 65.0938 6.15381 46.0087C6.15381 26.9236 21.6468 11.3961 40.6921 11.3961C59.7374 11.3961 75.2304 26.9214 75.2304 46.0065C75.2304 65.0916 59.7374 80.617 40.6921 80.617V80.6191ZM40.6921 14.9123C23.5813 14.9123 9.66056 28.8621 9.66056 46.0065C9.66056 63.1509 23.5813 77.1029 40.6921 77.1029C57.803 77.1029 71.7237 63.1531 71.7237 46.0065C71.7237 28.8599 57.803 14.9123 40.6921 14.9123Z" fill="white"/>
<path d="M42.8675 22.6772H38.5171V46.0065H42.8675V22.6772Z" fill="white"/>
<path d="M54.5782 44.2006H38.582V47.8124H54.5782V44.2006Z" fill="white"/>
</svg>
