<svg width="90" height="97" viewBox="0 0 90 97" fill="none" xmlns="http://www.w3.org/2000/svg">
<path d="M89.3405 56.4247V85.692C89.3405 99.4871 0.619141 99.4871 0.619141 85.692V56.4247C0.619141 61.9698 20.4733 66.46 44.9798 66.46C69.4594 66.4329 89.3405 61.9428 89.3405 56.4247Z" fill="white"/>
<path d="M89.3405 56.4248C89.3405 61.9699 69.4864 66.46 44.9798 66.46C20.4733 66.46 0.619141 61.9699 0.619141 56.4248C0.619141 53.6116 5.78554 51.042 14.0896 49.2297V55.1264C14.0896 63.2682 37.7306 63.8903 44.9798 63.8903C52.229 63.8903 75.87 63.2682 75.87 55.1264V49.2297C84.1741 51.042 89.3405 53.5846 89.3405 56.4248Z" fill="white"/>
<path d="M73.9498 32.892V55.1264C73.9498 64.269 15.9834 64.269 15.9834 55.1264V32.892C15.9834 36.5166 28.967 39.4379 44.9801 39.4379C60.9933 39.4379 73.9498 36.5166 73.9498 32.892Z" fill="white"/>
<path d="M73.9498 32.8919C73.9498 36.5165 60.9662 39.4379 44.9801 39.4379C28.9941 39.4379 15.9834 36.5165 15.9834 32.8919C15.9834 30.7551 20.5277 28.8616 27.5064 27.6714V31.3772C27.5064 36.8952 39.7056 37.4903 44.9531 37.4903C50.2006 37.4903 62.3998 36.8952 62.3998 31.3772V27.6714C69.4326 28.8616 73.9498 30.7551 73.9498 32.8919Z" fill="white"/>
<path d="M60.5333 16.0403V31.3501C60.5333 36.9764 29.4268 36.9764 29.4268 31.3501V16.0403C29.4268 17.9878 36.3784 19.5567 44.9801 19.5567C53.5817 19.5567 60.5333 17.9878 60.5333 16.0403Z" fill="white"/>
<path d="M44.9801 19.5567C53.5699 19.5567 60.5333 17.9823 60.5333 16.0403C60.5333 14.0982 53.5699 12.5239 44.9801 12.5239C36.3902 12.5239 29.4268 14.0982 29.4268 16.0403C29.4268 17.9823 36.3902 19.5567 44.9801 19.5567Z" fill="white"/>
<path d="M40.7332 5.68035C38.1365 2.65084 35.2693 2.1369 34.2144 1.67706C34.3496 4.40903 35.5398 7.05985 37.4873 8.9533C39.4348 10.8738 42.1127 12.0099 44.8176 12.091C44.0332 10.2787 41.5717 6.62707 40.7332 5.68035Z" fill="white"/>
<path d="M49.3077 4.11144C47.0085 5.89668 45.6831 8.89914 45.9266 11.7934C48.1176 11.6311 50.038 10.0623 51.1741 8.19586C52.3102 6.30242 52.8512 4.13848 53.338 1.97455C51.9315 2.56963 50.4979 3.16471 49.3077 4.11144Z" fill="white"/>
<path d="M45.0341 0C44.8177 0.459836 44.5743 0.919672 44.3579 1.37951C44.0333 2.05574 43.6817 2.70492 43.5194 3.43525C43.0595 5.19345 43.5735 7.08689 44.4932 8.65574C45.0612 7.87132 45.3858 6.95164 45.6563 6.03197C45.8186 5.49099 45.9809 4.92295 46.0079 4.35492C46.062 2.86721 45.2235 1.48771 45.0341 0Z" fill="white"/>
</svg>
