<svg width="97" height="96" viewBox="0 0 97 96" fill="none" xmlns="http://www.w3.org/2000/svg">
<g id="Group">
<g id="Group_2">
<path id="Vector" d="M74.0691 28.1187C84.6242 42.0936 82.679 61.3543 69.7245 71.1387C56.77 80.9231 37.7117 77.5261 27.1566 63.5511C16.6015 49.5762 18.5466 30.3155 31.5012 20.5311C44.4557 10.7467 63.514 14.1438 74.0691 28.1187Z" fill="#8AC8E5"/>
<path id="Vector_2" d="M27.9625 57.0391C27.9625 57.0391 15.5014 59.366 18.2941 63.0303C21.0872 66.6906 28.2278 61.56 28.2278 61.56C28.2278 61.56 17.5657 65.153 20.2771 68.7444C22.9884 72.3359 32.251 62.719 32.251 62.719C32.251 62.719 23.3573 69.6988 26.5885 72.2416C29.8198 74.7845 38.7181 60.4572 38.7181 60.4572L27.9603 57.0409L27.9625 57.0391Z" fill="#8AC8E5"/>
</g>
<g id="Group_3">
<path id="Vector_3" d="M45.8489 41.9566C49.0066 45.63 48.5886 51.1676 44.9153 54.3253C41.242 57.483 35.7043 57.065 32.5466 53.3917C29.3889 49.7184 29.8069 44.1807 33.4803 41.023C37.1536 37.8653 42.6912 38.2833 45.8489 41.9566Z" fill="white"/>
<path id="Vector_4" d="M53.1308 54.1144C55.2845 56.6198 54.9994 60.3968 52.494 62.5505C49.9886 64.7042 46.2116 64.4191 44.0579 61.9137C41.9041 59.4083 42.1892 55.6313 44.6946 53.4776C47.2001 51.3239 50.977 51.609 53.1308 54.1144Z" fill="white"/>
<path id="Vector_5" d="M41.9438 46.919C42.9354 48.0726 42.8042 49.8117 41.6506 50.8033C40.497 51.795 38.7579 51.6637 37.7663 50.5101C36.7746 49.3565 36.9059 47.6175 38.0595 46.6258C39.213 45.6341 40.9521 45.7654 41.9438 46.919Z" fill="#676463"/>
<path id="Vector_6" d="M50.5182 55.9271C51.3651 56.9123 51.253 58.3975 50.2678 59.2444C49.2826 60.0913 47.7974 59.9792 46.9505 58.994C46.1036 58.0088 46.2157 56.5236 47.2009 55.6767C48.1861 54.8298 49.6713 54.9419 50.5182 55.9271Z" fill="#676463"/>
</g>
<path id="Vector_7" d="M58.3777 48.6791C58.3777 48.6791 60.742 42.9918 54.8576 40.2669C48.9709 37.5438 47.52 34.8805 50.3621 31.3281C53.2042 27.7757 63.3901 33.4923 67.1215 40.8206C70.8529 48.1488 62.1192 61.7403 58.3737 48.6788L58.3777 48.6791Z" fill="#524975"/>
<path id="Vector_8" d="M59.1903 32.5606C59.1903 32.5606 56.1736 36.0149 58.0431 38.3559C59.9108 40.6948 62.6928 41.206 62.6928 41.206C62.6928 41.206 62.4255 43.3009 64.0036 45.9676C65.5834 48.6366 67.6596 47.9461 67.6596 47.9461C67.6596 47.9461 71.5474 40.9868 59.1943 32.5609L59.1903 32.5606Z" fill="#DF5F15"/>
</g>
</svg>
