<svg width="82" height="79" viewBox="0 0 82 79" fill="none" xmlns="http://www.w3.org/2000/svg">
<g id="&#209;&#129;&#208;&#188;&#208;&#176;&#208;&#185;&#208;&#187;">
<g id="Group">
<path id="Vector" d="M76.1842 38.5758C76.51 57.6542 62.4372 73.3652 44.7518 73.6672C27.0664 73.9692 12.4654 58.7478 12.1397 39.6694C11.8139 20.5909 25.8867 4.88001 43.5721 4.57803C61.2575 4.27605 75.8585 19.4974 76.1842 38.5758Z" fill="#6A5C8F"/>
<path id="Vector_2" d="M17 34.4524C17 34.4524 4.53468 28.5047 4.64222 33.5233C4.75262 38.5386 14.3324 38.6034 14.3324 38.6034C14.3324 38.6034 2.63869 34.9249 2.72129 39.8271C2.80388 44.7293 17.1311 42.2057 17.1311 42.2057C17.1311 42.2057 4.821 42.644 6.0343 46.9566C7.2476 51.2692 24.2768 44.3643 24.2768 44.3643L16.9969 34.4526L17 34.4524Z" fill="#6A5C8F"/>
</g>
<g id="Group_2">
<path id="Vector_3" d="M53.5501 25.8562C53.5501 25.8562 59.5431 17.2083 63.4059 21.9903C67.2688 26.7724 56.2448 32.5056 56.2448 32.5056L53.5501 25.8562Z" fill="#DF5F15"/>
<path id="Vector_4" d="M48.2909 58.5089C53.803 58.0656 57.5626 48.8526 56.6839 37.9274C55.8052 27.0023 50.6246 18.5081 45.1094 18.9517" stroke="white" stroke-width="1.5" stroke-linecap="round" stroke-linejoin="round"/>
<path id="Vector_5" d="M35.8979 56.788C40.1063 56.4495 43.2414 52.7628 42.9031 48.5575C42.5649 44.3521 38.8779 41.214 34.6726 41.5522C30.4672 41.8905 27.3292 45.5775 27.6674 49.7828C28.0056 53.9881 31.6926 57.1262 35.8979 56.788Z" fill="white"/>
<path id="Vector_6" d="M37.7042 51.2319C38.9429 51.1322 39.8655 50.0482 39.7659 48.8095C39.6663 47.5709 38.5823 46.6482 37.3436 46.7478C36.1049 46.8475 35.1823 47.9315 35.2819 49.1702C35.3815 50.4088 36.4655 51.3315 37.7042 51.2319Z" fill="#676463"/>
<path id="Vector_7" d="M34.3774 37.8887C38.5858 37.5503 41.7208 33.8635 41.3826 29.6582C41.0444 25.4529 37.3574 22.3148 33.1521 22.653C28.9467 22.9912 25.8086 26.6783 26.1469 30.8836C26.4851 35.0889 30.1721 38.227 34.3774 37.8887Z" fill="white"/>
<path id="Vector_8" d="M36.1837 32.3329C37.4224 32.2333 38.345 31.1493 38.2454 29.9106C38.1458 28.6719 37.0617 27.7493 35.8231 27.8489C34.5844 27.9485 33.6617 29.0326 33.7614 30.2712C33.861 31.5099 34.945 32.4326 36.1837 32.3329Z" fill="#676463"/>
</g>
</g>
</svg>
