<svg width="78" height="80" viewBox="0 0 78 80" fill="none" xmlns="http://www.w3.org/2000/svg">
<g id="Group">
<g id="Group_2">
<path id="Vector" d="M40.6359 77.3256C60.7225 76.0549 76.0509 59.9302 74.8729 41.3102C73.6949 22.6903 56.4566 8.62596 36.37 9.89674C16.2834 11.1675 0.954954 27.2922 2.13295 45.9121C3.31094 64.5321 20.5493 78.5964 40.6359 77.3256Z" fill="#F7C400"/>
<path id="Vector_2" d="M31.2997 15.4723C31.2997 15.4723 23.9921 2.86923 29.2778 2.55792C34.5602 2.24989 35.4384 12.3166 35.4384 12.3166C35.4384 12.3166 30.582 0.33289 35.7432 0.00519738C40.9043 -0.322495 39.4625 14.9545 39.4625 14.9545C39.4625 14.9545 38.8825 1.97463 43.5193 2.88562C48.1562 3.7966 42.3363 22.285 42.3363 22.285L31.2997 15.469V15.4723Z" fill="#F7C400"/>
</g>
<g id="Group_3">
<path id="Vector_3" d="M30.3923 42.2612C35.9593 42.2612 40.4722 37.7483 40.4722 32.1814C40.4722 26.6145 35.9593 22.1016 30.3923 22.1016C24.8254 22.1016 20.3125 26.6145 20.3125 32.1814C20.3125 37.7483 24.8254 42.2612 30.3923 42.2612Z" fill="white"/>
<path id="Vector_4" d="M46.4424 39.4988C50.2393 39.4988 53.3174 36.4207 53.3174 32.6238C53.3174 28.8268 50.2393 25.7488 46.4424 25.7488C42.6454 25.7488 39.5674 28.8268 39.5674 32.6238C39.5674 36.4207 42.6454 39.4988 46.4424 39.4988Z" fill="white"/>
<path id="Vector_5" d="M31.7915 35.1405C33.5397 35.1405 34.957 33.7232 34.957 31.975C34.957 30.2267 33.5397 28.8094 31.7915 28.8094C30.0432 28.8094 28.626 30.2267 28.626 31.975C28.626 33.7232 30.0432 35.1405 31.7915 35.1405Z" fill="#676463"/>
<path id="Vector_6" d="M46.0658 35.8646C47.5589 35.8646 48.7692 34.6543 48.7692 33.1612C48.7692 31.6681 47.5589 30.4577 46.0658 30.4577C44.5727 30.4577 43.3623 31.6681 43.3623 33.1612C43.3623 34.6543 44.5727 35.8646 46.0658 35.8646Z" fill="#676463"/>
</g>
<path id="Vector_7" d="M45.6397 48.1433C45.6397 48.1433 42.4545 54.4645 35.6713 51.3776C28.8881 48.2874 25.48 49.0182 24.5133 54.1564C23.5466 59.2946 36.1595 63.8889 45.3415 61.6508C54.5235 59.4126 59.8255 41.6189 45.6364 48.14L45.6397 48.1433Z" fill="#524975"/>
<path id="Vector_8" d="M32.1973 60.9266C32.1973 60.9266 32.9477 55.7097 36.3885 55.5852C39.826 55.4607 42.3557 57.5022 42.3557 57.5022C42.3557 57.5022 43.9811 55.6999 47.4874 55.0773C50.997 54.4546 51.9506 56.7813 51.9506 56.7813C51.9506 56.7813 48.7982 65.3832 32.2005 60.9298L32.1973 60.9266Z" fill="#DF5F15"/>
</g>
</svg>
