<svg width="91" height="91" viewBox="0 0 91 91" fill="none" xmlns="http://www.w3.org/2000/svg">
<g id="Layer 3">
<path id="Vector" d="M45.2011 90.4008C20.2377 90.4008 0.000894135 70.164 0.000896317 45.2006C0.000898499 20.2372 20.2377 0.000360077 45.2011 0.000362259C70.1645 0.000364442 90.4014 20.2372 90.4014 45.2006C90.4014 70.164 70.1645 90.4008 45.2011 90.4008Z" fill="white"/>
<path id="Vector_2" d="M41.9972 84.0005C66.9652 84.0005 87.1974 63.7609 87.1974 38.8002C87.2036 33.0009 86.0934 27.2546 83.9273 21.875C88.1763 28.9125 90.4154 36.9799 90.4013 45.2006C90.4013 70.1613 70.1617 90.4008 45.2011 90.4008C26.2209 90.4008 9.97332 78.7049 3.27835 62.1258C11.1886 75.2359 25.5728 84.0005 41.9972 84.0005Z" fill="white"/>
<path id="Vector_3" d="M45.201 0.000316092C54.8856 -0.017285 64.317 3.09293 72.0913 8.86802C61.4199 4.74999 49.6894 4.26078 38.7122 7.47599C38.8067 7.59195 38.8882 7.71791 38.9553 7.85162C40.2957 10.3484 37.5633 14.414 32.8642 16.9329C28.1653 19.4518 23.26 19.4813 21.9196 16.9918C21.7918 16.7486 21.7 16.4881 21.647 16.2185C9.47973 25.6459 1.62107 40.3837 1.54742 56.9554C0.517635 53.1221 -0.00240756 49.1698 0.00072847 45.2005C0.000730652 20.2399 20.2403 0.00031391 45.201 0.000316092Z" fill="white"/>
<path id="Vector_4" d="M24.7919 37.0841C25.1986 37.0851 25.5976 36.9734 25.9447 36.7615C26.2918 36.5496 26.5734 36.2458 26.7584 35.8836C27.8632 33.7256 29.2773 32.4293 30.5368 32.4293C31.7962 32.4293 33.2103 33.7256 34.3151 35.8836C34.5917 36.3873 35.0537 36.7635 35.6031 36.9322C36.1525 37.101 36.7459 37.049 37.2577 36.7874C37.7694 36.5258 38.159 36.0751 38.3439 35.531C38.5288 34.9869 38.4945 34.3921 38.2481 33.8729C36.3184 30.0945 33.5786 28.0102 30.5368 28.0102C27.4949 28.0102 24.7551 30.0945 22.8254 33.8729C22.6929 34.1306 22.6127 34.4118 22.5891 34.7006C22.5656 34.9894 22.5992 35.2799 22.6882 35.5557C22.7771 35.8314 22.9196 36.0869 23.1074 36.3075C23.2953 36.528 23.5248 36.7094 23.7829 36.8411C24.0945 37.0027 24.4408 37.0861 24.7919 37.0841Z" fill="#695C91"/>
<path id="Vector_5" d="M65.6097 37.0841C65.9608 37.0861 66.3071 37.0027 66.6188 36.8411C66.8768 36.7094 67.1064 36.528 67.2942 36.3075C67.4821 36.0869 67.6245 35.8314 67.7135 35.5557C67.8024 35.2799 67.8361 34.9894 67.8125 34.7006C67.789 34.4118 67.7087 34.1306 67.5763 33.8729C65.6466 30.0945 62.9067 28.0102 59.8649 28.0102C56.8231 28.0102 54.0832 30.0945 52.1535 33.8729C51.9072 34.3921 51.8728 34.9869 52.0577 35.531C52.2426 36.0751 52.6323 36.5258 53.144 36.7874C53.6557 37.049 54.2492 37.101 54.7986 36.9322C55.3479 36.7635 55.8099 36.3873 56.0865 35.8836C57.1913 33.7256 58.6054 32.4293 59.8649 32.4293C61.1243 32.4293 62.5385 33.7256 63.6432 35.8836C63.8282 36.2458 64.1099 36.5496 64.457 36.7615C64.8041 36.9734 65.2031 37.0851 65.6097 37.0841Z" fill="#695C91"/>
<path id="Vector_6" d="M56.2997 47.528L34.101 47.528C33.1673 47.528 32.2718 47.8989 31.6116 48.5591C30.9514 49.2193 30.5805 50.1148 30.5805 51.0485C30.5795 52.9691 30.9569 54.871 31.6912 56.6456C32.4255 58.4202 33.5023 60.0328 34.8599 61.3911C36.2176 62.7495 37.8296 63.827 39.6039 64.5622C41.3781 65.2974 43.2799 65.6758 45.2004 65.6758C49.0778 65.6758 52.7965 64.1355 55.5382 61.3937C58.28 58.652 59.8203 54.9333 59.8203 51.0559C59.8203 50.1222 59.4494 49.2267 58.7892 48.5665C58.1289 47.9062 57.2335 47.5353 56.2997 47.5353L56.2997 47.528Z" fill="#695C91"/>
<path id="Vector_7" d="M52.2197 63.886C50.0679 65.0638 47.6537 65.6793 45.2007 65.6758C42.7477 65.6793 40.3335 65.0638 38.1817 63.886C38.572 59.2975 41.5696 56.6019 45.2007 56.6019C48.8317 56.6019 51.8294 59.2975 52.2197 63.886Z" fill="#695C91"/>
</g>
</svg>
