<svg width="77" height="96" viewBox="0 0 77 96" fill="none" xmlns="http://www.w3.org/2000/svg">
<g clip-path="url(#clip0_101_26)">
<path d="M63.5748 70.6062V58.2844L57.7396 56.683C57.2315 55.0016 56.5627 53.3898 55.7514 51.8631L58.7195 46.6616L49.9629 37.9503L44.8588 40.8308C43.2075 39.9257 41.4526 39.1855 39.6147 38.6362L37.9841 32.7539H25.5984L23.9679 38.6362C22.0678 39.2062 20.2558 39.9772 18.5579 40.9263L13.5782 38.1127L4.82157 46.8241L7.76636 51.9869C6.9835 53.4775 6.33804 55.0454 5.84292 56.683L0 58.287V70.6087L5.83773 72.2102C6.35877 73.938 7.04831 75.5911 7.8882 77.1538L5.04451 82.1387L13.8011 90.8501L18.7264 88.0701C20.388 88.9804 22.1559 89.7205 24.0068 90.2724L25.5958 96.0026H37.9815L39.5706 90.2724C41.3592 89.7412 43.0727 89.0346 44.6851 88.1629L49.7348 91.0151L58.4914 82.3038L55.6244 77.2802C56.4953 75.6813 57.203 73.9844 57.7396 72.2128L63.5748 70.6113V70.6062ZM31.7887 80.741C22.7029 80.741 15.3383 73.4145 15.3383 64.3757C15.3383 55.3368 22.7029 48.0103 31.7887 48.0103C40.8745 48.0103 48.2391 55.3368 48.2391 64.3757C48.2391 73.4145 40.8745 80.741 31.7887 80.741Z" fill="white"/>
<path d="M76.9998 22.7119L76.4503 14.9521L72.7045 14.1991C72.3105 13.1624 71.8179 12.1773 71.2373 11.2515L72.8756 7.84482L66.973 2.74387L63.8857 4.78374C62.8047 4.28602 61.6667 3.89662 60.4847 3.631L59.1937 -0.00259399L51.3937 0.544121L50.6289 4.32213C49.4573 4.76569 48.3504 5.33045 47.3238 6.00353L44.0628 4.45107L38.9353 10.3231L41.0195 13.4435C40.5944 14.4157 40.2548 15.4318 40.0163 16.4865L36.4131 17.7527L36.9626 25.5125L40.7084 26.2629C41.1128 27.328 41.6209 28.3389 42.2197 29.2853L40.6514 32.5501L46.5539 37.6511L49.5324 35.6834C50.6186 36.1837 51.7644 36.5731 52.9542 36.8388L54.2088 40.3769L62.0089 39.8302L62.7555 36.1528C63.8572 35.7376 64.9044 35.2167 65.8817 34.5977L69.1894 36.1708L74.3169 30.2988L72.2871 27.2609C72.7641 26.2165 73.1348 25.1179 73.394 23.9781L76.9972 22.7119H76.9998ZM57.431 30.4948C51.7099 30.8945 46.7432 26.6059 46.3414 20.9118C45.9396 15.2203 50.2505 10.2793 55.9742 9.87953C61.6952 9.47981 66.662 13.7684 67.0638 19.4625C67.4656 25.154 63.1547 30.0951 57.431 30.4948Z" fill="white"/>
</g>
<defs>
<clipPath id="clip0_101_26">
<rect width="77" height="96" fill="white"/>
</clipPath>
</defs>
</svg>
