<svg width="63" height="80" viewBox="0 0 63 80" fill="none" xmlns="http://www.w3.org/2000/svg">
<g clip-path="url(#clip0_101_29)">
<path d="M31.4989 0.369385C14.3035 0.369385 0.362305 14.5892 0.362305 32.1284C0.362305 53.1932 31.4989 79.5185 31.4989 79.5185C31.4989 79.5185 62.6355 53.5015 62.6355 32.1284C62.638 14.5892 48.6969 0.369385 31.4989 0.369385ZM31.7262 49.4052C22.9774 49.4052 15.8819 42.1704 15.8819 33.2442C15.8819 24.3179 22.9749 17.0832 31.7262 17.0832C40.4775 17.0832 47.5705 24.3179 47.5705 33.2442C47.5705 42.1704 40.4775 49.4052 31.7262 49.4052Z" fill="white"/>
<path d="M31.4988 80L31.269 79.8038C30.9543 79.5415 0 53.127 0 32.1284C0 14.4135 14.131 0 31.4988 0C48.8665 0 63 14.4135 63 32.1284C63 53.4327 32.0432 79.544 31.7285 79.8064L31.4963 80H31.4988ZM31.4988 0.738759C14.5306 0.741307 0.726779 14.821 0.726779 32.1284C0.726779 51.8303 28.6591 76.5711 31.5012 79.0371C34.3509 76.5915 62.2757 52.1157 62.2757 32.1284C62.2732 14.821 48.4694 0.741307 31.4988 0.741307V0.738759ZM31.726 49.7746C22.7899 49.7746 15.5196 42.3589 15.5196 33.2442C15.5196 24.1294 22.7899 16.7138 31.726 16.7138C40.6622 16.7138 47.9324 24.1294 47.9324 33.2442C47.9324 42.3589 40.6622 49.7746 31.726 49.7746ZM31.726 17.4526C23.1895 17.4526 16.2464 24.537 16.2464 33.2442C16.2464 41.9513 23.192 49.0332 31.726 49.0332C40.2601 49.0332 47.2057 41.9488 47.2057 33.2442C47.2057 24.5395 40.2601 17.4526 31.726 17.4526Z" fill="white"/>
</g>
<defs>
<clipPath id="clip0_101_29">
<rect width="63" height="80" fill="white"/>
</clipPath>
</defs>
</svg>
