<svg width="141" height="140" viewBox="0 0 141 140" fill="none" xmlns="http://www.w3.org/2000/svg">
<path d="M108.997 99.1453C93.1909 119.747 64.896 124.57 45.7987 109.918C26.7014 95.2654 24.0334 66.6866 39.8397 46.0851C55.6459 25.4835 83.9409 20.6606 103.038 35.3128C122.136 49.9649 124.803 78.5437 108.997 99.1453Z" fill="#8AC8E5"/>
<path d="M49.4431 44.6513C49.4431 44.6513 41.1988 27.7606 37.0642 33.1983C32.9354 38.635 43.0866 46.8151 43.0866 46.8151C43.0866 46.8151 33.7429 32.9952 29.6803 38.2878C25.6177 43.5805 43.0184 53.0224 43.0184 53.0224C43.0184 53.0224 29.5323 43.0667 27.1735 48.6886C24.8147 54.3104 48.8036 61.3723 48.8036 61.3723L49.4396 44.6489L49.4431 44.6513Z" fill="#8AC8E5"/>
<path d="M58.6813 68.4359C64.2095 72.1475 71.6977 70.6722 75.4069 65.1474C79.1161 59.6227 77.6432 52.131 72.1184 48.4218C66.5936 44.7125 59.102 46.1855 55.3927 51.7103C51.6835 57.235 53.1565 64.7266 58.6813 68.4359Z" fill="white"/>
<path d="M53.51 83.0104C57.2798 85.5413 62.3896 84.5367 64.9205 80.7669C67.4515 76.9971 66.4469 71.8873 62.6771 69.3564C58.9073 66.8254 53.7975 67.8301 51.2665 71.5998C48.7356 75.3696 49.7403 80.4794 53.51 83.0104Z" fill="white"/>
<path d="M62.3834 62.9979C64.1209 64.1644 66.4734 63.7019 67.6399 61.9644C68.8064 60.227 68.3439 57.8744 66.6064 56.7079C64.8689 55.5414 62.5164 56.004 61.3499 57.7414C60.1834 59.4789 60.646 61.8314 62.3834 62.9979Z" fill="#676463"/>
<path d="M57.0586 78.7175C58.5398 79.712 60.5497 79.3198 61.5466 77.8351C62.5434 76.3504 62.1489 74.344 60.6642 73.3472C59.1794 72.3503 57.1731 72.7448 56.1762 74.2295C55.1794 75.7143 55.5739 77.7207 57.0586 78.7175Z" fill="#676463"/>
<path d="M57.5863 97.0524C68.9342 104.671 84.9986 100.623 93.4658 88.0116C101.933 75.4 99.5979 58.9987 88.25 51.3799" stroke="white" stroke-width="1.5" stroke-linecap="round" stroke-linejoin="round"/>
</svg>
