<svg width="107" height="103" viewBox="0 0 107 103" fill="none" xmlns="http://www.w3.org/2000/svg">
<g clip-path="url(#clip0_99_9)">
<path d="M47.297 52.2937L38.8363 49.7111C41.3738 42.3711 46.3959 28.3026 46.3959 28.3026C47.1312 25.9022 45.7783 23.3629 43.373 22.6291C40.9677 21.8953 38.423 23.2454 37.6877 25.6457C37.6877 25.6457 33.968 40.1099 31.9567 47.613L23.496 45.0328C18.6541 43.5557 14.8743 48.2652 10.8181 54.8523C10.8253 54.8451 10.8301 54.8427 10.8374 54.8355C10.8301 54.8403 10.8253 54.8475 10.8181 54.8523C9.6431 56.7586 8.44644 58.8208 7.19211 60.9382C6.37992 62.3098 5.47162 63.8348 4.52246 65.4247L8.97028 66.7819L28.0591 72.6064L47.148 78.4309L51.5958 79.7882C51.6992 77.9418 51.8025 76.1697 51.8962 74.5799C52.0428 72.1244 52.2062 69.7457 52.2999 67.5108C52.6267 59.7872 52.1341 53.7732 47.2922 52.2961L47.297 52.2937Z" fill="white"/>
<path d="M47.0398 80.3757L27.5064 74.4169L7.97296 68.4581L3.52273 67.1008C2.3477 69.0647 1.14143 71.0766 0.00244141 72.9781L25.56 80.7761L51.1175 88.5742C51.2377 86.3633 51.365 84.0205 51.4924 81.7377L47.0422 80.3805L47.0398 80.3757Z" fill="white"/>
<path d="M71.5136 23.0176C69.0434 15.3514 65.1722 2.99498 65.1722 2.99498C64.312 0.635433 61.7 -0.580309 59.3355 0.275746C56.971 1.1342 55.7528 3.74073 56.6106 6.10028C56.6106 6.10028 61.5943 18.0539 64.6316 25.5138C61.1353 28.7126 59.8089 34.4748 61.5558 40.1842L83.3119 32.2927C80.9787 26.7991 76.2521 23.231 71.5136 23.0176ZM61.7457 6.89159C60.6379 7.29444 59.4124 6.72374 59.0087 5.6159C58.605 4.51046 59.1769 3.28753 60.2871 2.88468C61.3948 2.48183 62.6203 3.05253 63.024 4.16037C63.4277 5.26581 62.8558 6.48874 61.7457 6.89159Z" fill="white"/>
<path d="M107 61.9789C104.559 61.0317 99.7577 58.5546 97.1097 53.0778C89.6005 37.5345 84.749 34.6259 83.7133 34.1583L62.445 41.8724C61.9788 42.8339 60.0877 48.1405 64.3553 64.9571C65.8524 70.8535 63.7618 75.8268 62.5003 78.1192C63.906 78.1552 66.53 78.0161 70.7712 77.1145C71.4992 73.6639 71.5978 68.0168 69.3294 58.888C69.3294 58.888 74.7192 66.7339 76.1946 75.7597C78.4894 75.1122 81.1013 74.2874 84.0473 73.2539L81.4666 61.0341L88.6898 71.5489C91.1864 70.5874 93.3683 69.6738 95.2786 68.8105L93.4404 61.6L99.008 67.0289C103.482 64.7532 105.854 62.9884 106.998 61.9789H107Z" fill="white"/>
<path d="M15.3164 103C17.1518 103 18.6397 101.515 18.6397 99.6837C18.6397 97.8521 17.1518 96.3674 15.3164 96.3674C13.481 96.3674 11.9932 97.8521 11.9932 99.6837C11.9932 101.515 13.481 103 15.3164 103Z" fill="white"/>
<path d="M28.0037 97.8733C27.0017 97.8733 26.1919 98.6838 26.1919 99.6813C26.1919 100.679 27.0041 101.489 28.0037 101.489C29.0033 101.489 29.8155 100.679 29.8155 99.6813C29.8155 98.6838 29.0033 97.8733 28.0037 97.8733Z" fill="white"/>
<path d="M20.9055 84.0925C18.0989 84.0925 15.8257 86.3633 15.8257 89.1617C15.8257 91.96 18.1013 94.2308 20.9055 94.2308C23.7097 94.2308 25.9853 91.96 25.9853 89.1617C25.9853 86.3633 23.7097 84.0925 20.9055 84.0925Z" fill="white"/>
</g>
<defs>
<clipPath id="clip0_99_9">
<rect width="107" height="103" fill="white"/>
</clipPath>
</defs>
</svg>
