<svg width="236" height="237" viewBox="0 0 236 237" fill="none" xmlns="http://www.w3.org/2000/svg">
<g id="Group">
<g id="Group_2">
<path id="Vector" d="M124.362 235.964C185.659 232.086 232.435 182.879 228.841 126.058C225.246 69.2366 172.641 26.3174 111.344 30.1954C50.0465 34.0733 3.26964 83.2799 6.86446 140.101C10.4593 196.923 63.0645 239.842 124.362 235.964Z" fill="#F7C400"/>
<path id="Vector_2" d="M95.8705 47.21C95.8705 47.21 73.5706 8.75 89.7006 7.8C105.821 6.86 108.501 37.58 108.501 37.58C108.501 37.58 93.6805 1.01 109.431 0.0100011C125.181 -0.989999 120.781 45.63 120.781 45.63C120.781 45.63 119.011 6.02 133.161 8.8C147.311 11.58 129.551 68 129.551 68L95.8705 47.2V47.21Z" fill="#F7C400"/>
</g>
<g id="Group_3">
<path id="Vector_3" d="M93.1003 128.96C110.089 128.96 123.86 115.188 123.86 98.1999C123.86 81.2117 110.089 67.4399 93.1003 67.4399C76.112 67.4399 62.3403 81.2117 62.3403 98.1999C62.3403 115.188 76.112 128.96 93.1003 128.96Z" fill="white"/>
<path id="Vector_4" d="M142.08 120.53C153.667 120.53 163.06 111.137 163.06 99.5498C163.06 87.9629 153.667 78.5698 142.08 78.5698C130.493 78.5698 121.1 87.9629 121.1 99.5498C121.1 111.137 130.493 120.53 142.08 120.53Z" fill="white"/>
<path id="Vector_5" d="M97.3704 107.23C102.705 107.23 107.03 102.905 107.03 97.5699C107.03 92.2348 102.705 87.9099 97.3704 87.9099C92.0354 87.9099 87.7104 92.2348 87.7104 97.5699C87.7104 102.905 92.0354 107.23 97.3704 107.23Z" fill="#676463"/>
<path id="Vector_6" d="M140.93 109.44C145.487 109.44 149.18 105.746 149.18 101.19C149.18 96.6336 145.487 92.9399 140.93 92.9399C136.374 92.9399 132.68 96.6336 132.68 101.19C132.68 105.746 136.374 109.44 140.93 109.44Z" fill="#676463"/>
</g>
<path id="Vector_7" d="M139.63 146.91C139.63 146.91 129.91 166.2 109.21 156.78C88.5105 147.35 78.1104 149.58 75.1604 165.26C72.2104 180.94 110.7 194.96 138.72 188.13C166.74 181.3 182.92 127 139.62 146.9L139.63 146.91Z" fill="#524975"/>
<path id="Vector_8" d="M98.6104 185.92C98.6104 185.92 100.9 170 111.4 169.62C121.89 169.24 129.61 175.47 129.61 175.47C129.61 175.47 134.57 169.97 145.27 168.07C155.98 166.17 158.89 173.27 158.89 173.27C158.89 173.27 149.27 199.52 98.6204 185.93L98.6104 185.92Z" fill="#DF5F15"/>
</g>
</svg>
