<svg width="65" height="108" viewBox="0 0 65 108" fill="none" xmlns="http://www.w3.org/2000/svg">
<path d="M112.673 47.9855C110.822 18.7225 87.3308 -3.60869 60.2044 -1.89254C33.078 -0.176381 12.5885 24.9372 14.4399 54.2003C16.2912 83.4633 39.7823 105.795 66.9087 104.078C94.0351 102.362 114.525 77.2486 112.673 47.9855Z" fill="#8AC8E5"/>
<path d="M22.5407 61.5893C22.5407 61.5893 4.18003 72.2353 3.7265 64.5348C3.27774 56.8392 17.9434 55.5597 17.9434 55.5597C17.9434 55.5597 0.484969 62.6348 0.00757123 55.1158C-0.469827 47.5968 21.7864 49.6973 21.7864 49.6973C21.7864 49.6973 2.87673 50.5423 4.20389 43.7872C5.53106 37.032 32.4658 45.5106 32.4658 45.5106L22.536 61.5893L22.5407 61.5893Z" fill="#8AC8E5"/>
<path d="M46.1721 45.1048C53.6911 45.1048 59.7827 51.2011 59.7827 58.7153C59.7827 66.2296 53.6864 72.3259 46.1721 72.3259C38.6579 72.3259 32.5615 66.2296 32.5615 58.7153C32.5615 51.2011 38.6579 45.1048 46.1721 45.1048Z" fill="white"/>
<path d="M50.4973 28.1858C55.6245 28.1858 59.7827 32.3439 59.7827 37.4711C59.7827 42.5984 55.6245 46.7566 50.4973 46.7566C45.37 46.7566 41.2119 42.5984 41.2119 37.4711C41.2119 32.3439 45.37 28.1858 50.4973 28.1858Z" fill="white"/>
<path d="M46.2199 52.5331C48.583 52.5331 50.4973 54.4474 50.4973 56.8106C50.4973 59.1737 48.583 61.0881 46.2199 61.0881C43.8567 61.0881 41.9424 59.1737 41.9424 56.8106C41.9424 54.4474 43.8567 52.5331 46.2199 52.5331Z" fill="#676463"/>
<path d="M51.1228 34.4445C53.1374 34.4445 54.7749 36.0772 54.7749 38.0966C54.7749 40.116 53.1422 41.7487 51.1228 41.7487C49.1034 41.7487 47.4707 40.116 47.4707 38.0966C47.4707 36.0772 49.1034 34.4445 51.1228 34.4445Z" fill="#676463"/>
</svg>
