<svg width="100" height="97" viewBox="0 0 100 97" fill="none" xmlns="http://www.w3.org/2000/svg">
<g id="Group">
<g id="Group_2">
<path id="Vector" d="M84.2791 59.853C90.6804 41.9347 82.039 22.7257 64.9779 16.9487C47.9169 11.1717 28.897 21.0143 22.4958 38.9326C16.0945 56.851 24.736 76.0598 41.797 81.8369C58.858 87.6139 77.8779 77.7714 84.2791 59.853Z" fill="#DF5F15"/>
<path id="Vector_2" d="M25.5529 45.3652C25.5529 45.3652 11.5627 47.112 13.2678 42.4054C14.9745 37.7027 24.2889 40.6163 24.2889 40.6163C24.2889 40.6163 11.7711 40.4594 13.4148 35.8549C15.0586 31.2505 28.153 38.083 28.153 38.083C28.153 38.083 16.3503 33.8464 18.9029 30.1499C21.4555 26.4535 35.7739 38.2631 35.7739 38.2631L25.5499 45.364L25.5529 45.3652Z" fill="#DF5F15"/>
</g>
<g id="Group_3">
<path id="Vector_3" d="M42.3409 41.7515C46.9475 43.6365 49.1097 48.7999 47.1747 53.2818C45.2397 57.7637 39.9349 59.8716 35.3313 57.9878C30.7276 56.104 28.5625 50.9394 30.4975 46.4574C32.4325 41.9755 37.7373 39.8676 42.3409 41.7515Z" fill="white"/>
<path id="Vector_4" d="M49.3493 32.7454C52.4905 34.0308 53.9672 37.5535 52.6469 40.6117C51.3266 43.6699 47.7084 45.1076 44.5671 43.8222C41.4259 42.5367 39.9492 39.0141 41.2695 35.956C42.5898 32.8978 46.208 31.46 49.3493 32.7454Z" fill="white"/>
<path id="Vector_5" d="M40.4598 46.1953C41.9076 46.7877 42.5875 48.4095 41.9789 49.819C41.3704 51.2285 39.7046 51.8904 38.2568 51.298C36.8091 50.7055 36.1292 49.0838 36.7377 47.6743C37.3462 46.2647 39.012 45.6029 40.4598 46.1953Z" fill="#676463"/>
<path id="Vector_6" d="M48.1218 36.6352C49.356 37.1403 49.9388 38.5246 49.4188 39.7291C48.8988 40.9336 47.4781 41.4982 46.2409 40.9919C45.0037 40.4856 44.4239 39.1024 44.9439 37.898C45.4639 36.6935 46.8846 36.129 48.1218 36.6352Z" fill="#676463"/>
<path id="Vector_7" d="M59.8365 29.5952C69.2923 33.4646 73.3771 44.8962 68.9601 55.1272C64.5431 65.3583 53.2962 70.516 43.8403 66.6466" stroke="white" stroke-width="0.5" stroke-linecap="round" stroke-linejoin="round"/>
</g>
</g>
</svg>
