<svg width="88" height="45" viewBox="0 0 88 45" fill="none" xmlns="http://www.w3.org/2000/svg">
<path d="M41.105 -42.3995C18.4034 -40.9633 1.07942 -22.7394 2.41077 -1.69537C3.74213 19.3487 23.2247 35.244 45.9263 33.8078C68.6279 32.3715 85.952 14.1477 84.6206 -6.89639C83.2893 -27.9404 63.8067 -43.8357 41.105 -42.3995Z" fill="#6A5C8F"/>
<path d="M51.656 27.5133C51.656 27.5133 59.9149 41.7572 53.9411 42.109C47.971 42.4571 46.9784 31.0799 46.9784 31.0799C46.9784 31.0799 52.4671 44.6237 46.634 44.9941C40.8009 45.3644 42.4305 28.0985 42.4305 28.0985C42.4305 28.0985 43.086 42.7682 37.8455 41.7387C32.605 40.7091 39.1825 19.8137 39.1825 19.8137L51.656 27.5171L51.656 27.5133Z" fill="#6A5C8F"/>
<path d="M38.5494 10.7734C38.5494 4.94028 43.2788 0.214561 49.1082 0.21456C54.9376 0.21456 59.667 4.94398 59.667 10.7734C59.667 16.6027 54.9376 21.3322 49.1082 21.3322C43.2788 21.3322 38.5494 16.6027 38.5494 10.7734Z" fill="white"/>
<path d="M25.4204 7.41795C25.4204 3.44035 28.6462 0.214561 32.6238 0.21456C36.6014 0.21456 39.8271 3.44034 39.8271 7.41795C39.8271 11.3956 36.6014 14.6213 32.6238 14.6213C28.6462 14.6213 25.4204 11.3956 25.4204 7.41795Z" fill="white"/>
<path d="M44.3085 10.7327C44.3085 8.8994 45.7937 7.41428 47.6269 7.41428C49.4602 7.41428 50.9453 8.8994 50.9453 10.7327C50.9453 12.5659 49.4602 14.051 47.6269 14.051C45.7937 14.051 44.3085 12.5659 44.3085 10.7327Z" fill="#676463"/>
<path d="M30.2789 6.92909C30.2789 5.36619 31.5455 4.09588 33.1121 4.09588C34.6787 4.09588 35.9453 5.36249 35.9453 6.92909C35.9453 8.49569 34.6787 9.7623 33.1121 9.7623C31.5455 9.7623 30.2789 8.49569 30.2789 6.92909Z" fill="#676463"/>
</svg>
