<svg width="32" height="32" viewBox="0 0 32 32" fill="none" xmlns="http://www.w3.org/2000/svg">
<path d="M23.4474 18.105L19.4474 16.105C19.29 16.0265 19.1146 15.991 18.939 16.002C18.7634 16.0129 18.5939 16.07 18.4474 16.1675L16.6112 17.3925C15.7682 16.9291 15.0745 16.2354 14.6112 15.3925L15.8362 13.5562C15.9336 13.4098 15.9907 13.2402 16.0017 13.0646C16.0127 12.8891 15.9771 12.7137 15.8987 12.5562L13.8987 8.55625C13.8158 8.38884 13.6876 8.248 13.5288 8.14968C13.3699 8.05137 13.1867 7.99952 12.9999 8C11.6738 8 10.4021 8.52678 9.46437 9.46447C8.52669 10.4021 7.99991 11.6739 7.99991 13C8.00322 15.9164 9.1632 18.7123 11.2254 20.7745C13.2876 22.8367 16.0835 23.9967 18.9999 24C19.6565 24 20.3067 23.8707 20.9133 23.6194C21.52 23.3681 22.0711 22.9998 22.5354 22.5355C22.9997 22.0712 23.368 21.52 23.6193 20.9134C23.8706 20.3068 23.9999 19.6566 23.9999 19C24 18.8142 23.9484 18.6321 23.8508 18.474C23.7532 18.3159 23.6135 18.1881 23.4474 18.105ZM18.9999 22C16.6138 21.9974 14.3261 21.0483 12.6389 19.361C10.9516 17.6738 10.0026 15.3861 9.99991 13C9.99971 12.3064 10.2399 11.6342 10.6795 11.0977C11.1191 10.5612 11.731 10.1936 12.4112 10.0575L13.8462 12.9325L12.6249 14.75C12.5336 14.8869 12.4776 15.0442 12.4617 15.2079C12.4457 15.3717 12.4705 15.5368 12.5337 15.6888C13.2491 17.3892 14.6019 18.742 16.3024 19.4575C16.4548 19.5235 16.6212 19.5505 16.7866 19.5361C16.952 19.5217 17.1112 19.4663 17.2499 19.375L19.0762 18.1575L21.9512 19.5925C21.814 20.2734 21.4448 20.8856 20.9066 21.3247C20.3684 21.7637 19.6945 22.0024 18.9999 22ZM15.9999 3C13.7555 2.99951 11.5492 3.58011 9.59572 4.68529C7.64227 5.79046 6.00822 7.38256 4.85262 9.30662C3.69703 11.2307 3.05926 13.4212 3.00139 15.6648C2.94353 17.9085 3.46753 20.1289 4.52241 22.11L3.10366 26.3662C2.98614 26.7186 2.96908 27.0968 3.05441 27.4583C3.13973 27.8199 3.32405 28.1505 3.58672 28.4132C3.84939 28.6759 4.18003 28.8602 4.54157 28.9455C4.90311 29.0308 5.28127 29.0138 5.63366 28.8962L9.88991 27.4775C11.6334 28.4048 13.5652 28.9228 15.5387 28.992C17.5122 29.0613 19.4756 28.68 21.2797 27.8772C23.0839 27.0743 24.6815 25.871 25.9512 24.3586C27.2209 22.8462 28.1293 21.0644 28.6076 19.1484C29.0858 17.2325 29.1213 15.2328 28.7113 13.301C28.3013 11.3693 27.4567 9.55642 26.2414 7.9999C25.0262 6.44337 23.4723 5.18415 21.6978 4.31782C19.9232 3.45149 17.9746 3.00081 15.9999 3ZM15.9999 27C14.0661 27.0013 12.1663 26.4921 10.4924 25.5238C10.3699 25.4527 10.2336 25.4085 10.0927 25.394C9.95172 25.3796 9.80933 25.3953 9.67491 25.44L4.99991 27L6.55866 22.325C6.60359 22.1907 6.61947 22.0483 6.60525 21.9074C6.59103 21.7665 6.54702 21.6301 6.47616 21.5075C5.26362 19.4111 4.77679 16.9732 5.09119 14.572C5.40559 12.1707 6.50365 9.94027 8.21502 8.22674C9.92639 6.51321 12.1554 5.41234 14.5563 5.0949C16.9572 4.77747 19.3957 5.26122 21.4936 6.47111C23.5915 7.68099 25.2314 9.54939 26.1591 11.7864C27.0868 14.0235 27.2502 16.5042 26.6242 18.8436C25.9981 21.1831 24.6176 23.2505 22.6966 24.7253C20.7756 26.2 18.4217 26.9996 15.9999 27Z" fill="#F8C600"/>
<path d="M15.88 4C9.32 4 4 9.27 4 15.76C4 18 4.64 20.08 5.74 21.86C5.37 23.36 4.49 27 4.72 27C5.01 27 8.55 26.74 8.96 26.43C9.11 26.32 9.4 26.08 9.71 25.81C11.51 26.9 13.61 27.53 15.87 27.53C22.43 27.53 27.75 22.26 27.75 15.76C27.75 9.26 22.44 4 15.88 4Z" fill="#F8C600"/>
<path d="M12.4596 13.7189L12.3361 13.8156L12.2481 13.9454C11.8308 14.5615 11.77 15.3288 12.0483 15.9937L12.0483 15.9937L12.0497 15.997C12.552 17.185 13.2077 17.872 14.0642 18.3552C14.4602 18.5787 14.8825 18.7492 15.2925 18.9062C15.3964 18.9459 15.4997 18.9849 15.6035 19.0241C15.9248 19.1454 16.2502 19.2682 16.6095 19.4206L16.6127 19.422C16.9644 19.5697 17.3097 19.5367 17.5148 19.5006C17.7426 19.4605 17.9604 19.3857 18.1406 19.3122C18.5025 19.1647 18.8426 18.9688 19.0414 18.8408L19.1314 18.7828L19.2071 18.7071L19.6975 18.2168L22.3803 19.5582C22.3544 19.7023 22.3299 19.8357 22.3043 19.9631C22.2357 20.3032 22.1706 20.5342 22.0955 20.6981C22.0269 20.8476 21.9704 20.8958 21.9347 20.9185C21.896 20.9432 21.7831 21 21.5 21H20.5C15.1123 21 11.0109 17.5952 11 12.4434C11.0004 11.4891 11.536 10.6422 12.344 10.2181L13.7164 12.7349L12.4596 13.7189Z" fill="white" stroke="white" stroke-width="2"/>
<path d="M23.2779 18.0844L19.7446 16.5012L19.7348 16.4967C19.5514 16.4182 19.3513 16.3867 19.1527 16.4051C18.954 16.4234 18.763 16.491 18.5971 16.6017C18.5775 16.6146 18.5588 16.6286 18.5408 16.6437L16.7153 18.1999C15.5588 17.6382 14.3648 16.4532 13.803 15.3117L15.3616 13.4584C15.3766 13.4397 15.3908 13.4209 15.4043 13.4007C15.5126 13.2351 15.5783 13.0454 15.5956 12.8483C15.6129 12.6513 15.5812 12.453 15.5033 12.2711V12.2621L13.9155 8.72286C13.8126 8.4853 13.6356 8.28741 13.4109 8.15873C13.1863 8.03004 12.926 7.97747 12.669 8.00885C11.6528 8.14258 10.7199 8.64168 10.0447 9.41293C9.36952 10.1842 8.99817 11.1748 9.00001 12.1999C9.00001 18.1549 13.845 23 19.8001 23C20.8251 23.0018 21.8158 22.6305 22.587 21.9553C23.3583 21.2801 23.8574 20.3472 23.9911 19.331C24.0225 19.0741 23.9701 18.8139 23.8415 18.5892C23.713 18.3646 23.5153 18.1875 23.2779 18.0844ZM19.8001 21.8C17.2548 21.7972 14.8146 20.7849 13.0149 18.9851C11.2151 17.1853 10.2028 14.7451 10.2 12.1999C10.1972 11.4675 10.4611 10.7591 10.9423 10.207C11.4236 9.65498 12.0894 9.29696 12.8153 9.19986C12.815 9.20285 12.815 9.20587 12.8153 9.20886L14.3903 12.7339L12.84 14.5894C12.8243 14.6075 12.81 14.6268 12.7973 14.6472C12.6844 14.8204 12.6182 15.0198 12.6051 15.2261C12.5919 15.4324 12.6323 15.6386 12.7223 15.8247C13.4018 17.2144 14.802 18.6042 16.2068 19.283C16.3943 19.3721 16.6017 19.4111 16.8087 19.3961C17.0158 19.3811 17.2154 19.3127 17.3881 19.1975C17.4073 19.1845 17.4259 19.1705 17.4436 19.1555L19.2668 17.5999L22.7919 19.1787C22.7919 19.1787 22.7979 19.1787 22.8001 19.1787C22.7042 19.9057 22.3467 20.5728 21.7945 21.0552C21.2424 21.5377 20.5333 21.8025 19.8001 21.8Z" fill="white"/>
</svg>
