<svg width="181" height="124" viewBox="0 0 181 124" fill="none" xmlns="http://www.w3.org/2000/svg">
<path d="M6.64032 7.17869V42.0774C6.64032 42.0774 5.89736 51.276 11.4727 50.4646C17.0449 49.6531 15.9305 40.3198 16.9211 37.4781C17.9117 34.6365 21.7503 31.798 25.8366 31.3907C29.9229 30.9866 33.39 32.0674 33.39 37.7476C33.39 43.4277 34.6283 50.4646 39.3369 49.9225C44.0423 49.3805 43.0517 34.0944 43.2993 23.5456C43.5501 12.9935 44.1693 0.0135579 39.8322 0.0071433C33.2694 0.000728683 35.4982 10.1551 33.7615 15.9699C32.0279 21.788 29.7991 21.9227 27.1987 21.9227C24.5983 21.9227 16.2988 24.357 16.175 19.6231C16.0543 14.8891 17.6641 0.279765 12.0919 0.0071433C6.5165 -0.262271 6.64032 7.17869 6.64032 7.17869Z" fill="#8CCAE7"/>
<path d="M97.1544 67.598V102.497C97.1544 102.497 96.4242 111.695 101.901 110.884C107.378 110.072 106.283 100.739 107.257 97.8975C108.229 95.0558 112.004 92.2173 116.021 91.81C120.037 91.4026 123.444 92.4867 123.444 98.1669C123.444 103.847 124.66 110.881 129.286 110.339C133.912 109.797 132.937 94.5137 133.182 83.9617C133.423 73.4096 134.033 60.4296 129.775 60.4264C123.323 60.4168 125.514 70.5712 123.812 76.386C122.107 82.2041 119.916 82.3388 117.36 82.3388C114.804 82.3388 106.651 84.7763 106.527 80.0392C106.407 75.3052 107.988 60.6959 102.511 60.4264C97.0338 60.1538 97.1544 67.5948 97.1544 67.5948" fill="#8CCAE7"/>
<path d="M51.4181 51.8084V16.6883C51.4181 16.6883 50.8498 9.52 55.6758 9.80865C60.5019 10.0941 61.3528 12.1019 61.3528 18.4075C61.3528 24.713 60.5019 34.3189 63.9087 33.4562C67.3155 32.5966 73.4148 16.2553 78.098 12.0987C82.778 7.942 88.5978 7.51222 88.7407 14.966C88.8677 21.65 88.7661 49.2041 88.7439 54.8168C88.7407 55.6924 88.5121 56.5488 88.0549 57.2929C87.3373 58.4539 85.9816 59.8908 83.632 59.9742C79.6601 60.1185 78.2408 57.681 78.1011 53.9541C77.9583 50.2272 79.6601 36.4678 75.5452 38.6167C71.9479 40.4962 64.9851 51.911 63.2928 54.7495C63.0038 55.2338 62.645 55.6636 62.2259 56.0388C59.9304 58.0947 52.6119 63.6177 51.4213 51.802" fill="#F8C600"/>
<path d="M140.18 53.287V18.1701C140.18 18.1701 139.612 11.0018 144.438 11.2905C149.264 11.5791 150.115 13.5837 150.115 19.8893C150.115 26.1948 149.264 35.8007 152.67 34.9412C156.077 34.0784 162.177 17.7404 166.86 13.5837C171.54 9.42701 177.36 8.99724 177.502 16.451C177.633 23.2698 177.525 51.8084 177.506 56.6162C177.502 57.1839 177.369 57.7387 177.118 58.2423C176.515 59.4386 175.124 61.363 172.394 61.4624C168.422 61.6068 167.003 59.1692 166.863 55.4423C166.72 51.7154 168.422 37.956 164.307 40.1049C160.77 41.9556 153.985 53.0144 152.147 56.0838C151.794 56.6675 151.362 57.1999 150.851 57.6489C148.416 59.7882 141.355 64.8814 140.183 53.2902" fill="#E05F14"/>
<path d="M125.261 37.4365C123.403 32.7442 123.025 27.7889 122.959 26.5701C123.025 25.3513 123.403 20.396 125.261 15.7037C127.398 10.309 133.275 10.6682 133.275 10.6682C133.275 10.6682 133.986 7.79128 133.275 4.37228C132.563 0.95329 124.372 0.594071 119.206 4.37228C114.04 8.1505 115.821 17.6826 112.615 18.5807C109.411 19.4819 107.274 17.3202 106.738 11.3867C106.204 5.44994 107.449 1.31251 100.861 0.590864C94.8185 -0.069842 95.9615 8.95232 96.1964 10.4533C96.2218 10.6105 96.2345 10.7645 96.2409 10.9216L96.9076 26.5669L96.244 42.1544C96.2345 42.35 96.2186 42.5393 96.1901 42.7349C95.9424 44.3931 94.8915 53.194 100.864 52.5429C107.452 51.8244 106.207 47.687 106.741 41.7471C107.277 35.8103 109.414 33.655 112.618 34.5531C115.825 35.4511 114.043 44.9865 119.209 48.7647C124.375 52.5429 132.566 52.1805 133.278 48.7647C133.989 45.3457 133.278 42.4687 133.278 42.4687C133.278 42.4687 127.401 42.8279 125.264 37.4332" fill="#695C91"/>
<path d="M179.852 114.361C179.261 110.188 172.864 112.693 172.864 112.693V85.2767C172.864 77.4091 169.114 70.2568 156.014 69.9008C142.917 69.5416 143.412 84.0868 143.412 84.0868L142.939 111.74C131.966 112.815 136.424 119.489 138.43 121.516C140.437 123.54 160.614 122.35 170.174 122.587C179.731 122.825 180.439 118.536 179.849 114.364M162.142 108.231C160.494 109.867 157.001 112.545 153.972 109.646C153.14 108.85 152.655 107.75 152.591 106.596C152.299 101.387 151.737 83.6089 153.737 81.6781C156.398 79.1122 161.211 78.2719 162.5 84.1605C163.577 89.0838 163.272 101.852 163.142 105.916C163.113 106.791 162.761 107.616 162.142 108.231Z" fill="#F8C600"/>
<path d="M88.0644 101.304C88.0295 99.2927 87.9946 97.2785 87.9628 95.2675C87.9279 93.2565 87.858 91.2423 87.7564 89.2313C87.7279 87.4737 87.3088 85.6263 86.4991 83.6987C85.6895 81.7679 84.5306 80.0071 83.0225 78.4099C81.5111 76.8158 79.7014 75.4976 77.5931 74.4617C75.4849 73.4257 73.0814 72.9189 70.389 72.9446C67.8267 73.0184 65.1724 73.5059 62.4228 74.4039C60.8893 74.9075 59.4605 75.5297 58.1397 76.2706C57.2157 76.7902 56.3553 77.3771 55.5361 78.0121C55.533 78.0089 55.5234 78.0025 55.5234 78.0025C55.5234 78.0025 54.2439 78.7979 54.0153 79.9526C53.7867 81.1104 54.0153 82.3035 55.3107 83.3074C56.6093 84.3113 59.9367 87.6597 61.6513 85.5782C61.6513 85.5782 61.6513 85.5771 61.6513 85.575C61.7751 85.5301 62.6927 84.4877 63.2928 84.0034C63.8897 83.5191 64.5406 83.0733 65.2422 82.6627C65.9407 82.2522 66.6615 81.9187 67.3981 81.6589C68.1347 81.4023 68.8078 81.2676 69.4142 81.2612C71.2335 81.2419 72.6242 81.6749 73.5831 82.5537C74.5419 83.4325 75.2658 84.4268 75.758 85.5397C76.2469 86.6494 76.5359 87.7367 76.6248 88.8015C76.7105 89.8664 76.7899 90.5752 76.8629 90.9312C76.8692 91.2872 76.5359 91.5695 75.8659 91.7747C75.596 91.8806 75.2627 91.9607 74.8563 92.0121C74.8563 92.0121 67.9823 92.2045 67.7823 92.3071C67.7823 92.3071 65.4264 92.2526 65.0454 94.7575C64.6644 97.2656 64.893 99.5396 65.7312 100.078C66.1598 100.354 67.3187 100.463 68.4617 100.505C68.5506 100.524 68.6395 100.537 68.7316 100.537L69.6047 100.527C70.2525 100.527 70.7954 100.518 71.0557 100.511C71.7288 100.505 72.3861 100.486 73.0274 100.457C73.6656 100.425 74.2244 100.409 74.6943 100.402C75.6373 100.393 76.2437 100.45 76.52 100.572C76.7899 100.697 76.9645 101.012 77.0407 101.512C77.047 101.916 77.028 102.824 76.9867 104.235C76.9423 105.646 76.7137 107.135 76.3041 108.7C75.8913 110.265 75.1896 111.673 74.2022 112.914C73.2116 114.159 71.7733 114.79 69.8841 114.806C68.4014 114.819 67.1504 114.617 66.1313 114.2C65.1121 113.783 64.277 113.286 63.6293 112.712C62.9784 112.141 62.48 111.589 62.1371 111.063C61.7878 110.537 61.5465 110.198 61.41 110.05C59.1906 107.388 58.2095 107.943 57.5618 107.943C56.9141 107.943 52.1389 110.874 51.1101 112.494C50.0783 114.114 51.3927 115.666 51.3927 115.666C51.3959 115.868 54.6376 119.162 56.1712 120.156C57.7047 121.15 59.5557 122.026 61.7275 122.786C63.896 123.546 66.2964 123.915 68.9253 123.89C71.4844 123.864 73.9545 123.386 76.3327 122.459C78.7076 121.532 80.7745 120.127 82.5303 118.251C84.2829 116.375 85.6768 114.033 86.7087 111.233C87.7374 108.433 88.1882 105.12 88.0549 101.297" fill="#E05F14"/>
<path d="M42.9346 86.797L43.5887 71.4307C43.5887 71.4307 45.5477 60.6381 38.9563 61.3566C38.9563 61.3566 22.2556 60.7921 18.5916 61.3213C14.9244 61.8505 14.5688 67.165 14.5688 67.165C14.5688 67.165 10.6858 94.7736 8.82837 99.4658C6.69157 104.861 0.316093 104.347 0.316093 104.347C0.316093 104.347 -0.395116 107.224 0.316093 110.643C1.0273 114.059 9.2189 114.422 14.3847 110.643C18.4932 107.638 18.7789 101.881 19.5378 97.9584L22.4747 80.8346C23.097 76.6522 24.0463 72.8516 24.5162 71.0844C24.6813 70.4557 25.2306 70.0163 25.8752 69.9875C27.4246 69.9169 30.2313 69.8271 31.4188 70.0452C33.0984 70.3531 33.1682 72.9414 33.1682 72.9414L33.0825 102.516C33.6159 108.453 32.3713 112.59 38.9595 113.309C44.9952 113.969 43.6839 103.113 43.6617 101.538C43.6585 101.393 43.0807 90.4373 42.941 87.8682C42.9219 87.509 42.9188 87.153 42.9346 86.7938" fill="#695C91"/>
</svg>
