<svg width="16" height="14" viewBox="0 0 16 14" fill="none" xmlns="http://www.w3.org/2000/svg">
<path d="M0.888889 2.40307C1.12464 2.40307 1.35073 2.30899 1.51743 2.14153C1.68413 1.97407 1.77778 1.74695 1.77778 1.51013C1.77778 1.2733 1.68413 1.04618 1.51743 0.878724C1.35073 0.711265 1.12464 0.617188 0.888889 0.617188C0.653141 0.617188 0.427048 0.711265 0.260349 0.878724C0.0936505 1.04618 0 1.2733 0 1.51013C0 1.74695 0.0936505 1.97407 0.260349 2.14153C0.427048 2.30899 0.653141 2.40307 0.888889 2.40307ZM0.888889 7.76071C1.12464 7.76071 1.35073 7.66663 1.51743 7.49917C1.68413 7.33171 1.77778 7.10459 1.77778 6.86777C1.77778 6.63094 1.68413 6.40382 1.51743 6.23636C1.35073 6.0689 1.12464 5.97483 0.888889 5.97483C0.653141 5.97483 0.427048 6.0689 0.260349 6.23636C0.0936505 6.40382 0 6.63094 0 6.86777C0 7.10459 0.0936505 7.33171 0.260349 7.49917C0.427048 7.66663 0.653141 7.76071 0.888889 7.76071ZM1.77778 12.2254C1.77778 12.4622 1.68413 12.6894 1.51743 12.8568C1.35073 13.0243 1.12464 13.1183 0.888889 13.1183C0.653141 13.1183 0.427048 13.0243 0.260349 12.8568C0.0936505 12.6894 0 12.4622 0 12.2254C0 11.9886 0.0936505 11.7615 0.260349 11.594C0.427048 11.4265 0.653141 11.3325 0.888889 11.3325C1.12464 11.3325 1.35073 11.4265 1.51743 11.594C1.68413 11.7615 1.77778 11.9886 1.77778 12.2254ZM4.44444 0.617188C4.2087 0.617188 3.9826 0.711265 3.81591 0.878724C3.64921 1.04618 3.55556 1.2733 3.55556 1.51013C3.55556 1.74695 3.64921 1.97407 3.81591 2.14153C3.9826 2.30899 4.2087 2.40307 4.44444 2.40307H15.1111C15.3469 2.40307 15.573 2.30899 15.7397 2.14153C15.9064 1.97407 16 1.74695 16 1.51013C16 1.2733 15.9064 1.04618 15.7397 0.878724C15.573 0.711265 15.3469 0.617188 15.1111 0.617188H4.44444ZM3.55556 6.86777C3.55556 6.63094 3.64921 6.40382 3.81591 6.23636C3.9826 6.0689 4.2087 5.97483 4.44444 5.97483H15.1111C15.3469 5.97483 15.573 6.0689 15.7397 6.23636C15.9064 6.40382 16 6.63094 16 6.86777C16 7.10459 15.9064 7.33171 15.7397 7.49917C15.573 7.66663 15.3469 7.76071 15.1111 7.76071H4.44444C4.2087 7.76071 3.9826 7.66663 3.81591 7.49917C3.64921 7.33171 3.55556 7.10459 3.55556 6.86777ZM4.44444 11.3325C4.2087 11.3325 3.9826 11.4265 3.81591 11.594C3.64921 11.7615 3.55556 11.9886 3.55556 12.2254C3.55556 12.4622 3.64921 12.6894 3.81591 12.8568C3.9826 13.0243 4.2087 13.1183 4.44444 13.1183H15.1111C15.3469 13.1183 15.573 13.0243 15.7397 12.8568C15.9064 12.6894 16 12.4622 16 12.2254C16 11.9886 15.9064 11.7615 15.7397 11.594C15.573 11.4265 15.3469 11.3325 15.1111 11.3325H4.44444Z" fill="black"/>
</svg>
