<svg width="360" height="92" viewBox="0 0 360 92" fill="none" xmlns="http://www.w3.org/2000/svg">
<path d="M3.7186 85.0252L3.5843 86.6693C3.56938 86.9688 3.40524 87.1185 3.09187 87.1185H2.28608C1.41761 87.1185 0.805796 86.9299 0.447665 86.5555C0.149222 86.2381 0 85.714 0 84.9802C0 84.8904 0.223832 81.6979 0.671497 75.3999C0.686419 75.0704 0.725218 74.8758 0.784907 74.8159C0.829673 74.771 0.952034 74.75 1.14304 74.75H2.01748C3.46791 74.75 4.23491 75.3639 4.32742 76.5918C5.07353 75.2142 6.21359 74.5254 7.75355 74.5254C9.71134 74.5254 10.8395 75.2951 11.1379 76.8404C11.9586 75.2951 13.1613 74.5254 14.7461 74.5254C17.062 74.5254 18.217 75.5796 18.217 77.6969C18.217 78.4156 18.1453 79.7214 17.9961 81.6051L17.6141 86.4207C17.5992 86.7532 17.5544 86.9448 17.4798 87.0047C17.4201 87.0796 17.2649 87.1185 17.0083 87.1185H16.292C15.3967 87.1185 14.7759 86.9448 14.4327 86.6004C14.1313 86.301 13.9821 85.8128 13.9821 85.142C13.9821 84.6748 14.0656 83.5727 14.2298 81.8357C14.379 80.0987 14.4536 79.1584 14.4536 79.0236C14.4536 78.0383 14.0746 77.5412 13.3106 77.5412C11.9228 77.5412 11.1081 79.2183 10.8693 82.5784C10.735 84.3633 10.6455 85.6421 10.6007 86.4237C10.5828 86.7562 10.541 86.9478 10.4664 87.0077C10.4067 87.0826 10.2485 87.1215 9.99486 87.1215H9.27561C8.38327 87.1215 7.75952 86.9478 7.41631 86.6034C7.11787 86.304 6.96865 85.8158 6.96865 85.145C6.96865 84.7377 7.04923 83.6985 7.21635 82.0184C7.36558 80.3563 7.44019 79.359 7.44019 79.0266C7.44019 78.0413 7.05818 77.5442 6.29715 77.5442C4.93923 77.5442 4.13045 79.386 3.87976 83.0756C3.84395 83.5967 3.79321 84.2465 3.7186 85.0252Z" fill="#695C91"/>
<path d="M21.6882 86.241C20.5064 85.3425 19.9185 83.956 19.9185 82.0812C19.9185 80.3143 20.3064 78.769 21.0854 77.4483C22.2195 75.5016 24.0489 74.5283 26.5737 74.5283C29.3821 74.5283 30.7878 75.6484 30.7878 77.9005C30.7878 79.6524 29.8029 80.8893 27.8272 81.608C26.6782 82.0303 25.3262 82.2399 23.7743 82.2399C23.7743 82.8838 23.9385 83.4079 24.2668 83.8152C24.6398 84.2944 25.186 84.534 25.9052 84.534C26.5021 84.534 26.9796 84.3273 27.3378 83.905C27.6959 83.5007 27.9406 83.3001 28.0749 83.3001C28.3883 83.3001 28.7106 83.3959 29.0359 83.5906C29.5313 83.8901 29.776 84.3243 29.776 84.8933C29.776 85.7019 29.2896 86.3308 28.3196 86.783C27.5138 87.1604 26.532 87.3491 25.3829 87.3491C23.8639 87.3431 22.6313 86.9747 21.6882 86.241ZM23.84 80.4401C24.7831 80.4251 25.5262 80.2664 26.0813 79.9669C26.6633 79.6524 26.9557 79.2272 26.9557 78.6881C26.9557 77.9065 26.5737 77.5171 25.8127 77.5171C24.7383 77.5171 24.0788 78.4904 23.84 80.4401Z" fill="#695C91"/>
<path d="M44.1189 79.9459C44.1189 82.225 43.6116 84.0398 42.5939 85.3875C41.6239 86.6902 40.3675 87.3431 38.8305 87.3431C37.4398 87.3431 36.4698 86.6842 35.9177 85.3665L35.4462 90.829C35.4313 91.1285 35.2671 91.2812 34.9508 91.2812H34.145C33.2765 91.2812 32.6647 91.0896 32.3066 90.7152C32.0081 90.4008 31.8589 89.8767 31.8589 89.14C31.8589 88.526 32.1961 83.947 32.8676 75.4028C32.8825 75.0734 32.9184 74.8787 32.981 74.8188C33.0258 74.7739 33.1452 74.7529 33.3392 74.7529H34.2136C34.9746 74.7529 35.5596 74.9236 35.9625 75.268C36.3355 75.5675 36.5236 75.9658 36.5236 76.46C37.1771 75.1722 38.2993 74.5283 39.884 74.5283C42.7073 74.5283 44.1189 76.3342 44.1189 79.9459ZM36.0311 81.2037C36.0311 83.3031 36.628 84.3513 37.8248 84.3513C38.4963 84.3513 39.0335 84.0368 39.4393 83.4049C39.8691 82.7161 40.0899 81.7278 40.0899 80.4371C40.0899 78.4875 39.4752 77.5141 38.2515 77.5141C36.7683 77.5171 36.0311 78.745 36.0311 81.2037Z" fill="#695C91"/>
<path d="M57.8323 79.9459C57.8323 82.225 57.325 84.0398 56.3073 85.3875C55.3373 86.6902 54.0809 87.3431 52.5439 87.3431C51.1532 87.3431 50.1832 86.6842 49.6311 85.3665L49.1596 90.829C49.1446 91.1285 48.9805 91.2812 48.6641 91.2812H47.8583C46.9899 91.2812 46.3781 91.0896 46.0199 90.7152C45.7215 90.4008 45.5723 89.8767 45.5723 89.14C45.5723 88.526 45.9095 83.947 46.581 75.4028C46.5959 75.0734 46.6317 74.8787 46.6944 74.8188C46.7392 74.7739 46.8586 74.7529 47.0525 74.7529H47.927C48.688 74.7529 49.273 74.9236 49.6759 75.268C50.0489 75.5675 50.2369 75.9658 50.2369 76.46C50.8905 75.1722 52.0127 74.5283 53.5974 74.5283C56.4207 74.5283 57.8323 76.3342 57.8323 79.9459ZM49.7445 81.2037C49.7445 83.3031 50.3414 84.3513 51.5381 84.3513C52.2096 84.3513 52.7468 84.0368 53.1527 83.4049C53.5825 82.7161 53.8033 81.7278 53.8033 80.4371C53.8033 78.4875 53.1885 77.5141 51.9649 77.5141C50.4817 77.5171 49.7445 78.745 49.7445 81.2037Z" fill="#695C91"/>
<path d="M63.6132 79.7628C63.449 81.413 63.3655 82.3803 63.3655 82.6618C63.3655 83.7759 63.8609 84.3269 64.8458 84.3269C65.8784 84.3269 66.5767 83.1559 66.9528 80.82C67.0721 80.0413 67.1766 79.0351 67.2661 77.8072L67.4482 75.1987C67.478 74.8993 67.6392 74.7495 67.9406 74.7495H68.7464C69.6149 74.7495 70.2267 74.9382 70.5848 75.3125C70.8833 75.627 71.0325 76.1511 71.0325 76.8878C71.0325 76.9776 70.8086 80.1701 70.361 86.4682C70.3281 86.7826 70.3013 86.9713 70.2714 87.0312C70.2267 87.0911 70.0983 87.121 69.8894 87.121H69.015C67.5496 87.121 66.7737 86.5071 66.6842 85.2762C65.8903 86.6568 64.7413 87.3457 63.2312 87.3457C62.1269 87.3457 61.2376 86.9983 60.5661 86.3095C59.9393 85.6506 59.626 84.8091 59.626 83.7908C59.626 81.6765 59.814 78.8973 60.1871 75.4473C60.2288 74.9831 60.4407 74.7525 60.8138 74.7525H61.533C62.4134 74.7525 63.0342 74.9262 63.3923 75.2676C63.6908 75.5551 63.84 76.0193 63.84 76.6632C63.837 77.0974 63.7624 78.1336 63.6132 79.7628Z" fill="#695C91"/>
<path d="M76.721 85.0252L76.5867 86.6693C76.5718 86.9688 76.4077 87.1185 76.0913 87.1185H75.2885C74.42 87.1185 73.8082 86.9299 73.4501 86.5555C73.1517 86.2381 73.0024 85.714 73.0024 84.9802C73.0024 84.8904 73.2263 81.6979 73.6739 75.3999C73.6889 75.0704 73.7277 74.8758 73.7873 74.8159C73.8321 74.771 73.9545 74.75 74.1455 74.75H75.0199C76.4704 74.75 77.2373 75.3639 77.3299 76.5918C78.073 75.2142 79.216 74.5254 80.756 74.5254C82.7138 74.5254 83.8419 75.2951 84.1403 76.8404C84.9611 75.2951 86.1638 74.5254 87.7485 74.5254C90.0644 74.5254 91.2194 75.5796 91.2194 77.6969C91.2194 78.4156 91.1478 79.7214 90.9986 81.6051L90.6165 86.4207C90.6016 86.7532 90.5569 86.9448 90.4823 87.0047C90.4226 87.0796 90.2674 87.1185 90.0107 87.1185H89.2944C88.3991 87.1185 87.7784 86.9448 87.4352 86.6004C87.1337 86.301 86.9845 85.8128 86.9845 85.142C86.9845 84.6748 87.0681 83.5727 87.2322 81.8357C87.3814 80.0987 87.456 79.1584 87.456 79.0236C87.456 78.0383 87.077 77.5412 86.313 77.5412C84.9252 77.5412 84.1105 79.2183 83.8717 82.5784C83.7374 84.3633 83.6479 85.6421 83.6031 86.4237C83.5852 86.7562 83.5435 86.9478 83.4688 87.0077C83.4092 87.0826 83.251 87.1215 82.9973 87.1215H82.278C81.3857 87.1215 80.762 86.9478 80.4188 86.6034C80.1203 86.304 79.9711 85.8158 79.9711 85.145C79.9711 84.7377 80.0517 83.6985 80.2188 82.0184C80.368 80.3563 80.4426 79.359 80.4426 79.0266C80.4426 78.0413 80.0606 77.5442 79.2996 77.5442C77.9417 77.5442 77.1329 79.386 76.8822 83.0756C76.8494 83.5967 76.7957 84.2465 76.721 85.0252Z" fill="#695C91"/>
<path d="M92.9443 81.7189C92.9443 79.6525 93.4218 78.0024 94.3769 76.7745C95.5259 75.2741 97.2897 74.5254 99.6653 74.5254C103.175 74.5254 104.93 76.2774 104.93 79.7873C104.93 81.7069 104.518 83.3181 103.697 84.6209C102.545 86.4327 100.725 87.3432 98.2298 87.3432C94.7051 87.3432 92.9443 85.4714 92.9443 81.7189ZM96.7555 81.4763C96.7555 83.396 97.3613 84.3543 98.57 84.3543C99.4952 84.3543 100.182 83.7913 100.629 82.6683C100.961 81.8597 101.125 80.9433 101.125 79.925C101.125 78.3228 100.513 77.5202 99.2863 77.5202C97.6 77.5172 96.7555 78.8349 96.7555 81.4763Z" fill="#695C91"/>
<path d="M118.601 79.9459C118.601 82.225 118.094 84.0398 117.076 85.3875C116.106 86.6902 114.85 87.3431 113.313 87.3431C111.922 87.3431 110.952 86.6842 110.4 85.3665L109.929 90.829C109.914 91.1285 109.75 91.2812 109.433 91.2812H108.627C107.759 91.2812 107.147 91.0896 106.789 90.7152C106.491 90.4008 106.341 89.8767 106.341 89.14C106.341 88.526 106.679 83.947 107.35 75.4028C107.365 75.0734 107.401 74.8787 107.463 74.8188C107.508 74.7739 107.628 74.7529 107.822 74.7529H108.696C109.457 74.7529 110.042 74.9236 110.445 75.268C110.815 75.5675 111.006 75.9658 111.006 76.46C111.66 75.1722 112.782 74.5283 114.366 74.5283C117.19 74.5283 118.601 76.3342 118.601 79.9459ZM110.514 81.2037C110.514 83.3031 111.11 84.3513 112.307 84.3513C112.979 84.3513 113.516 84.0368 113.922 83.4049C114.352 82.7161 114.572 81.7278 114.572 80.4371C114.572 78.4875 113.958 77.5141 112.734 77.5141C111.251 77.5171 110.514 78.745 110.514 81.2037Z" fill="#695C91"/>
<path d="M124.382 79.7628C124.218 81.413 124.135 82.3803 124.135 82.6618C124.135 83.7759 124.63 84.3269 125.615 84.3269C126.647 84.3269 127.346 83.1559 127.722 80.82C127.841 80.0413 127.946 79.0351 128.035 77.8072L128.217 75.1987C128.247 74.8993 128.408 74.7495 128.71 74.7495H129.515C130.384 74.7495 130.996 74.9382 131.354 75.3125C131.652 75.627 131.802 76.1511 131.802 76.8878C131.802 76.9776 131.578 80.1701 131.13 86.4682C131.097 86.7826 131.07 86.9713 131.04 87.0312C130.996 87.0911 130.867 87.121 130.658 87.121H129.784C128.319 87.121 127.543 86.5071 127.453 85.2762C126.659 86.6568 125.51 87.3457 124 87.3457C122.896 87.3457 122.007 86.9983 121.335 86.3095C120.708 85.6506 120.395 84.8091 120.395 83.7908C120.395 81.6765 120.583 78.8973 120.956 75.4473C120.998 74.9831 121.21 74.7525 121.583 74.7525H122.302C123.182 74.7525 123.803 74.9262 124.161 75.2676C124.46 75.5551 124.609 76.0193 124.609 76.6632C124.606 77.0974 124.531 78.1336 124.382 79.7628Z" fill="#695C91"/>
<path d="M141.164 82.7997C139.982 85.3034 138.296 86.7588 136.099 87.1631C135.055 87.1631 134.353 86.8637 133.992 86.2647C133.545 85.6657 133.389 85.1416 133.521 84.6894C134.702 84.6565 136.21 83.9557 138.048 82.5751C135.508 82.4403 134.201 81.0747 134.126 78.4812C134.473 75.738 136.129 74.4203 139.102 74.5221C140.504 74.5221 141.358 74.8904 141.656 75.6272C141.671 75.5673 141.68 75.4924 141.68 75.3996C141.692 75.0851 141.731 74.8994 141.791 74.8365C141.823 74.7796 141.94 74.7467 142.149 74.7467H143.026C143.892 74.7467 144.503 74.9264 144.861 75.2858C145.16 75.6002 145.309 76.1033 145.309 76.7921C145.309 77.3911 145.07 80.6824 144.59 86.663C144.575 86.9625 144.411 87.1122 144.097 87.1122H143.292C142.423 87.1122 141.811 86.9235 141.453 86.5492C141.155 86.2347 141.006 85.7107 141.006 84.9739C141.006 84.92 141.059 84.1953 141.164 82.7997ZM141.391 80.2601C141.659 79.2389 141.614 78.4393 141.256 77.8553C140.973 77.2983 140.504 77.0227 139.845 77.0227C138.961 77.0227 138.397 77.4121 138.141 78.1937C137.693 79.5713 138.776 80.2601 141.391 80.2601Z" fill="#695C91"/>
<path d="M163.684 79.9459C163.684 82.225 163.18 84.0398 162.162 85.3875C161.192 86.6902 159.936 87.3431 158.399 87.3431C157.008 87.3431 156.038 86.6842 155.486 85.3665L155.015 90.829C155 91.1285 154.835 91.2812 154.519 91.2812H153.713C152.845 91.2812 152.233 91.0896 151.875 90.7152C151.576 90.4008 151.427 89.8767 151.427 89.14C151.427 88.526 151.764 83.947 152.436 75.4028C152.451 75.0734 152.487 74.8787 152.549 74.8188C152.594 74.7739 152.714 74.7529 152.908 74.7529H153.782C154.543 74.7529 155.128 74.9236 155.531 75.268C155.901 75.5675 156.089 75.9658 156.089 76.46C156.746 75.1722 157.868 74.5283 159.449 74.5283C162.273 74.5283 163.684 76.3342 163.684 79.9459ZM155.597 81.2037C155.597 83.3031 156.193 84.3513 157.39 84.3513C158.062 84.3513 158.599 84.0368 159.002 83.4049C159.434 82.7161 159.652 81.7278 159.652 80.4371C159.652 78.4875 159.038 77.5141 157.814 77.5141C156.334 77.5171 155.597 78.745 155.597 81.2037Z" fill="#695C91"/>
<path d="M166.576 81.1827C167.799 80.419 169.578 80.0057 171.909 79.9488C171.942 79.5266 171.954 79.2481 171.954 79.1133C171.954 78.0681 171.491 77.541 170.563 77.541C169.996 77.541 169.587 77.7057 169.33 78.0352C169.166 78.2628 169.002 78.7 168.838 79.3619C168.793 79.5715 168.563 79.6793 168.143 79.6793C166.62 79.6793 165.856 79.1013 165.856 77.9453C165.856 76.957 166.283 76.1454 167.134 75.5165C168.059 74.8607 169.342 74.5312 170.99 74.5312C174.141 74.5312 175.717 75.849 175.717 78.4874C175.717 78.712 175.657 79.4547 175.538 80.7125C175.404 81.9733 175.338 82.713 175.338 82.9407C175.338 83.5216 175.562 83.899 176.01 84.0637C176.439 84.2284 176.66 84.3452 176.66 84.4201C176.66 85.2017 176.472 85.8516 176.099 86.3787C175.622 87.0256 174.908 87.343 173.971 87.343C172.655 87.343 171.879 86.6901 171.64 85.3874C170.727 86.6901 169.512 87.343 167.987 87.343C165.821 87.343 164.737 86.3487 164.737 84.3542C164.737 83.0035 165.352 81.9464 166.576 81.1827ZM168.59 83.4288C168.59 84.0427 168.936 84.3512 169.623 84.3512C170.145 84.3512 170.593 84.1356 170.969 83.6983C171.402 83.2341 171.646 82.5933 171.706 81.7877C169.629 81.7906 168.59 82.3387 168.59 83.4288Z" fill="#695C91"/>
<path d="M181.967 86.4417C179.221 86.4417 177.845 84.7497 177.845 81.3625C177.845 79.5627 178.194 78.0652 178.899 76.8643C179.809 75.304 181.23 74.5254 183.157 74.5254C184.694 74.5254 185.652 75.1393 186.026 76.3672C185.981 76.2773 186.011 75.8132 186.115 74.9716C186.13 74.8249 186.228 74.75 186.408 74.75H187.44C188.231 74.75 188.789 74.9057 189.117 75.2202C189.476 75.5796 189.658 76.1935 189.658 77.065C189.658 80.9313 189.326 84.4112 188.67 87.4989C188.103 90.1643 186.088 91.4999 182.623 91.4999C181.143 91.4999 179.964 91.2244 179.081 90.6704C178.287 90.1732 177.893 89.5833 177.893 88.8945C177.893 88.3674 178.108 87.9481 178.544 87.6336C178.917 87.3641 179.349 87.2263 179.842 87.2263C180.081 87.2263 180.403 87.4659 180.806 87.9481C181.209 88.4452 181.838 88.6878 182.686 88.6878C184.465 88.6878 185.351 87.2773 185.351 84.4621C184.62 85.7829 183.492 86.4417 181.967 86.4417ZM185.823 80.0149C185.823 78.3498 185.27 77.5172 184.166 77.5172C183.223 77.5172 182.552 78.0203 182.149 79.0206C181.907 79.6525 181.791 80.3832 181.791 81.2248C181.791 82.7102 182.352 83.4499 183.471 83.4499C185.038 83.4529 185.823 82.3059 185.823 80.0149Z" fill="#695C91"/>
<path d="M191.359 81.7189C191.359 79.6525 191.836 78.0024 192.791 76.7745C193.943 75.2741 195.704 74.5254 198.08 74.5254C201.59 74.5254 203.344 76.2774 203.344 79.7873C203.344 81.7069 202.933 83.3181 202.112 84.6209C200.963 86.4327 199.139 87.3432 196.644 87.3432C193.12 87.3432 191.359 85.4714 191.359 81.7189ZM195.167 81.4763C195.167 83.396 195.773 84.3543 196.982 84.3543C197.907 84.3543 198.593 83.7913 199.041 82.6683C199.372 81.8597 199.536 80.9433 199.536 79.925C199.536 78.3228 198.924 77.5202 197.698 77.5202C196.012 77.5172 195.167 78.8349 195.167 81.4763Z" fill="#695C91"/>
<path d="M212.643 83.7674C213.273 83.378 213.622 83.1834 213.694 83.1834C214.04 83.1834 214.21 83.408 214.21 83.8572C214.21 84.6358 213.971 85.3037 213.491 85.8607C212.64 86.846 211.432 87.3432 209.862 87.3432C208.504 87.3432 207.364 86.9538 206.454 86.1722C205.32 85.2019 204.75 83.7164 204.75 81.7219C204.75 79.9849 205.108 78.4905 205.827 77.2477C206.871 75.4358 208.567 74.5254 210.915 74.5254C212.303 74.5254 213.372 74.8398 214.118 75.4717C214.804 76.0438 215.15 76.8044 215.15 77.7628C215.15 79.338 214.18 80.1227 212.237 80.1227C211.846 80.1227 211.655 80.0179 211.655 79.8082C211.641 78.9397 211.596 78.3797 211.521 78.1222C211.387 77.7179 211.088 77.5172 210.626 77.5172C209.253 77.5172 208.567 78.8439 208.567 81.4943C208.567 82.5425 208.737 83.2852 209.08 83.7194C209.393 84.1417 209.922 84.3513 210.668 84.3513C211.36 84.3543 212.014 84.1567 212.643 83.7674Z" fill="#695C91"/>
<path d="M220.129 85.0252L219.995 86.6693C219.98 86.9688 219.815 87.1185 219.499 87.1185H218.693C217.825 87.1185 217.213 86.9299 216.855 86.5555C216.556 86.2381 216.407 85.714 216.407 84.9802C216.407 84.8904 216.631 81.6979 217.079 75.3999C217.094 75.0704 217.132 74.8758 217.192 74.8159C217.237 74.771 217.356 74.75 217.55 74.75H218.425C219.875 74.75 220.642 75.3639 220.735 76.5918C221.478 75.2142 222.621 74.5254 224.161 74.5254C226.119 74.5254 227.247 75.2951 227.545 76.8404C228.366 75.2951 229.569 74.5254 231.153 74.5254C233.469 74.5254 234.624 75.5796 234.624 77.6969C234.624 78.4156 234.553 79.7214 234.403 81.6051L234.021 86.4207C234.006 86.7532 233.962 86.9448 233.887 87.0047C233.827 87.0796 233.672 87.1185 233.416 87.1185H232.699C231.804 87.1185 231.183 86.9448 230.837 86.6004C230.539 86.301 230.389 85.8128 230.389 85.142C230.389 84.6748 230.473 83.5727 230.637 81.8357C230.786 80.0987 230.861 79.1584 230.861 79.0236C230.861 78.0383 230.482 77.5412 229.718 77.5412C228.33 77.5412 227.515 79.2183 227.277 82.5784C227.142 84.3633 227.053 85.6421 227.008 86.4237C226.99 86.7562 226.948 86.9478 226.874 87.0077C226.814 87.0826 226.656 87.1215 226.402 87.1215H225.683C224.79 87.1215 224.167 86.9478 223.824 86.6034C223.525 86.304 223.376 85.8158 223.376 85.145C223.376 84.7377 223.456 83.6985 223.624 82.0184C223.773 80.3563 223.847 79.359 223.847 79.0266C223.847 78.0413 223.465 77.5442 222.704 77.5442C221.346 77.5442 220.538 79.386 220.287 83.0756C220.254 83.5967 220.203 84.2465 220.129 85.0252Z" fill="#695C91"/>
<path d="M240.677 79.7628C240.513 81.413 240.429 82.3803 240.429 82.6618C240.429 83.7759 240.924 84.3269 241.909 84.3269C242.942 84.3269 243.64 83.1559 244.016 80.82C244.136 80.0413 244.24 79.0351 244.333 77.8072L244.512 75.1987C244.541 74.8993 244.703 74.7495 245.007 74.7495H245.81C246.678 74.7495 247.29 74.9382 247.648 75.3125C247.947 75.627 248.096 76.1511 248.096 76.8878C248.096 76.9776 247.872 80.1701 247.424 86.4682C247.392 86.7826 247.365 86.9713 247.335 87.0312C247.29 87.0911 247.162 87.121 246.953 87.121H246.078C244.613 87.121 243.837 86.5071 243.748 85.2762C242.954 86.6568 241.805 87.3457 240.298 87.3457C239.19 87.3457 238.301 86.9983 237.63 86.3095C237.003 85.6506 236.689 84.8091 236.689 83.7908C236.689 81.6765 236.877 78.8973 237.251 75.4473C237.292 74.9831 237.504 74.7525 237.877 74.7525H238.597C239.48 74.7525 240.098 74.9262 240.456 75.2676C240.754 75.5551 240.903 76.0193 240.903 76.6632C240.9 77.0974 240.826 78.1336 240.677 79.7628Z" fill="#695C91"/>
<path d="M259.165 79.838C259.001 81.4911 258.917 82.4555 258.917 82.737C258.917 83.851 259.413 84.4021 260.397 84.4021C261.43 84.4021 262.128 83.2311 262.504 80.8952C262.624 80.1165 262.728 79.1103 262.818 77.8824L263 75.2739C263.03 74.9744 263.191 74.8247 263.492 74.8247H264.301C265.17 74.8247 265.781 75.0134 266.139 75.3877C266.438 75.7022 266.587 76.2293 266.587 76.963C266.587 77.0528 266.363 80.2453 265.916 86.5434C265.883 86.8578 265.856 87.0435 265.823 87.1064C265.781 87.1663 265.653 87.1962 265.444 87.1962H264.57C263.104 87.1962 262.328 86.5823 262.239 85.3514C261.445 86.732 260.296 87.4208 258.786 87.4208C257.679 87.4208 256.792 87.0735 256.121 86.3846C255.494 85.7288 255.181 84.8842 255.181 83.866C255.181 81.7547 255.369 78.9725 255.742 75.5225C255.784 75.0583 255.995 74.8277 256.368 74.8277H257.088C257.968 74.8277 258.589 75.0014 258.947 75.3428C259.245 75.6303 259.395 76.0945 259.395 76.7384C259.389 77.1696 259.314 78.2058 259.165 79.838Z" fill="#695C91"/>
<path d="M288.654 86.3128C287.472 85.4143 286.884 84.0277 286.884 82.153C286.884 80.3861 287.272 78.8407 288.051 77.52C289.185 75.5734 291.015 74.6001 293.54 74.6001C296.348 74.6001 297.754 75.7202 297.754 77.9722C297.754 79.7242 296.769 80.9611 294.793 81.6828C293.644 82.1021 292.292 82.3117 290.74 82.3117C290.74 82.9586 290.904 83.4797 291.233 83.887C291.606 84.3662 292.152 84.6057 292.871 84.6057C293.468 84.6057 293.945 84.3991 294.304 83.9768C294.662 83.5725 294.906 83.3719 295.041 83.3719C295.354 83.3719 295.676 83.4677 296.005 83.6624C296.497 83.9619 296.742 84.3961 296.742 84.9651C296.742 85.7737 296.255 86.4026 295.285 86.8548C294.477 87.2322 293.498 87.4208 292.349 87.4208C290.827 87.4179 289.594 87.0495 288.654 86.3128ZM290.806 80.5118C291.749 80.4969 292.492 80.3381 293.047 80.0387C293.629 79.7242 293.922 79.2989 293.922 78.7599C293.922 77.9812 293.54 77.5889 292.781 77.5889C291.701 77.5889 291.042 78.5652 290.806 80.5118Z" fill="#695C91"/>
<path d="M306.713 83.8421C307.342 83.4527 307.692 83.2581 307.766 83.2581C308.109 83.2581 308.279 83.4827 308.279 83.9319C308.279 84.7135 308.041 85.3784 307.56 85.9354C306.71 86.9207 305.501 87.4179 303.931 87.4179C302.573 87.4179 301.433 87.0285 300.523 86.2469C299.389 85.2766 298.819 83.7911 298.819 81.7966C298.819 80.0596 299.177 78.5652 299.896 77.3224C300.941 75.5105 302.636 74.6001 304.985 74.6001C306.372 74.6001 307.441 74.9146 308.187 75.5465C308.873 76.1185 309.22 76.8791 309.22 77.8375C309.22 79.4127 308.25 80.2004 306.307 80.2004C305.916 80.2004 305.725 80.0926 305.725 79.8829C305.71 79.0144 305.665 78.4544 305.591 78.1969C305.456 77.7926 305.158 77.5919 304.695 77.5919C303.322 77.5919 302.636 78.9186 302.636 81.569C302.636 82.6172 302.806 83.3599 303.149 83.7941C303.463 84.2164 303.991 84.426 304.74 84.426C305.429 84.426 306.086 84.2284 306.713 83.8421Z" fill="#695C91"/>
<path d="M311.957 86.3128C310.775 85.4143 310.187 84.0277 310.187 82.153C310.187 80.3861 310.575 78.8407 311.354 77.52C312.488 75.5734 314.317 74.6001 316.845 74.6001C319.651 74.6001 321.056 75.7202 321.056 77.9722C321.056 79.7242 320.071 80.9611 318.096 81.6828C316.947 82.1021 315.598 82.3117 314.043 82.3117C314.043 82.9586 314.207 83.4797 314.535 83.887C314.908 84.3662 315.455 84.6057 316.174 84.6057C316.771 84.6057 317.248 84.3991 317.606 83.9768C317.964 83.5725 318.209 83.3719 318.343 83.3719C318.657 83.3719 318.979 83.4677 319.307 83.6624C319.8 83.9619 320.045 84.3961 320.045 84.9651C320.045 85.7737 319.558 86.4026 318.588 86.8548C317.779 87.2322 316.803 87.4208 315.651 87.4208C314.132 87.4179 312.9 87.0495 311.957 86.3128ZM314.109 80.5118C315.052 80.4969 315.798 80.3381 316.35 80.0387C316.932 79.7242 317.224 79.2989 317.224 78.7599C317.224 77.9812 316.845 77.5889 316.084 77.5889C315.004 77.5889 314.347 78.5652 314.109 80.5118Z" fill="#695C91"/>
<path d="M328.067 77.6337C327.977 78.595 327.819 80.1074 327.595 82.1768C327.267 85.2644 326.025 86.9355 323.877 87.1901C323.635 87.223 323.411 87.235 323.205 87.235C322.307 87.235 321.731 86.9415 321.477 86.3545C321.238 85.7855 321.393 85.2315 321.949 84.6924C322.304 84.363 322.739 84.0785 323.247 83.8389L323.56 84.0396C323.635 83.8898 323.694 83.7011 323.742 83.4765C323.832 83.0573 323.966 81.9342 324.145 80.1044L324.345 77.5858C324.303 75.6511 325.145 74.6898 326.879 74.6898C330.717 74.4322 332.725 74.6658 332.907 75.3846C333.337 75.7739 333.543 76.5915 333.513 77.8343C333.513 77.999 333.286 80.9669 332.839 86.7379C332.824 87.0673 332.788 87.262 332.725 87.3219C332.684 87.3638 332.561 87.3877 332.37 87.3877H331.493C329.941 87.3877 329.162 86.7439 329.162 85.4531C329.162 84.8571 329.246 83.7431 329.41 82.1139C329.574 80.4877 329.657 79.3886 329.657 78.8226C329.657 78.2057 329.434 77.8074 328.986 77.6277H328.067V77.6337Z" fill="#695C91"/>
<path d="M339.294 77.8376C339.204 78.3766 339.285 78.5773 339.542 78.4425C340.661 77.6339 341.837 77.2177 343.069 77.1937C344.302 77.1727 345.257 77.4453 345.928 78.0143C346.734 78.7031 347.083 79.7243 346.979 81.072C346.874 83.1564 346.218 84.7136 345.009 85.7469C343.723 86.8579 342.028 87.409 339.921 87.409C337.888 87.409 336.495 86.804 335.731 85.5881C335.137 84.6178 334.958 83.0336 335.205 80.8444C335.453 78.6582 335.68 76.8733 335.889 75.4927C335.934 75.1932 335.987 75.0195 336.047 74.9775C336.077 74.9176 336.196 74.8877 336.405 74.8877H337.279C338.145 74.8877 338.751 75.0524 339.094 75.3818C339.36 75.6664 339.473 76.1246 339.431 76.7535C339.431 76.9391 339.384 77.2985 339.294 77.8376ZM339.497 80.7815C339.151 81.2636 338.996 82.0423 339.025 83.1234C339.055 84.2315 339.598 84.7855 340.664 84.7855C341.529 84.7855 342.201 84.4381 342.681 83.7493C343.025 83.2252 343.186 82.4136 343.174 81.3205C343.129 80.3502 342.523 79.8621 341.359 79.8621C340.532 79.8621 339.915 80.1675 339.497 80.7815Z" fill="#695C91"/>
<path d="M355.855 82.8715C354.673 85.3751 352.987 86.8306 350.79 87.2349C349.746 87.2349 349.044 86.9354 348.683 86.3365C348.235 85.7375 348.08 85.2134 348.212 84.7612C349.393 84.7283 350.901 84.0275 352.739 82.6469C350.199 82.5121 348.892 81.1465 348.817 78.553C349.161 75.8127 350.82 74.492 353.792 74.5938C355.195 74.5938 356.049 74.9622 356.347 75.6989C356.362 75.639 356.368 75.5642 356.368 75.4713C356.383 75.1569 356.422 74.9712 356.481 74.9083C356.514 74.8514 356.631 74.8185 356.84 74.8185H357.714C358.582 74.8185 359.194 75.0011 359.552 75.3575C359.851 75.675 360 76.1751 360 76.8639C360 77.4629 359.761 80.7542 359.281 86.7348C359.266 87.0343 359.102 87.184 358.788 87.184H357.983C357.114 87.184 356.502 86.9953 356.144 86.621C355.846 86.3065 355.697 85.7824 355.697 85.0457C355.697 84.9948 355.747 84.2671 355.855 82.8715ZM356.079 80.3319C356.347 79.3107 356.302 78.511 355.944 77.9271C355.661 77.37 355.189 77.0945 354.533 77.0945C353.649 77.0945 353.085 77.4838 352.828 78.2655C352.381 79.6431 353.464 80.3319 356.079 80.3319Z" fill="#695C91"/>
<path d="M284.992 77.8583C284.992 75.5852 283.571 74.4502 280.733 74.4502C278.182 74.4502 276.331 75.4355 275.182 77.4061C274.397 78.7388 274.003 80.299 274.003 82.0899C274.003 83.9857 274.6 85.3842 275.794 86.2946C276.746 87.0374 277.991 87.4087 279.534 87.4087C280.396 87.4087 281.127 87.271 281.799 87.0613C281.981 87.0463 283.354 86.3426 283.598 86.0281L283.601 86.0251C285.843 83.9916 284.509 81.5988 283.78 80.6045C284.586 79.9007 284.992 78.9873 284.992 77.8583ZM279.963 77.4749C280.733 77.4749 281.118 77.8673 281.118 78.6549C281.118 79.2 280.823 79.6312 280.235 79.9516C279.677 80.2541 278.922 80.4158 277.97 80.4278C278.211 78.4602 278.874 77.4749 279.963 77.4749ZM278.399 83.8389C278.068 83.4286 277.901 82.8985 277.901 82.2457C279.471 82.2457 280.653 82.1019 281.817 81.6767C282.545 83.213 281.575 84.2702 280.79 84.4199C280.566 84.5067 280.327 84.5636 280.053 84.5636C279.328 84.5666 278.779 84.3241 278.399 83.8389Z" fill="#695C91"/>
<path d="M2.56999 6.83629V39.4257C2.56999 39.4257 1.87163 48.0148 7.11229 47.2571C12.35 46.4995 11.3024 37.7846 12.2336 35.1312C13.1647 32.4778 16.7729 29.8274 20.6139 29.447C24.4548 29.0697 27.7138 30.0789 27.7138 35.3827C27.7138 40.6895 28.8777 47.2571 33.3037 46.751C37.7266 46.2449 36.7954 31.9717 37.0282 22.1218C37.261 12.2689 37.843 0.148893 33.7662 0.142903C27.5974 0.136914 29.6925 9.61846 28.06 15.048C26.4305 20.4806 24.3354 20.6064 21.8912 20.6064C19.4469 20.6064 11.6456 22.8794 11.5292 18.4591C11.4129 14.0388 12.926 0.397462 7.68829 0.142903C2.45359 -0.10866 2.56999 6.83629 2.56999 6.83629Z" fill="#8CCAE7"/>
<path d="M279.582 7.35735V39.9438C279.582 39.9438 278.895 48.5329 284.043 47.7752C289.192 47.0175 288.162 38.3026 289.078 35.6492C289.991 32.9959 293.54 30.3455 297.315 29.9651C301.09 29.5848 304.293 30.597 304.293 35.9008C304.293 41.2046 305.436 47.7722 309.784 47.2661C314.132 46.76 313.216 32.4897 313.446 22.6368C313.673 12.7839 314.246 0.663962 310.244 0.660967C304.179 0.651982 306.239 10.1335 304.639 15.5631C303.036 20.9957 300.977 21.1215 298.575 21.1215C296.172 21.1215 288.508 23.3975 288.392 18.9742C288.278 14.5539 289.765 0.91253 284.616 0.660967C279.465 0.409403 279.582 7.35735 279.582 7.35735Z" fill="#8CCAE7"/>
<path d="M44.6595 48.5089V15.7188C44.6595 15.7188 44.1253 9.02545 48.6617 9.29499C53.198 9.56152 53.9978 11.4363 53.9978 17.3241C53.9978 23.2118 53.198 32.1813 56.4003 31.3757C59.6026 30.5731 65.3357 15.3145 69.7377 11.4333C74.1368 7.55201 79.6072 7.15071 79.7415 14.1106C79.8609 20.3518 79.7654 46.0802 79.7445 51.3211C79.7415 52.1386 79.5267 52.9383 79.0969 53.633C78.4224 54.7172 77.1481 56.0588 74.9396 56.1367C71.2061 56.2715 69.872 53.9954 69.7407 50.5155C69.6064 47.0355 71.2061 34.1878 67.3382 36.1943C63.9569 37.9493 57.412 48.6078 55.8213 51.2582C55.5497 51.7104 55.2125 52.1117 54.8186 52.4621C52.6578 54.3817 45.7787 59.5418 44.6595 48.5089Z" fill="#F8C600"/>
<path d="M128.092 49.8922V17.0991C128.092 17.0991 127.558 10.4058 132.094 10.6753C136.631 10.9448 137.43 12.8166 137.43 18.7044C137.43 24.5951 136.631 33.5616 139.833 32.759C143.035 31.9534 148.768 16.6978 153.17 12.8166C157.569 8.93531 163.04 8.53401 163.174 15.4939C163.297 21.8609 163.195 48.5086 163.177 52.9978C163.174 53.5279 163.049 54.046 162.813 54.5162C162.246 55.6333 160.939 57.4302 158.372 57.523C154.639 57.6578 153.305 55.3817 153.173 51.9017C153.039 48.4218 154.639 35.5741 150.771 37.5806C147.446 39.3086 141.068 49.6347 139.34 52.5007C139.009 53.0458 138.603 53.5429 138.123 53.9622C135.831 55.9567 129.193 60.7125 128.092 49.8922Z" fill="#E05F14"/>
<path d="M114.068 35.0923C112.323 30.7109 111.967 26.0839 111.905 24.9459C111.967 23.8079 112.323 19.1809 114.068 14.7995C116.077 9.76226 121.601 10.0977 121.601 10.0977C121.601 10.0977 122.27 7.41133 121.601 4.21888C120.933 1.02642 113.233 0.690998 108.377 4.21888C103.521 7.74675 105.196 16.6473 102.181 17.4859C99.1701 18.3274 97.1616 16.3089 96.6573 10.7685C96.1559 5.22513 97.3258 1.36183 91.1331 0.688002C85.4537 0.0710731 86.5281 8.49546 86.7489 9.89702C86.7728 10.0438 86.7848 10.1875 86.7907 10.3343L87.4174 24.9429L86.7937 39.4977C86.7848 39.6803 86.7698 39.857 86.743 40.0397C86.5102 41.588 85.5223 49.8058 91.1361 49.1978C97.3288 48.527 96.1588 44.6637 96.6602 39.1173C97.1646 33.5739 99.1731 31.5614 102.184 32.4C105.199 33.2385 103.524 42.1421 108.38 45.6699C113.236 49.1978 120.936 48.8594 121.604 45.6699C122.273 42.4775 121.604 39.7911 121.604 39.7911C121.604 39.7911 116.077 40.1296 114.068 35.0923Z" fill="#695C91"/>
<path d="M357.314 51.0186C356.759 47.1224 350.746 49.4613 350.746 49.4613V23.8617C350.746 16.5155 347.221 9.83707 334.907 9.50465C322.597 9.16923 323.062 22.7507 323.062 22.7507L322.617 48.5718C312.303 49.5751 316.493 55.8073 318.38 57.7C320.266 59.5897 339.232 58.4787 348.218 58.7003C357.204 58.9219 357.87 54.9148 357.314 51.0186ZM340.67 45.2925C339.121 46.8199 335.838 49.3206 332.991 46.6133C332.209 45.8705 331.753 44.8433 331.693 43.7652C331.419 38.9016 330.89 22.3014 332.77 20.4986C335.271 18.1027 339.796 17.3181 341.008 22.8165C342.019 27.4136 341.733 39.3359 341.61 43.1303C341.586 43.9479 341.252 44.7175 340.67 45.2925Z" fill="#F8C600"/>
<path d="M271.038 38.8266C271.005 36.9489 270.972 35.0681 270.942 33.1904C270.909 31.3127 270.844 29.4319 270.748 27.5542C270.721 25.913 270.327 24.188 269.566 22.3881C268.805 20.5853 267.716 18.9411 266.298 17.4497C264.878 15.9613 263.177 14.7304 261.195 13.7631C259.213 12.7958 256.954 12.3226 254.423 12.3466C252.015 12.4154 249.52 12.8707 246.935 13.7092C245.494 14.1794 244.151 14.7604 242.909 15.4522C242.041 15.9373 241.232 16.4854 240.462 17.0784C240.459 17.0754 240.45 17.0694 240.45 17.0694C240.45 17.0694 239.247 17.8121 239.032 18.8902C238.818 19.9713 239.032 21.0854 240.25 22.0228C241.471 22.9601 244.598 26.0867 246.21 24.1431C246.21 24.1401 246.21 24.1401 246.213 24.1401C246.329 24.0982 247.192 23.1249 247.756 22.6726C248.317 22.2204 248.929 21.8042 249.588 21.4208C250.245 21.0375 250.922 20.726 251.615 20.4834C252.307 20.2439 252.94 20.1181 253.51 20.1121C255.22 20.0941 256.527 20.4984 257.429 21.319C258.33 22.1396 259.01 23.068 259.473 24.1072C259.932 25.1434 260.204 26.1586 260.288 27.1529C260.368 28.1472 260.443 28.809 260.511 29.1414C260.517 29.4738 260.204 29.7374 259.574 29.9291C259.321 30.0279 259.007 30.1028 258.625 30.1507C258.625 30.1507 252.164 30.3304 251.976 30.4262C251.976 30.4262 249.762 30.3753 249.403 32.7142C249.045 35.0562 249.26 37.1795 250.048 37.6826C250.451 37.9402 251.54 38.042 252.615 38.0809C252.698 38.0989 252.782 38.1109 252.868 38.1109L253.689 38.1019C254.298 38.1049 254.808 38.0929 255.053 38.0869C255.686 38.0809 256.303 38.0629 256.906 38.036C257.506 38.006 258.031 37.9911 258.473 37.9851C259.359 37.9761 259.929 38.03 260.186 38.1438C260.44 38.2606 260.604 38.5541 260.676 39.0213C260.682 39.3986 260.664 40.2462 260.625 41.5639C260.583 42.8816 260.368 44.2712 259.983 45.7326C259.595 47.1941 258.936 48.5088 258.008 49.6678C257.076 50.8298 255.724 51.4198 253.949 51.4347C252.555 51.4467 251.379 51.258 250.421 50.8687C249.463 50.4794 248.678 50.0152 248.069 49.4791C247.458 48.9461 246.989 48.431 246.667 47.9398C246.338 47.4487 246.112 47.1312 245.983 46.9934C243.897 44.5078 242.975 45.0259 242.366 45.0259C241.757 45.0259 237.269 47.7631 236.302 49.2755C235.332 50.7879 236.567 52.2374 236.567 52.2374C236.57 52.426 239.617 55.5017 241.059 56.4301C242.5 57.3585 244.24 58.176 246.282 58.8858C248.32 59.5956 250.576 59.94 253.047 59.916C255.453 59.8921 257.775 59.4458 260.01 58.5803C262.242 57.7148 264.185 56.4031 265.836 54.6512C267.483 52.8992 268.793 50.713 269.763 48.0985C270.739 45.4901 271.163 42.3964 271.038 38.8266Z" fill="#E05F14"/>
<path d="M228.617 25.2813L229.232 10.9332C229.232 10.9332 231.073 0.855726 224.877 1.52656C224.877 1.52656 209.179 0.999476 205.735 1.49362C202.288 1.98776 201.954 6.95015 201.954 6.95015C201.954 6.95015 198.304 32.7294 196.558 37.1108C194.55 42.1481 188.557 41.6689 188.557 41.6689C188.557 41.6689 187.888 44.3552 188.557 47.5477C189.225 50.7372 196.925 51.0756 201.781 47.5477C205.643 44.7416 205.911 39.3659 206.625 35.7033L209.385 19.714C209.97 15.8088 210.863 12.2599 211.304 10.6098C211.459 10.0228 211.976 9.61253 212.582 9.58557C214.038 9.51969 216.676 9.43584 217.792 9.63948C219.371 9.92698 219.437 12.3438 219.437 12.3438L219.356 39.9589C219.858 45.5022 218.688 49.3655 224.88 50.0364C230.554 50.6533 229.321 40.5159 229.3 39.0454C229.297 38.9107 228.754 28.6804 228.623 26.2816C228.602 25.9492 228.602 25.6168 228.617 25.2813Z" fill="#695C91"/>
</svg>
