<svg width="19" height="23" viewBox="0 0 19 23" fill="none" xmlns="http://www.w3.org/2000/svg">
<g id="Group">
<path id="Vector" d="M14.7304 5.90757C15.8092 4.6835 16.6391 3.39724 16.0167 2.85782C15.2698 2.21466 14.2325 3.21084 13.4441 4.22745C14.2739 2.8374 15.0831 1.01156 14.025 0.492886C13.2158 0.0986931 12.6349 0.866089 12.2407 1.7997C12.2615 1.09431 12.0748 0.430767 11.4109 0.0988146C9.97931 -0.606584 9.64736 2.65043 9.58512 3.97824C9.43989 3.97824 9.27391 3.95747 9.12869 3.95747C4.08716 3.95747 0 8.04494 0 13.0865C0 18.128 4.08716 22.2149 9.12869 22.2149C14.1702 22.2149 18.2574 18.128 18.2574 13.0865C18.2574 10.1611 16.8881 7.56733 14.7511 5.90757H14.7304Z" fill="#E16827"/>
<g id="Group_2">
<g id="Group_3">
<path id="Vector_2" d="M6.62017 11.115C7.08995 11.115 7.47079 10.7343 7.47079 10.2645C7.47079 9.79472 7.08995 9.41406 6.62017 9.41406C6.15038 9.41406 5.76953 9.79472 5.76953 10.2645C5.76953 10.7343 6.15038 11.115 6.62017 11.115Z" fill="white"/>
<path id="Vector_3" d="M12.0567 11.115C12.5265 11.115 12.9073 10.7343 12.9073 10.2645C12.9073 9.79472 12.5265 9.41406 12.0567 9.41406C11.5869 9.41406 11.2061 9.79472 11.2061 10.2645C11.2061 10.7343 11.5869 11.115 12.0567 11.115Z" fill="white"/>
</g>
<path id="Vector_4" d="M13.3608 13.8535C13.3608 16.1979 11.452 18.1068 9.10762 18.1068C6.76321 18.1068 4.85449 16.1979 4.85449 13.8535" fill="white"/>
</g>
</g>
</svg>
