<svg width="19" height="23" viewBox="0 0 19 23" fill="none" xmlns="http://www.w3.org/2000/svg">
<g id="Group">
<path id="Vector" d="M14.7304 5.90806C15.8092 4.68399 16.6391 3.39774 16.0167 2.85832C15.2698 2.21516 14.2325 3.21083 13.4441 4.22744C14.2739 2.83739 15.0831 1.01155 14.025 0.492873C13.2158 0.09868 12.6349 0.866583 12.2407 1.8002C12.2615 1.0948 12.0748 0.430754 11.4109 0.0988016C9.97931 -0.606597 9.64736 2.65093 9.58512 3.97873C9.43989 3.97873 9.27391 3.95797 9.12869 3.95797C4.08716 3.95797 0 8.04493 0 13.0864C0 18.128 4.08716 22.2149 9.12869 22.2149C14.1702 22.2149 18.2574 18.128 18.2574 13.0864C18.2574 10.1611 16.8881 7.56783 14.7511 5.90806H14.7304Z" fill="#7AC5E0"/>
<g id="Group_2">
<g id="Group_3">
<path id="Vector_2" d="M6.61722 11.095C7.08701 11.095 7.46786 10.7143 7.46786 10.2445C7.46786 9.77472 7.08701 9.39355 6.61722 9.39355C6.14743 9.39355 5.7666 9.77472 5.7666 10.2445C5.7666 10.7143 6.14743 11.095 6.61722 11.095Z" fill="white"/>
<path id="Vector_3" d="M12.0733 11.095C12.5431 11.095 12.9239 10.7143 12.9239 10.2445C12.9239 9.77472 12.5431 9.39355 12.0733 9.39355C11.6035 9.39355 11.2227 9.77472 11.2227 10.2445C11.2227 10.7143 11.6035 11.095 12.0733 11.095Z" fill="white"/>
</g>
<path id="Vector_4" d="M13.3598 13.8545C13.3598 16.1989 11.4511 18.1072 9.10666 18.1072C6.76225 18.1072 4.85352 16.1989 4.85352 13.8545" fill="white"/>
</g>
</g>
</svg>
