<svg width="19" height="23" viewBox="0 0 19 23" fill="none" xmlns="http://www.w3.org/2000/svg">
<g id="Group">
<path id="Vector" d="M14.7304 5.90806C15.8092 4.68399 16.6391 3.39774 16.0167 2.85832C15.2698 2.21516 14.2325 3.21083 13.4441 4.22744C14.2739 2.83739 15.0831 1.01205 14.025 0.49338C13.2158 0.0991865 12.6349 0.866583 12.2407 1.8002C12.2615 1.0948 12.0748 0.430754 11.4109 0.0988016C9.97931 -0.606597 9.64736 2.65093 9.58512 3.97873C9.43989 3.97873 9.27391 3.95797 9.12869 3.95797C4.08716 3.95797 0 8.04493 0 13.0864C0 18.128 4.08716 22.2154 9.12869 22.2154C14.1702 22.2154 18.2574 18.128 18.2574 13.0864C18.2574 10.1611 16.8881 7.56783 14.7511 5.90806H14.7304Z" fill="#F6C322"/>
<g id="Group_2">
<g id="Group_3">
<path id="Vector_2" d="M6.61722 11.0954C7.08701 11.0954 7.46786 10.7148 7.46786 10.245C7.46786 9.77521 7.08701 9.39404 6.61722 9.39404C6.14743 9.39404 5.7666 9.77521 5.7666 10.245C5.7666 10.7148 6.14743 11.0954 6.61722 11.0954Z" fill="white"/>
<path id="Vector_3" d="M12.0733 11.0954C12.5431 11.0954 12.9239 10.7148 12.9239 10.245C12.9239 9.77521 12.5431 9.39404 12.0733 9.39404C11.6035 9.39404 11.2227 9.77521 11.2227 10.245C11.2227 10.7148 11.6035 11.0954 12.0733 11.0954Z" fill="white"/>
</g>
<path id="Vector_4" d="M13.3598 13.834C13.3598 16.1784 11.4511 18.0872 9.10666 18.0872C6.76225 18.0872 4.85352 16.1784 4.85352 13.834" fill="white"/>
</g>
</g>
</svg>
