<svg width="586" height="337" viewBox="0 0 586 337" fill="none" xmlns="http://www.w3.org/2000/svg">
<path d="M74.3061 194.101C76.9819 194.101 79.6577 193.998 82.3335 193.689C89.7435 241.031 138.938 277.566 198.526 277.566C202.952 277.566 207.377 277.361 211.7 276.949C231.254 307.721 270.465 328.819 315.749 328.819C363.09 328.819 403.845 305.766 422.37 272.523C434.103 275.714 446.659 277.566 459.729 277.566C519.215 277.566 568.306 241.134 575.922 194.101C576.231 194.101 576.642 194.101 576.951 194.101C615.751 194.101 647.243 168.269 647.243 136.365C647.243 104.461 615.751 78.6284 576.951 78.6284C569.644 78.6284 562.543 79.5547 555.853 81.3043C534.652 56.3984 499.558 40.1376 459.729 40.1376C422.37 40.1376 389.128 54.443 367.722 76.8789C348.888 44.3572 308.544 21.9214 261.82 21.9214C220.242 21.9214 183.809 39.6231 163.02 66.3814C145.113 71.1156 128.955 79.246 115.987 89.8464C104.358 82.8481 89.9494 78.6285 74.409 78.6285C35.6094 78.6285 4.11686 104.461 4.11687 136.365C4.11687 168.269 35.5065 194.101 74.3061 194.101Z" fill="#F1EFED"/>
<path d="M70.1894 172.18C72.8652 172.18 75.541 172.077 78.2168 171.768C85.6268 219.11 134.821 255.645 194.41 255.645C198.835 255.645 203.261 255.439 207.583 255.028C227.137 285.8 266.349 306.898 311.632 306.898C358.974 306.898 399.729 283.844 418.254 250.602C429.986 253.793 442.542 255.645 455.612 255.645C515.098 255.645 564.189 219.213 571.805 172.18C572.114 172.18 572.526 172.18 572.834 172.18C611.634 172.18 643.126 146.348 643.126 114.444C643.126 82.5394 611.634 56.7073 572.834 56.7073C565.527 56.7073 558.426 57.6335 551.736 59.3831C530.536 34.4773 495.441 18.2165 455.612 18.2165C418.254 18.2165 385.011 32.5219 363.605 54.9577C344.771 22.4361 304.428 0.000243233 257.703 0.000247318C216.125 0.000250953 179.693 17.7019 158.904 44.4602C140.996 49.1944 124.838 57.3248 111.871 67.9253C100.241 60.9269 85.8327 56.7073 70.2923 56.7073C31.4927 56.7073 0.000163491 82.5394 0.000166281 114.444C-0.102736 146.348 31.3898 172.18 70.1894 172.18Z" fill="#8AC8E5"/>
<path d="M709.794 192.649C707.814 192.649 705.835 192.725 703.856 192.954C698.375 157.936 661.986 130.911 617.909 130.911C614.636 130.911 611.363 131.063 608.165 131.368C593.701 108.606 564.697 93 531.202 93C496.184 93 466.038 110.052 452.335 134.641C443.657 132.281 434.37 130.911 424.702 130.911C380.701 130.911 344.389 157.859 338.755 192.649C338.527 192.649 338.222 192.649 337.994 192.649C309.295 192.649 286 211.757 286 235.356C286 258.955 309.295 278.062 337.994 278.062C343.399 278.062 348.652 277.377 353.6 276.083C369.282 294.506 395.241 306.534 424.702 306.534C452.335 306.534 476.924 295.952 492.758 279.357C506.689 303.412 536.531 320.008 571.092 320.008C601.847 320.008 628.795 306.914 644.173 287.121C657.419 283.62 669.371 277.606 678.962 269.765C687.565 274.941 698.222 278.062 709.717 278.062C738.417 278.062 761.712 258.955 761.712 235.356C761.712 211.757 738.493 192.649 709.794 192.649Z" fill="#F1EFED"/>
<path d="M712.838 208.864C710.859 208.864 708.88 208.94 706.901 209.168C701.42 174.15 665.031 147.126 620.954 147.126C617.681 147.126 614.408 147.278 611.21 147.582C596.746 124.821 567.742 109.215 534.247 109.215C499.229 109.215 469.083 126.267 455.38 150.856C446.702 148.496 437.414 147.126 427.746 147.126C383.746 147.126 347.434 174.074 341.8 208.864C341.572 208.864 341.267 208.864 341.039 208.864C312.339 208.864 289.045 227.971 289.045 251.571C289.045 275.17 312.339 294.277 341.039 294.277C346.444 294.277 351.697 293.592 356.645 292.298C372.327 310.72 398.286 322.748 427.746 322.748C455.38 322.748 479.969 312.167 495.803 295.571C509.734 319.627 539.576 336.223 574.137 336.223C604.892 336.223 631.84 323.129 647.218 303.336C660.464 299.834 672.416 293.821 682.007 285.98C690.61 291.156 701.267 294.277 712.762 294.277C741.462 294.277 764.756 275.17 764.756 251.571C764.833 227.972 741.538 208.864 712.838 208.864Z" fill="#8AC8E5"/>
</svg>
