<svg width="1281" height="1402" viewBox="0 0 1281 1402" fill="none" xmlns="http://www.w3.org/2000/svg">
<path d="M1231.01 788.496C1230.58 773.288 1228.55 758.435 1225.08 744.086C1250.63 707.792 1265.49 664.407 1265.49 617.795C1265.49 589.898 1260.16 563.139 1250.41 538.378C1269.9 505.424 1281 467.582 1281 427.314C1281 379.246 1265.2 334.629 1238.19 297.682C1234.58 173.108 1124.98 73.1471 990.187 73.1471C963.389 73.1471 937.608 77.1404 913.444 84.4551C856.925 33.476 761.93 0 654.22 0C571.442 0 496.214 19.7981 440.15 52.0799C403.894 32.8041 361.935 21.72 317.196 21.72C180.138 21.72 69.0269 125.078 69.0269 252.581C69.0269 294.921 81.3472 334.573 102.731 368.684C42.3329 413.374 7.17647 466.817 7.17647 524.271C7.17647 573.515 33.0408 619.829 78.4641 660.19C67.7409 685.997 61.8504 714.043 61.8504 743.377C61.8504 785.716 74.1707 825.369 95.5549 859.479C35.1564 904.17 0 957.612 0 1015.07C0 1065.28 26.8599 1112.45 73.9633 1153.37C61.8504 1171.36 54.9021 1192.09 54.9021 1214.17C54.9021 1283.1 122.228 1338.99 205.255 1338.99C210.005 1338.99 214.672 1338.78 219.318 1338.42C257.357 1377.46 312.28 1402 373.384 1402C446.103 1402 510.069 1367.26 547.237 1314.65C592.743 1363.54 659.903 1394.52 734.883 1394.52C809.863 1394.52 870.157 1366.6 915.415 1321.97C944.619 1333.2 976.602 1339.43 1010.16 1339.43C1147.22 1339.43 1258.33 1236.07 1258.33 1108.57C1258.33 1080.67 1253 1053.92 1243.25 1029.15C1262.75 996.201 1273.84 958.359 1273.84 918.09C1273.84 870.022 1258.04 825.406 1231.03 788.459L1231.01 788.496Z" fill="white"/>
</svg>
