<svg width="481" height="374" viewBox="0 0 481 374" fill="none" xmlns="http://www.w3.org/2000/svg">
<path d="M-92.6939 239.101C-90.0181 239.101 -87.3423 238.998 -84.6665 238.689C-77.2565 286.031 -28.0623 322.566 31.5265 322.566C35.9519 322.566 40.3774 322.361 44.6999 321.949C64.254 352.721 103.465 373.819 148.749 373.819C196.09 373.819 236.845 350.766 255.37 317.523C267.103 320.714 279.659 322.566 292.729 322.566C352.215 322.566 401.306 286.134 408.922 239.101C409.231 239.101 409.642 239.101 409.951 239.101C448.751 239.101 480.243 213.269 480.243 181.365C480.243 149.461 448.751 123.628 409.951 123.628C402.644 123.628 395.543 124.555 388.853 126.304C367.652 101.398 332.558 85.1376 292.729 85.1376C255.37 85.1376 222.128 99.443 200.722 121.879C181.888 89.3572 141.544 66.9214 94.8202 66.9214C53.2419 66.9214 16.8094 84.6231 -3.97979 111.381C-21.8873 116.116 -38.0451 124.246 -51.0127 134.846C-62.6422 127.848 -77.0506 123.628 -92.591 123.628C-131.391 123.628 -162.883 149.461 -162.883 181.365C-162.883 213.269 -131.493 239.101 -92.6939 239.101Z" fill="#F1EFED"/>
<path d="M-96.8106 217.18C-94.1348 217.18 -91.459 217.077 -88.7832 216.768C-81.3732 264.11 -32.179 300.645 27.4098 300.645C31.8352 300.645 36.2607 300.439 40.5832 300.027C60.1373 330.8 99.3486 351.897 144.632 351.897C191.974 351.897 232.729 328.844 251.254 295.602C262.986 298.792 275.542 300.645 288.612 300.645C348.098 300.645 397.189 264.212 404.805 217.18C405.114 217.18 405.526 217.18 405.834 217.18C444.634 217.18 476.126 191.347 476.126 159.443C476.126 127.539 444.634 101.707 405.834 101.707C398.527 101.707 391.426 102.633 384.736 104.383C363.536 79.477 328.441 63.2162 288.612 63.2162C251.254 63.2162 218.011 77.5217 196.605 99.9575C177.771 67.4358 137.428 45 90.7035 45C49.1252 45 12.6927 62.7017 -8.09649 89.46C-26.004 94.1942 -42.1618 102.325 -55.1294 112.925C-66.7589 105.927 -81.1673 101.707 -96.7077 101.707C-135.507 101.707 -167 127.539 -167 159.443C-167.103 191.348 -135.61 217.18 -96.8106 217.18Z" fill="#8AC8E5"/>
<path d="M284.794 99.649C282.814 99.649 280.835 99.7252 278.856 99.9535C273.375 64.9356 236.986 37.9108 192.909 37.9108C189.636 37.9108 186.363 38.0631 183.165 38.3676C168.701 15.6059 139.697 4.8729e-05 106.202 4.28725e-05C71.1839 3.67497e-05 41.0381 17.0523 27.3354 41.641C18.657 39.2811 9.36958 37.9108 -0.298423 37.9108C-44.2993 37.9108 -80.6114 64.8594 -86.2447 99.649C-86.4731 99.649 -86.7776 99.649 -87.0059 99.649C-115.705 99.649 -139 118.757 -139 142.356C-139 165.955 -115.705 185.062 -87.006 185.062C-81.601 185.062 -76.3483 184.377 -71.4001 183.083C-55.7182 201.506 -29.7592 213.534 -0.298453 213.534C27.3353 213.534 51.924 202.952 67.7582 186.357C81.6893 210.412 111.531 227.008 146.092 227.008C176.847 227.008 203.795 213.914 219.173 194.121C232.419 190.62 244.371 184.606 253.962 176.765C262.565 181.941 273.222 185.062 284.717 185.062C313.417 185.062 336.712 165.955 336.712 142.356C336.712 118.757 313.493 99.649 284.794 99.649Z" fill="#F1EFED"/>
<path d="M287.838 115.864C285.859 115.864 283.88 115.94 281.901 116.168C276.42 81.1504 240.031 54.1257 195.954 54.1257C192.681 54.1257 189.408 54.2779 186.21 54.5824C171.746 31.8207 142.742 16.2149 109.247 16.2149C74.2289 16.2149 44.083 33.2671 30.3803 57.8558C21.7019 55.4959 12.4145 54.1256 2.7465 54.1256C-41.2543 54.1256 -77.5664 81.0742 -83.1998 115.864C-83.4281 115.864 -83.7326 115.864 -83.961 115.864C-112.661 115.864 -135.955 134.971 -135.955 158.571C-135.955 182.17 -112.661 201.277 -83.961 201.277C-78.5561 201.277 -73.3034 200.592 -68.3552 199.298C-52.6732 217.72 -26.7143 229.748 2.74647 229.748C30.3802 229.748 54.9689 219.167 70.8032 202.571C84.7342 226.627 114.576 243.223 149.137 243.223C179.892 243.223 206.84 230.129 222.218 210.336C235.464 206.834 247.416 200.821 257.007 192.98C265.61 198.156 276.267 201.277 287.762 201.277C316.462 201.277 339.756 182.17 339.756 158.571C339.833 134.972 316.538 115.864 287.838 115.864Z" fill="#8AC8E5"/>
</svg>
