<svg width="426" height="390" viewBox="0 0 426 390" fill="none" xmlns="http://www.w3.org/2000/svg">
<path d="M425.498 182.635C425.498 162.083 420.232 142.999 411.165 127.283C409.957 74.0903 373.347 31.3459 328.363 31.3459C319.383 31.3459 310.835 33.0729 302.719 36.1816C283.896 14.3345 252.208 0 216.203 0C188.573 0 163.447 8.46252 144.711 22.2789C132.623 14.0754 118.635 9.32604 103.612 9.32604C57.8498 9.32604 20.7223 53.4521 20.7223 107.94C20.7223 125.988 24.8668 142.999 31.9469 157.507C11.7427 176.59 0 199.474 0 223.998C0 256.898 21.0677 286.69 55.2595 308.537C56.123 353.267 86.8611 389.276 124.679 389.276C148.942 389.276 170.355 374.424 182.702 351.972C197.898 372.869 220.347 386.081 245.387 386.081C269.131 386.081 290.544 374.165 305.654 355.081C315.411 359.916 326.118 362.507 337.256 362.507C383.018 362.507 420.145 318.381 420.145 263.893C420.145 251.976 418.332 240.578 415.137 229.956C421.786 215.967 425.498 199.819 425.498 182.635Z" fill="#7BC5E1"/>
</svg>
