<svg width="172" height="150" viewBox="0 0 172 150" fill="none" xmlns="http://www.w3.org/2000/svg">
<g id="Group">
<path id="Vector" d="M21.4804 134.095L21.3975 134.966C21.3975 135.132 21.2937 135.215 21.1278 135.215H20.6921C20.2357 135.215 19.9037 135.111 19.6962 134.903C19.5302 134.737 19.4473 134.447 19.4473 134.053C19.4473 134.011 19.5717 132.29 19.7999 128.929C19.7999 128.742 19.8207 128.638 19.8622 128.618C19.8829 128.597 19.9452 128.576 20.0489 128.576H20.5261C21.3145 128.576 21.7087 128.908 21.7709 129.572C22.1651 128.825 22.7875 128.472 23.6174 128.472C24.6755 128.472 25.2771 128.887 25.4431 129.717C25.8788 128.887 26.522 128.472 27.3933 128.472C28.6382 128.472 29.2606 129.032 29.2606 130.174C29.2606 130.568 29.2191 131.252 29.1361 132.269L28.9287 134.842C28.9287 135.028 28.8872 135.132 28.8457 135.153C28.8042 135.194 28.7212 135.215 28.5967 135.215H28.2025C27.7253 135.215 27.3933 135.132 27.2066 134.945C27.0406 134.779 26.9577 134.53 26.9577 134.157C26.9577 133.908 26.9992 133.327 27.0821 132.393C27.1651 131.46 27.2066 130.962 27.2066 130.879C27.2066 130.339 26.9992 130.09 26.5842 130.09C25.8373 130.09 25.4017 130.982 25.2772 132.787C25.1942 133.742 25.1527 134.427 25.1319 134.842C25.1319 135.028 25.0904 135.132 25.0489 135.153C25.0074 135.194 24.9244 135.215 24.8 135.215H24.4058C23.9286 135.215 23.5967 135.132 23.41 134.945C23.244 134.779 23.161 134.53 23.161 134.157C23.161 133.929 23.2025 133.389 23.2855 132.476C23.3685 131.584 23.41 131.045 23.41 130.879C23.41 130.339 23.2024 130.09 22.7875 130.09C22.0614 130.09 21.6257 131.086 21.4804 133.057C21.4804 133.327 21.439 133.68 21.3975 134.095" fill="#676190"/>
<path id="Vector_2" d="M31.1477 134.738C30.5045 134.26 30.1934 133.513 30.1934 132.518C30.1934 131.563 30.4008 130.733 30.8157 130.028C31.4174 128.991 32.4133 128.451 33.7618 128.451C35.2764 128.451 36.0233 129.053 36.0233 130.256C36.0233 131.19 35.4839 131.854 34.4258 132.248C33.8034 132.476 33.0772 132.58 32.2473 132.58C32.2473 132.933 32.3303 133.202 32.517 133.43C32.7245 133.679 33.015 133.824 33.3884 133.824C33.6996 133.824 33.9693 133.721 34.156 133.493C34.3428 133.285 34.488 133.161 34.5502 133.161C34.7162 133.161 34.8822 133.223 35.0689 133.326C35.3386 133.492 35.4631 133.721 35.4631 134.032C35.4631 134.468 35.1934 134.8 34.6747 135.049C34.239 135.256 33.7203 135.36 33.0979 135.36C32.2888 135.36 31.6249 135.173 31.1062 134.779M32.2681 131.667C32.766 131.667 33.1809 131.584 33.4714 131.418C33.7826 131.252 33.9486 131.023 33.9486 130.733C33.9486 130.318 33.7411 130.111 33.3262 130.111C32.7453 130.111 32.3925 130.63 32.2681 131.688" fill="#676190"/>
<path id="Vector_3" d="M43.2231 131.355C43.2231 132.579 42.9534 133.555 42.3932 134.281C41.8745 134.986 41.1898 135.318 40.36 135.318C39.6131 135.318 39.0944 134.966 38.7832 134.26L38.5342 137.185C38.5342 137.351 38.4305 137.435 38.2646 137.435H37.8288C37.3724 137.435 37.0405 137.331 36.833 137.123C36.667 136.957 36.584 136.667 36.584 136.273C36.584 135.941 36.7707 133.492 37.1234 128.907C37.1234 128.741 37.1442 128.617 37.1857 128.596C37.2064 128.576 37.2686 128.555 37.3724 128.555H37.8496C38.2645 128.555 38.5758 128.638 38.7832 128.824C38.9907 128.99 39.0944 129.198 39.0944 129.468C39.4471 128.783 40.0488 128.43 40.8994 128.43C42.4139 128.43 43.1816 129.405 43.1816 131.335M38.8247 132.019C38.8247 133.14 39.1359 133.7 39.779 133.7C40.1317 133.7 40.4222 133.534 40.6504 133.202C40.8787 132.829 41.0031 132.31 41.0031 131.605C41.0031 130.567 40.6712 130.028 40.0073 130.028C39.2189 130.028 38.8247 130.692 38.8247 131.999" fill="#676190"/>
<path id="Vector_4" d="M50.5872 131.355C50.5872 132.579 50.3175 133.555 49.7574 134.281C49.2387 134.986 48.5541 135.318 47.7242 135.318C46.9773 135.318 46.4586 134.966 46.1474 134.26L45.8985 137.185C45.8985 137.351 45.7947 137.435 45.6287 137.435H45.1931C44.7366 137.435 44.4047 137.331 44.1972 137.123C44.0312 136.957 43.9482 136.667 43.9482 136.273C43.9482 135.941 44.135 133.492 44.4877 128.907C44.4877 128.741 44.5084 128.617 44.5499 128.596C44.5707 128.576 44.6329 128.555 44.7366 128.555H45.2138C45.6287 128.555 45.9399 128.638 46.1474 128.824C46.3549 128.99 46.4586 129.198 46.4586 129.468C46.8113 128.783 47.413 128.43 48.2636 128.43C49.7781 128.43 50.5458 129.405 50.5458 131.335M46.1889 132.019C46.1889 133.14 46.5001 133.7 47.1433 133.7C47.496 133.7 47.7864 133.534 48.0146 133.202C48.2429 132.829 48.3674 132.31 48.3674 131.605C48.3674 130.567 48.0354 130.028 47.3715 130.028C46.5831 130.028 46.1889 130.692 46.1889 131.999" fill="#676190"/>
<path id="Vector_5" d="M53.7009 131.273C53.6179 132.165 53.5764 132.683 53.5764 132.829C53.5764 133.43 53.8461 133.721 54.3648 133.721C54.8835 133.721 55.2984 133.098 55.5059 131.833C55.5682 131.418 55.6304 130.878 55.6719 130.215L55.7756 128.825C55.7756 128.659 55.8793 128.576 56.0453 128.576H56.481C56.9375 128.576 57.2694 128.679 57.4768 128.887C57.6428 129.053 57.7258 129.343 57.7258 129.737C57.7258 129.779 57.6014 131.501 57.3731 134.862C57.3731 135.028 57.3316 135.132 57.3316 135.173C57.3109 135.215 57.2487 135.215 57.1242 135.215H56.647C55.8586 135.215 55.4436 134.883 55.4021 134.219C54.9665 134.966 54.3648 135.319 53.5349 135.319C52.9333 135.319 52.4561 135.132 52.1034 134.759C51.7714 134.406 51.6055 133.949 51.6055 133.41C51.6055 132.269 51.7092 130.796 51.9167 128.928C51.9374 128.68 52.0619 128.555 52.2486 128.555H52.6428C53.12 128.555 53.4519 128.638 53.6386 128.825C53.8046 128.97 53.8877 129.219 53.8877 129.572C53.8877 129.8 53.8462 130.36 53.7632 131.231" fill="#676190"/>
<path id="Vector_6" d="M60.753 134.095L60.67 134.966C60.67 135.132 60.5662 135.215 60.4002 135.215H59.9646C59.5081 135.215 59.1762 135.111 58.9687 134.903C58.8027 134.737 58.7197 134.447 58.7197 134.053C58.7197 134.011 58.8442 132.29 59.0725 128.929C59.0725 128.742 59.0932 128.638 59.1347 128.618C59.1554 128.597 59.2177 128.576 59.3214 128.576H59.7985C60.5869 128.576 60.9811 128.908 61.0434 129.572C61.4376 128.825 62.06 128.472 62.8899 128.472C63.948 128.472 64.5497 128.887 64.7156 129.717C65.1513 128.887 65.7944 128.472 66.6658 128.472C67.9106 128.472 68.5331 129.032 68.5331 130.174C68.5331 130.568 68.4916 131.252 68.4086 132.269L68.2011 134.842C68.2011 135.028 68.1596 135.132 68.1181 135.153C68.0766 135.194 67.9936 135.215 67.8692 135.215H67.475C66.9978 135.215 66.6658 135.132 66.4791 134.945C66.3131 134.779 66.2301 134.53 66.2301 134.157C66.2301 133.908 66.2716 133.327 66.3546 132.393C66.4376 131.46 66.4791 130.962 66.4791 130.879C66.4791 130.339 66.2716 130.09 65.8567 130.09C65.1098 130.09 64.6741 130.982 64.5496 132.787C64.4666 133.742 64.4251 134.427 64.4044 134.842C64.4044 135.028 64.3629 135.132 64.3214 135.153C64.2799 135.194 64.1969 135.215 64.0724 135.215H63.6783C63.2011 135.215 62.8691 135.132 62.6824 134.945C62.5164 134.779 62.4335 134.53 62.4335 134.157C62.4335 133.929 62.4749 133.389 62.5579 132.476C62.6409 131.584 62.6824 131.045 62.6824 130.879C62.6824 130.339 62.475 130.09 62.06 130.09C61.3339 130.09 60.8982 131.086 60.753 133.057C60.753 133.327 60.7114 133.68 60.67 134.095" fill="#676190"/>
<path id="Vector_7" d="M69.4668 132.31C69.4668 131.21 69.7158 130.319 70.2344 129.655C70.8568 128.846 71.8113 128.451 73.0768 128.451C74.9648 128.451 75.9191 129.385 75.9191 131.273C75.9191 132.31 75.6909 133.161 75.2552 133.866C74.6328 134.841 73.6577 135.319 72.3091 135.319C70.4211 135.319 69.4668 134.323 69.4668 132.31ZM71.5208 132.186C71.5208 133.223 71.8527 133.721 72.4959 133.721C72.9938 133.721 73.3673 133.41 73.5955 132.808C73.7822 132.372 73.8652 131.874 73.8652 131.335C73.8652 130.484 73.5332 130.049 72.8693 130.049C71.9565 130.049 71.5 130.754 71.5 132.165" fill="#676190"/>
<path id="Vector_8" d="M83.2865 131.355C83.2865 132.579 83.0168 133.555 82.4566 134.281C81.9379 134.986 81.2532 135.318 80.4234 135.318C79.6765 135.318 79.1578 134.966 78.8466 134.26L78.5976 137.185C78.5976 137.351 78.4939 137.435 78.328 137.435H77.8922C77.4358 137.435 77.1039 137.331 76.8964 137.123C76.7304 136.957 76.6475 136.667 76.6475 136.273C76.6475 135.941 76.8341 133.492 77.1868 128.907C77.1868 128.741 77.2076 128.617 77.2491 128.596C77.2698 128.576 77.3321 128.555 77.4358 128.555H77.913C78.3279 128.555 78.6392 128.638 78.8466 128.824C79.0541 128.99 79.1578 129.198 79.1578 129.468C79.5105 128.783 80.1122 128.43 80.9628 128.43C82.4773 128.43 83.245 129.405 83.245 131.335M78.8881 132.019C78.8881 133.14 79.1993 133.7 79.8425 133.7C80.1952 133.7 80.4856 133.534 80.7139 133.202C80.9421 132.829 81.0665 132.31 81.0665 131.605C81.0665 130.567 80.7346 130.028 80.0707 130.028C79.2823 130.028 78.8881 130.692 78.8881 131.999" fill="#676190"/>
<path id="Vector_9" d="M86.3776 131.273C86.2946 132.165 86.2532 132.683 86.2532 132.829C86.2532 133.43 86.5229 133.721 87.0416 133.721C87.5602 133.721 87.9752 133.098 88.1827 131.833C88.2449 131.418 88.3071 130.878 88.3486 130.215L88.4523 128.825C88.4523 128.659 88.5561 128.576 88.7221 128.576H89.1578C89.6142 128.576 89.9461 128.679 90.1536 128.887C90.3196 129.053 90.4026 129.343 90.4026 129.737C90.4026 129.779 90.2781 131.501 90.0499 134.862C90.0499 135.028 90.0084 135.132 90.0084 135.173C89.9876 135.215 89.9254 135.215 89.8009 135.215H89.3237C88.5353 135.215 88.1204 134.883 88.0789 134.219C87.6432 134.966 87.0416 135.319 86.2117 135.319C85.61 135.319 85.1328 135.132 84.7801 134.759C84.4482 134.406 84.2822 133.949 84.2822 133.41C84.2822 132.269 84.3859 130.796 84.5934 128.928C84.6142 128.68 84.7387 128.555 84.9254 128.555H85.3196C85.7968 128.555 86.1287 128.638 86.3154 128.825C86.4814 128.97 86.5644 129.219 86.5644 129.572C86.5644 129.8 86.5229 130.36 86.4399 131.231" fill="#676190"/>
<path id="Vector_10" d="M95.4036 132.891C94.7605 134.24 93.8684 135.008 92.6858 135.236C92.1256 135.236 91.7522 135.07 91.5447 134.759C91.2958 134.448 91.2128 134.157 91.2958 133.908C91.9389 133.908 92.748 133.514 93.7231 132.767C92.3538 132.684 91.6485 131.958 91.607 130.568C91.7937 129.095 92.6858 128.389 94.2833 128.452C95.0302 128.452 95.4866 128.638 95.6526 129.033C95.6526 128.991 95.6526 128.949 95.6526 128.908C95.6526 128.742 95.6733 128.638 95.7148 128.597C95.7148 128.576 95.7979 128.555 95.9016 128.555H96.3787C96.8352 128.555 97.1672 128.659 97.3746 128.846C97.5406 129.012 97.6236 129.282 97.6236 129.655C97.6236 129.966 97.4991 131.729 97.2294 134.945C97.2294 135.111 97.1256 135.194 96.9597 135.194H96.524C96.0676 135.194 95.7356 135.09 95.5281 134.883C95.3621 134.717 95.2792 134.427 95.2792 134.032C95.2792 133.991 95.2999 133.617 95.3622 132.87M95.4866 131.501C95.6319 130.962 95.6111 130.526 95.4036 130.215C95.2584 129.924 94.9887 129.758 94.636 129.758C94.1588 129.758 93.8476 129.966 93.7231 130.381C93.4742 131.128 94.0551 131.481 95.4659 131.481" fill="#676190"/>
<path id="Vector_11" d="M107.519 131.355C107.519 132.579 107.249 133.555 106.71 134.281C106.191 134.986 105.506 135.318 104.676 135.318C103.929 135.318 103.411 134.966 103.1 134.26L102.851 137.185C102.851 137.351 102.747 137.435 102.581 137.435H102.145C101.689 137.435 101.357 137.331 101.149 137.123C100.983 136.957 100.9 136.667 100.9 136.273C100.9 135.941 101.087 133.492 101.44 128.907C101.44 128.741 101.461 128.617 101.502 128.596C101.523 128.576 101.585 128.555 101.689 128.555H102.166C102.581 128.555 102.892 128.638 103.1 128.824C103.307 128.99 103.39 129.198 103.39 129.468C103.743 128.783 104.344 128.43 105.195 128.43C106.71 128.43 107.477 129.405 107.477 131.335M103.12 132.019C103.12 133.14 103.432 133.7 104.075 133.7C104.427 133.7 104.718 133.534 104.946 133.202C105.174 132.829 105.299 132.31 105.299 131.605C105.299 130.567 104.967 130.028 104.303 130.028C103.515 130.028 103.12 130.692 103.12 131.999" fill="#676190"/>
<path id="Vector_12" d="M109.074 132.02C109.738 131.605 110.692 131.398 111.937 131.356C111.937 131.128 111.958 130.983 111.958 130.9C111.958 130.34 111.709 130.049 111.211 130.049C110.9 130.049 110.692 130.132 110.547 130.319C110.464 130.443 110.381 130.672 110.277 131.024C110.257 131.128 110.132 131.19 109.904 131.19C109.095 131.19 108.68 130.879 108.68 130.256C108.68 129.717 108.908 129.302 109.364 128.95C109.862 128.597 110.547 128.41 111.439 128.41C113.14 128.41 113.991 129.116 113.991 130.526C113.991 130.651 113.95 131.045 113.887 131.709C113.804 132.394 113.784 132.788 113.784 132.912C113.784 133.223 113.908 133.431 114.136 133.514C114.364 133.597 114.489 133.659 114.489 133.701C114.489 134.116 114.385 134.468 114.178 134.759C113.929 135.112 113.535 135.278 113.037 135.278C112.331 135.278 111.916 134.925 111.792 134.24C111.294 134.946 110.651 135.278 109.821 135.278C108.659 135.278 108.078 134.738 108.078 133.68C108.078 132.954 108.41 132.394 109.074 131.979M110.153 133.182C110.153 133.514 110.34 133.68 110.713 133.68C111.003 133.68 111.232 133.555 111.439 133.327C111.667 133.078 111.813 132.725 111.833 132.31C110.713 132.31 110.153 132.601 110.153 133.182Z" fill="#676190"/>
<path id="Vector_13" d="M117.35 134.842C115.877 134.842 115.13 133.929 115.13 132.124C115.13 131.169 115.317 130.36 115.69 129.717C116.188 128.887 116.935 128.472 117.972 128.472C118.802 128.472 119.321 128.804 119.508 129.468C119.487 129.426 119.508 129.177 119.549 128.721C119.549 128.638 119.611 128.597 119.715 128.597H120.275C120.69 128.597 121.002 128.679 121.168 128.845C121.354 129.032 121.458 129.364 121.458 129.841C121.458 131.916 121.271 133.783 120.919 135.422C120.607 136.854 119.529 137.559 117.661 137.559C116.873 137.559 116.23 137.414 115.753 137.103C115.317 136.833 115.109 136.522 115.109 136.148C115.109 135.858 115.234 135.65 115.462 135.464C115.67 135.318 115.898 135.236 116.167 135.236C116.292 135.236 116.479 135.36 116.686 135.63C116.894 135.899 117.246 136.024 117.703 136.024C118.657 136.024 119.134 135.277 119.134 133.763C118.74 134.468 118.138 134.821 117.309 134.821M119.383 131.377C119.383 130.484 119.093 130.049 118.491 130.049C117.993 130.049 117.62 130.318 117.412 130.858C117.288 131.19 117.226 131.584 117.226 132.041C117.226 132.829 117.537 133.223 118.138 133.223C118.989 133.223 119.404 132.601 119.404 131.377" fill="#676190"/>
<path id="Vector_14" d="M122.414 132.31C122.414 131.21 122.663 130.319 123.182 129.655C123.804 128.846 124.758 128.451 126.024 128.451C127.912 128.451 128.866 129.385 128.866 131.272C128.866 132.31 128.638 133.16 128.202 133.866C127.58 134.841 126.605 135.319 125.256 135.319C123.368 135.319 122.414 134.322 122.414 132.31ZM124.468 132.186C124.468 133.223 124.8 133.721 125.443 133.721C125.941 133.721 126.314 133.409 126.543 132.808C126.729 132.372 126.812 131.874 126.812 131.335C126.812 130.484 126.48 130.049 125.817 130.049C124.904 130.049 124.447 130.754 124.447 132.165" fill="#676190"/>
<path id="Vector_15" d="M133.866 133.41C134.198 133.202 134.385 133.099 134.427 133.099C134.613 133.099 134.696 133.223 134.696 133.451C134.696 133.866 134.572 134.219 134.302 134.53C133.846 135.07 133.202 135.319 132.352 135.319C131.626 135.319 131.003 135.111 130.526 134.696C129.924 134.178 129.613 133.368 129.613 132.31C129.613 131.376 129.8 130.588 130.194 129.904C130.754 128.928 131.667 128.451 132.933 128.451C133.68 128.451 134.261 128.617 134.655 128.949C135.028 129.261 135.215 129.655 135.215 130.174C135.215 131.024 134.696 131.439 133.638 131.439C133.431 131.439 133.327 131.376 133.327 131.273C133.327 130.816 133.286 130.505 133.244 130.36C133.161 130.132 133.016 130.028 132.767 130.028C132.02 130.028 131.667 130.734 131.667 132.165C131.667 132.725 131.75 133.119 131.937 133.347C132.103 133.576 132.393 133.68 132.788 133.68C133.161 133.68 133.514 133.576 133.846 133.368" fill="#676190"/>
<path id="Vector_16" d="M137.89 134.095L137.807 134.966C137.807 135.132 137.703 135.215 137.537 135.215H137.101C136.645 135.215 136.313 135.111 136.105 134.903C135.939 134.737 135.856 134.447 135.856 134.053C135.856 134.011 135.981 132.29 136.209 128.929C136.209 128.742 136.23 128.638 136.271 128.618C136.292 128.597 136.354 128.576 136.458 128.576H136.935C137.724 128.576 138.118 128.908 138.18 129.572C138.574 128.825 139.197 128.472 140.027 128.472C141.085 128.472 141.686 128.887 141.852 129.717C142.288 128.887 142.931 128.472 143.803 128.472C145.047 128.472 145.67 129.032 145.67 130.174C145.67 130.568 145.628 131.252 145.545 132.269L145.338 134.842C145.338 135.028 145.296 135.132 145.255 135.153C145.213 135.194 145.13 135.215 145.006 135.215H144.612C144.135 135.215 143.803 135.132 143.616 134.945C143.45 134.779 143.367 134.53 143.367 134.157C143.367 133.908 143.408 133.327 143.491 132.393C143.574 131.46 143.616 130.962 143.616 130.879C143.616 130.339 143.408 130.09 142.993 130.09C142.247 130.09 141.811 130.982 141.686 132.787C141.603 133.742 141.562 134.427 141.541 134.842C141.541 135.028 141.5 135.132 141.458 135.153C141.417 135.194 141.334 135.215 141.209 135.215H140.815C140.338 135.215 140.006 135.132 139.819 134.945C139.653 134.779 139.57 134.53 139.57 134.157C139.57 133.929 139.612 133.389 139.695 132.476C139.778 131.584 139.819 131.045 139.819 130.879C139.819 130.339 139.612 130.09 139.197 130.09C138.471 130.09 138.035 131.086 137.89 133.057C137.89 133.327 137.848 133.68 137.807 134.095" fill="#676190"/>
<path id="Vector_17" d="M148.928 131.273C148.845 132.165 148.804 132.683 148.804 132.829C148.804 133.43 149.073 133.721 149.592 133.721C150.111 133.721 150.526 133.098 150.733 131.833C150.795 131.418 150.858 130.878 150.899 130.215L151.003 128.825C151.003 128.659 151.107 128.576 151.273 128.576H151.708C152.165 128.576 152.497 128.679 152.704 128.887C152.87 129.053 152.953 129.343 152.953 129.737C152.953 129.779 152.829 131.501 152.6 134.862C152.6 135.028 152.559 135.132 152.559 135.173C152.538 135.215 152.476 135.215 152.351 135.215H151.874C151.086 135.215 150.671 134.883 150.629 134.219C150.194 134.966 149.592 135.319 148.783 135.319C148.181 135.319 147.704 135.132 147.351 134.759C147.019 134.406 146.854 133.949 146.854 133.41C146.854 132.269 146.957 130.796 147.165 128.928C147.185 128.68 147.31 128.555 147.497 128.555H147.891C148.368 128.555 148.7 128.638 148.887 128.825C149.053 128.97 149.136 129.219 149.136 129.572C149.136 129.8 149.094 130.36 149.011 131.231" fill="#676190"/>
<path id="Vector_18" d="M60.2771 145.049C60.1941 145.941 60.1526 146.46 60.1526 146.605C60.1526 147.207 60.4224 147.497 60.941 147.497C61.4597 147.497 61.8746 146.875 62.0821 145.609C62.1443 145.194 62.2066 144.655 62.2481 143.991L62.3518 142.601C62.3518 142.435 62.4556 142.352 62.6215 142.352H63.0572C63.5136 142.352 63.8456 142.455 64.0531 142.663C64.2191 142.829 64.302 143.12 64.302 143.514C64.302 143.555 64.1775 145.277 63.9493 148.638C63.9493 148.804 63.9078 148.908 63.9078 148.949C63.8871 148.97 63.8248 148.991 63.7004 148.991H63.2232C62.4348 148.991 62.0199 148.659 61.9784 147.995C61.5427 148.742 60.941 149.095 60.1112 149.095C59.5095 149.095 59.0323 148.908 58.6796 148.534C58.3477 148.182 58.1816 147.725 58.1816 147.186C58.1816 146.045 58.2854 144.572 58.4929 142.704C58.5136 142.455 58.6381 142.331 58.8248 142.331H59.219C59.6962 142.331 60.0281 142.414 60.2149 142.601C60.3808 142.746 60.4638 142.995 60.4638 143.348C60.4638 143.576 60.4223 144.136 60.3393 145.007" fill="#676190"/>
<path id="Vector_19" d="M70.2152 142.849C70.2152 143.119 70.2151 143.306 70.2359 143.43C70.5471 143.078 70.7131 142.912 70.7339 142.891C71.128 142.58 71.6052 142.414 72.1446 142.414C72.767 142.414 73.265 142.58 73.6592 142.912C74.1156 143.306 74.3438 143.907 74.3438 144.716C74.3438 146.397 74.0326 147.538 73.4309 148.14C72.7878 148.783 71.8956 149.115 70.7546 149.115C69.6135 149.115 68.8873 148.762 68.4309 148.057C67.85 147.123 67.7255 145.505 68.016 143.181C68.5139 141.106 69.323 139.945 70.4641 139.654C71.6052 139.364 72.4351 139.53 72.933 140.152C73.2442 140.733 73.2027 141.252 72.8086 141.708C72.4144 142.165 71.9994 142.351 71.5637 142.268C71.128 142.185 70.9413 141.978 70.9828 141.625C71.5222 141.542 71.7504 141.356 71.6674 141.065C71.2525 140.941 70.8583 141.231 70.4849 141.916C70.2982 142.289 70.1944 142.6 70.1944 142.87M70.4434 144.405C70.2566 144.675 70.1736 145.381 70.1736 146.501C70.1736 147.123 70.4434 147.434 70.9828 147.434C71.4392 147.434 71.7919 147.248 72.0616 146.853C72.2484 146.563 72.3521 145.837 72.3521 144.716C72.3521 144.156 72.0409 143.866 71.4392 143.866C71.0036 143.866 70.6716 144.032 70.4434 144.405Z" fill="#676190"/>
<path id="Vector_20" d="M76.1487 148.514C75.5055 148.037 75.1943 147.289 75.1943 146.294C75.1943 145.339 75.4018 144.509 75.8167 143.804C76.4184 142.767 77.4143 142.227 78.7628 142.227C80.2774 142.227 81.0242 142.829 81.0242 144.033C81.0242 144.966 80.4848 145.63 79.4267 146.024C78.8043 146.252 78.0781 146.356 77.2483 146.356C77.2483 146.709 77.3313 146.979 77.518 147.207C77.7255 147.456 78.0159 147.601 78.3894 147.601C78.7006 147.601 78.9703 147.497 79.157 147.269C79.3437 147.062 79.489 146.937 79.5512 146.937C79.7172 146.937 79.8832 146.999 80.0699 147.103C80.3396 147.269 80.4641 147.497 80.4641 147.809C80.4641 148.244 80.1944 148.576 79.6757 148.825C79.24 149.033 78.7213 149.136 78.0989 149.136C77.2898 149.136 76.6259 148.949 76.1072 148.555M77.269 145.443C77.767 145.443 78.1819 145.36 78.4723 145.194C78.7835 145.029 78.9495 144.8 78.9495 144.51C78.9495 144.095 78.7421 143.887 78.3272 143.887C77.7462 143.887 77.3935 144.406 77.269 145.464" fill="#676190"/>
<path id="Vector_21" d="M85.8586 147.186C86.1905 146.979 86.3773 146.875 86.4188 146.875C86.6055 146.875 86.6885 146.999 86.6885 147.228C86.6885 147.643 86.564 147.995 86.2943 148.307C85.8379 148.846 85.1947 149.095 84.3441 149.095C83.6179 149.095 82.9955 148.887 82.5183 148.472C81.9167 147.953 81.6055 147.145 81.6055 146.086C81.6055 145.153 81.7922 144.364 82.1864 143.679C82.7466 142.704 83.6594 142.227 84.925 142.227C85.6719 142.227 86.2528 142.393 86.647 142.725C87.0204 143.036 87.2072 143.431 87.2072 143.949C87.2072 144.8 86.6885 145.215 85.6304 145.215C85.4229 145.215 85.3192 145.153 85.3192 145.049C85.3192 144.593 85.2777 144.282 85.2362 144.136C85.1532 143.929 85.008 143.804 84.759 143.804C84.0121 143.804 83.6594 144.51 83.6594 145.941C83.6594 146.501 83.7424 146.896 83.9291 147.124C84.0951 147.352 84.3856 147.456 84.7798 147.456C85.1532 147.456 85.5059 147.352 85.8379 147.145" fill="#676190"/>
<path id="Vector_22" d="M88.6809 148.514C88.0377 148.037 87.7266 147.289 87.7266 146.294C87.7266 145.339 87.934 144.509 88.3489 143.804C88.9506 142.767 89.9465 142.227 91.2951 142.227C92.8096 142.227 93.5565 142.829 93.5565 144.033C93.5565 144.966 93.017 145.63 91.9589 146.024C91.3365 146.252 90.6104 146.356 89.7805 146.356C89.7805 146.709 89.8635 146.979 90.0502 147.207C90.2577 147.456 90.5481 147.601 90.9216 147.601C91.2328 147.601 91.5025 147.497 91.6892 147.269C91.876 147.062 92.0211 146.937 92.0834 146.937C92.2494 146.937 92.4153 146.999 92.6021 147.103C92.8718 147.269 92.9963 147.497 92.9963 147.809C92.9963 148.244 92.7266 148.576 92.2079 148.825C91.7722 149.033 91.2535 149.136 90.6311 149.136C89.822 149.136 89.1581 148.949 88.6394 148.555M89.8013 145.443C90.2992 145.443 90.7141 145.36 91.0046 145.194C91.3158 145.029 91.4818 144.8 91.4818 144.51C91.4818 144.095 91.2743 143.887 90.8593 143.887C90.2784 143.887 89.9257 144.406 89.8013 145.464" fill="#676190"/>
<path id="Vector_23" d="M97.3535 143.866C97.312 144.385 97.229 145.194 97.1045 146.293C96.9385 147.953 96.2539 148.845 95.1128 148.99C94.9883 148.99 94.8638 149.011 94.7601 149.011C94.2829 149.011 93.9718 148.845 93.8265 148.534C93.702 148.223 93.785 147.933 94.0755 147.642C94.2622 147.476 94.4904 147.31 94.7809 147.186L94.9468 147.29C94.9468 147.29 95.0298 147.102 95.0506 146.978C95.0921 146.75 95.1751 146.148 95.2581 145.173L95.3618 143.824C95.341 142.787 95.7975 142.268 96.7311 142.268C98.785 142.123 99.8846 142.268 99.9676 142.642C100.196 142.849 100.3 143.285 100.3 143.949C100.3 144.032 100.175 145.63 99.9262 148.721C99.9262 148.887 99.9053 149.011 99.8639 149.032C99.8431 149.053 99.7809 149.073 99.6771 149.073H99.2C98.3701 149.073 97.9552 148.721 97.9552 148.036C97.9552 147.725 97.9966 147.124 98.0796 146.252C98.1626 145.381 98.2041 144.8 98.2041 144.488C98.2041 144.157 98.0797 143.949 97.8515 143.845H97.3535V143.866Z" fill="#676190"/>
<path id="Vector_24" d="M103.391 143.97C103.349 144.26 103.391 144.364 103.515 144.302C104.117 143.866 104.76 143.638 105.403 143.638C106.067 143.638 106.586 143.762 106.938 144.074C107.374 144.447 107.561 144.987 107.499 145.713C107.436 146.833 107.084 147.663 106.44 148.223C105.756 148.825 104.843 149.115 103.702 149.115C102.561 149.115 101.855 148.783 101.44 148.14C101.129 147.621 101.026 146.771 101.15 145.588C101.274 144.406 101.399 143.451 101.523 142.725C101.544 142.559 101.586 142.476 101.606 142.455C101.606 142.414 101.689 142.414 101.793 142.414H102.27C102.727 142.414 103.059 142.497 103.245 142.683C103.391 142.829 103.453 143.078 103.432 143.41C103.432 143.513 103.411 143.7 103.349 143.991M103.453 145.567C103.266 145.816 103.183 146.252 103.204 146.812C103.204 147.414 103.515 147.704 104.075 147.704C104.532 147.704 104.905 147.518 105.154 147.144C105.341 146.854 105.424 146.439 105.424 145.837C105.403 145.318 105.071 145.049 104.449 145.049C104.013 145.049 103.681 145.215 103.453 145.547" fill="#676190"/>
<path id="Vector_25" d="M112.29 146.668C111.647 148.016 110.755 148.784 109.573 149.012C109.012 149.012 108.639 148.846 108.431 148.535C108.182 148.223 108.1 147.933 108.182 147.684C108.826 147.684 109.635 147.29 110.61 146.543C109.241 146.46 108.535 145.734 108.494 144.344C108.68 142.871 109.573 142.165 111.17 142.227C111.917 142.227 112.373 142.414 112.539 142.808C112.539 142.788 112.539 142.725 112.539 142.684C112.539 142.518 112.56 142.414 112.602 142.373C112.602 142.352 112.685 142.331 112.788 142.331H113.266C113.722 142.331 114.054 142.435 114.261 142.622C114.427 142.788 114.51 143.057 114.51 143.431C114.51 143.742 114.386 145.506 114.116 148.721C114.116 148.887 114.012 148.97 113.846 148.97H113.411C112.954 148.97 112.622 148.867 112.415 148.659C112.249 148.493 112.166 148.203 112.166 147.809C112.166 147.767 112.187 147.394 112.249 146.647M112.373 145.277C112.519 144.738 112.498 144.302 112.29 143.991C112.145 143.701 111.875 143.535 111.523 143.535C111.046 143.535 110.734 143.742 110.61 144.157C110.361 144.904 110.942 145.256 112.353 145.256" fill="#676190"/>
<path id="Vector_26" d="M7.08107 6.72901V39.5296C7.08107 39.5296 6.37566 48.1812 11.6661 47.4136C16.9566 46.646 15.8985 37.8702 16.8321 35.2146C17.7657 32.559 21.4172 29.8826 25.2969 29.4884C29.1766 29.115 32.4754 30.1313 32.4754 35.4633C32.4754 40.7953 33.658 47.4136 38.1186 46.9157C42.5792 46.397 41.6456 32.0402 41.8738 22.1231C42.102 12.2061 42.7037 0.00649449 38.575 0.00649449C32.3509 0.00649449 34.4671 9.55058 32.8073 15.007C31.1683 20.4843 29.0521 20.6086 26.5832 20.6086C24.1143 20.6086 16.2305 22.8907 16.1267 18.4509C16.023 14.011 17.5375 0.276206 12.2471 0.00649449C6.95657 -0.24247 7.08107 6.74927 7.08107 6.74927" fill="#7AC5E0"/>
<path id="Vector_27" d="M93.0357 63.5339V96.3351C93.0357 96.3351 92.351 104.987 97.5378 104.219C102.725 103.451 101.687 94.6751 102.621 92.0195C103.554 89.3432 107.123 86.6875 110.94 86.2933C114.758 85.9199 117.994 86.9368 117.994 92.2687C117.994 97.6007 119.156 104.219 123.534 103.721C127.932 103.202 126.999 88.8451 127.227 78.928C127.455 69.011 128.036 56.8119 123.99 56.8119C117.87 56.8119 119.945 66.3555 118.326 71.812C116.708 77.2892 114.633 77.4136 112.206 77.4136C109.779 77.4136 102.04 79.6956 101.915 75.2558C101.791 70.8159 103.306 57.0816 98.098 56.8119C92.8905 56.563 93.015 63.5547 93.015 63.5547" fill="#7AC5E0"/>
<path id="Vector_28" d="M49.5911 48.6795V15.6707C49.5911 15.6707 49.0516 8.92821 53.6367 9.19792C58.2218 9.46763 59.0309 11.3554 59.0309 17.2891C59.0309 23.2227 58.2218 32.2478 61.4584 31.4387C64.6949 30.6295 70.4833 15.2769 74.9232 11.3557C79.363 7.45525 84.9025 7.03991 85.0269 14.0524C85.1514 20.3387 85.0477 46.2311 85.0269 51.5216C85.0269 52.3515 84.7988 53.1401 84.3631 53.8455C83.6784 54.9451 82.3921 56.2936 80.1721 56.3766C76.3962 56.5011 75.0476 54.2189 74.9232 50.7127C74.7779 47.2065 76.3962 34.2812 72.4958 36.2936C69.0725 38.0571 62.475 48.7829 60.8567 51.4593C60.587 51.9157 60.2343 52.3101 59.8401 52.6628C57.6617 54.5923 50.7114 59.7792 49.5703 48.6795" fill="#F5C220"/>
<path id="Vector_29" d="M133.887 50.0695V17.0612C133.887 17.0612 133.347 10.3181 137.932 10.5878C142.517 10.8576 143.327 12.7453 143.327 18.679C143.327 24.6126 142.518 33.6377 145.754 32.8286C148.991 32.0194 154.779 16.6668 159.219 12.7456C163.659 8.84518 169.198 8.43034 169.323 15.4428C169.447 21.8537 169.323 48.6794 169.323 53.2023C169.323 53.7417 169.198 54.2604 168.949 54.7375C168.368 55.8579 167.061 57.6628 164.468 57.7665C160.692 57.891 159.343 55.6089 159.219 52.1026C159.074 48.5964 160.692 35.6711 156.791 37.6836C153.43 39.4263 146.999 49.8205 145.235 52.7044C144.903 53.2645 144.488 53.7624 144.011 54.1773C141.708 56.1898 134.986 60.9824 133.887 50.0902" fill="#E16827"/>
<path id="Vector_30" d="M119.716 35.1731C117.952 30.754 117.599 26.1063 117.537 24.9653C117.599 23.8242 117.952 19.1563 119.716 14.7579C121.749 9.67487 127.33 10.0275 127.33 10.0275C127.33 10.0275 128.014 7.3307 127.33 4.11492C126.645 0.899133 118.865 0.567181 113.969 4.11492C109.072 7.66266 110.753 16.6252 107.703 17.4759C104.653 18.3265 102.641 16.2933 102.122 10.7123C101.624 5.13138 102.807 1.25141 96.5411 0.566755C90.7942 -0.055655 91.8938 8.43032 92.1013 9.84111C92.122 9.98634 92.1428 10.1315 92.1428 10.2767L92.7652 24.986L92.1428 39.6335C92.1428 39.8203 92.122 40.007 92.0805 40.173C91.8523 41.729 90.8564 50.0069 96.5204 49.3845C102.786 48.6999 101.603 44.8204 102.101 39.2395C102.62 33.6585 104.632 31.6253 107.682 32.4759C110.732 33.3265 109.031 42.2891 113.948 45.8369C118.844 49.3846 126.624 49.0526 127.309 45.8369C127.994 42.6211 127.309 39.9243 127.309 39.9243C127.309 39.9243 121.728 40.2562 119.695 35.1939" fill="#676190"/>
<path id="Vector_31" d="M171.564 107.497C171.004 103.576 164.925 105.92 164.925 105.92V80.1523C164.925 72.7457 161.356 66.0237 148.929 65.6917C136.502 65.3598 136.958 79.0319 136.958 79.0319L136.502 105.028C126.087 106.045 130.319 112.31 132.228 114.219C134.136 116.127 153.286 115.007 162.373 115.235C171.439 115.464 172.124 111.418 171.564 107.497ZM154.759 101.729C153.203 103.264 149.883 105.775 146.999 103.057C146.211 102.31 145.755 101.273 145.692 100.194C145.423 95.2975 144.883 78.5753 146.771 76.7703C149.302 74.3637 153.867 73.5755 155.091 79.115C156.107 83.7416 155.817 95.7543 155.692 99.5718C155.672 100.402 155.319 101.169 154.738 101.75" fill="#F5C220"/>
<path id="Vector_32" d="M84.4057 95.2145C84.3642 93.3265 84.3434 91.4385 84.3019 89.5506C84.2604 87.6626 84.1982 85.7747 84.1152 83.8867C84.0945 82.2269 83.6796 80.5049 82.9327 78.6792C82.165 76.8742 81.0654 75.2141 79.6339 73.6996C78.2023 72.2058 76.4803 70.9614 74.4886 69.9863C72.4969 69.0112 70.2147 68.5336 67.6421 68.5544C65.2147 68.6166 62.6836 69.0734 60.0694 69.924C58.6171 70.4012 57.2479 70.9818 56.003 71.6872C55.1317 72.1851 54.3018 72.7246 53.5341 73.3263C53.5341 73.3263 52.3101 74.0734 52.1026 75.1523C51.8744 76.2311 52.1026 77.3722 53.3267 78.3059C54.5507 79.2395 57.725 82.3926 59.3433 80.4424C59.4678 80.4009 60.3391 79.4258 60.8993 78.9694C61.4595 78.513 62.0819 78.0983 62.7458 77.7041C63.4097 77.3099 64.0944 76.9988 64.7998 76.7498C65.5052 76.5009 66.1276 76.376 66.7085 76.376C68.4305 76.376 69.7583 76.7704 70.6712 77.6003C71.5841 78.4302 72.2687 79.3635 72.7251 80.4008C73.1816 81.4382 73.472 82.476 73.555 83.4718C73.638 84.4677 73.721 85.1315 73.7832 85.4635C73.7832 85.7954 73.472 86.0649 72.8288 86.2516C72.5799 86.3553 72.2479 86.4178 71.8745 86.4801C71.8745 86.4801 65.3392 86.6665 65.1525 86.7495C65.1525 86.7495 62.9118 86.6875 62.5591 89.0527C62.1857 91.4178 62.4139 93.5546 63.2023 94.0525C63.6172 94.3015 64.7168 94.4258 65.7956 94.4466C65.8786 94.4466 65.9616 94.4673 66.0446 94.4673H66.8745C67.4969 94.4673 68.0155 94.4673 68.2438 94.4466C68.8869 94.4466 69.5093 94.4263 70.111 94.3848C70.7126 94.364 71.2521 94.3433 71.6878 94.3433C72.5799 94.3433 73.1608 94.3844 73.4098 94.5089C73.6587 94.6334 73.8247 94.9242 73.9077 95.4014C73.9077 95.7748 73.9077 96.6254 73.8662 97.9532C73.8247 99.281 73.6172 100.671 73.223 102.144C72.8288 103.617 72.165 104.945 71.2313 106.107C70.2977 107.268 68.9284 107.87 67.1234 107.891C65.7126 107.891 64.53 107.704 63.5549 107.331C62.5798 106.937 61.7914 106.48 61.169 105.941C60.5466 105.401 60.0695 104.882 59.7582 104.384C59.4263 103.887 59.1981 103.575 59.0736 103.43C56.9574 100.92 56.0445 101.459 55.4221 101.459C54.7997 101.459 50.2768 104.219 49.3017 105.733C48.3266 107.248 49.5715 108.721 49.5715 108.721C49.5715 108.908 52.6628 111.999 54.1151 112.932C55.5674 113.866 57.3309 114.696 59.3848 115.401C61.4388 116.107 63.721 116.459 66.2106 116.439C68.638 116.418 70.9824 115.962 73.2438 115.09C75.5052 114.219 77.4554 112.891 79.1359 111.127C80.7957 109.364 82.1235 107.165 83.0986 104.53C84.0737 101.895 84.5094 98.7829 84.3849 95.1937" fill="#E16827"/>
<path id="Vector_33" d="M41.5425 81.5833L42.1648 67.1435C42.1648 67.1435 44.0321 56.9981 37.7665 57.6827C37.7665 57.6827 21.9158 57.1433 18.4303 57.6412C14.9448 58.1391 14.6128 63.1395 14.6128 63.1395C14.6128 63.1395 10.9199 89.0937 9.15641 93.5129C7.12321 98.5959 1.06503 98.0979 1.06503 98.0979C1.06503 98.0979 0.38038 100.795 1.06503 104.011C1.74968 107.227 9.52982 107.559 14.4261 104.011C18.3265 101.189 18.5963 95.7744 19.3224 92.0814L22.1025 75.9817C22.7042 72.0606 23.5963 68.4715 24.032 66.8117C24.198 66.2308 24.7166 65.8159 25.3183 65.7744C26.7913 65.7121 29.447 65.6292 30.588 65.8367C32.1856 66.1271 32.2478 68.5541 32.2478 68.5541L32.1648 96.3554C32.6628 101.936 31.4802 105.816 37.7458 106.501C43.472 107.123 42.2271 96.9152 42.2064 95.4422C42.2064 95.3177 41.6462 85.0066 41.5217 82.5999C41.5217 82.268 41.5217 81.936 41.5217 81.5833" fill="#676190"/>
</g>
</svg>
