<svg width="358" height="346" viewBox="0 0 358 346" fill="none" xmlns="http://www.w3.org/2000/svg">
<mask id="mask0_331_22" style="mask-type:luminance" maskUnits="userSpaceOnUse" x="0" y="0" width="358" height="346">
<path d="M357.764 0H0.766602V345.48H357.764V0Z" fill="white"/>
</mask>
<g mask="url(#mask0_331_22)">
<path d="M34.6956 422.175C34.6956 422.175 32.7173 71.0043 182.909 69.4325C333.102 67.8606 344.945 422.175 344.945 422.175H34.6956Z" fill="#8AC8E5"/>
<path d="M216.568 88.3756C216.568 88.3756 217.219 20.3528 239.143 31.6809C261.068 43.009 240.661 85.5571 240.661 85.5571C240.661 85.5571 249.658 25.8542 271.149 36.8029C292.64 47.7787 250.553 105.72 250.553 105.72C250.553 105.72 279.063 52.1961 295.513 66.8847C311.963 81.5733 244.672 142.008 244.672 142.008L216.595 88.3485L216.568 88.3756Z" fill="#8AC8E5"/>
</g>
<path d="M194.515 174.176C194.515 193.287 179.018 208.759 159.932 208.759C140.846 208.759 125.349 193.261 125.349 174.176C125.349 155.09 140.846 139.592 159.932 139.592C179.018 139.592 194.515 155.09 194.515 174.176Z" fill="white"/>
<path d="M237.498 185.148C237.498 198.176 226.941 208.733 213.913 208.733C200.886 208.733 190.329 198.176 190.329 185.148C190.329 172.121 200.886 161.564 213.913 161.564C226.941 161.564 237.498 172.121 237.498 185.148Z" fill="white"/>
<path d="M175.638 174.305C175.638 180.312 170.776 185.174 164.769 185.174C158.763 185.174 153.9 180.312 153.9 174.305C153.9 168.299 158.763 163.436 164.769 163.436C170.776 163.436 175.638 168.299 175.638 174.305Z" fill="#616262"/>
<path d="M221.584 186.761C221.584 191.883 217.424 196.044 212.301 196.044C207.179 196.044 203.019 191.883 203.019 186.761C203.019 181.638 207.179 177.478 212.301 177.478C217.424 177.478 221.584 181.638 221.584 186.761Z" fill="#616262"/>
<path d="M185.519 290.303C140.924 290.303 104.625 257.565 104.625 217.34C104.625 216.273 105.509 215.389 106.575 215.389C107.641 215.389 108.525 216.273 108.525 217.34C108.525 255.433 143.057 286.402 185.519 286.402C227.981 286.402 262.512 255.407 262.512 217.34C262.512 216.273 263.396 215.389 264.462 215.389C265.529 215.389 266.413 216.273 266.413 217.34C266.413 257.565 230.139 290.303 185.519 290.303Z" fill="white"/>
</svg>
