<svg width="300" height="338" viewBox="0 0 300 338" fill="none" xmlns="http://www.w3.org/2000/svg">
<path d="M0.99978 337.685C0.99978 337.685 -0.89977 38.9926 143.725 37.5246C288.349 36.0566 299.747 337.685 299.747 337.685H0.99978Z" fill="#676091"/>
<path d="M120.412 170.68C142.157 170.68 159.784 153.05 159.784 131.303C159.784 109.556 142.157 91.9265 120.412 91.9265C98.6672 91.9265 81.0396 109.556 81.0396 131.303C81.0396 153.05 98.6672 170.68 120.412 170.68Z" fill="white"/>
<path d="M181.802 170.68C196.632 170.68 208.655 158.656 208.655 143.824C208.655 128.992 196.632 116.969 181.802 116.969C166.972 116.969 154.949 128.992 154.949 143.824C154.949 158.656 166.972 170.68 181.802 170.68Z" fill="white"/>
<path d="M125.938 143.824C132.757 143.824 138.285 138.296 138.285 131.476C138.285 124.656 132.757 119.127 125.938 119.127C119.119 119.127 113.591 124.656 113.591 131.476C113.591 138.296 119.119 143.824 125.938 143.824Z" fill="#616262"/>
<path d="M181.888 153.841C185.894 153.841 189.141 150.594 189.141 146.588C189.141 142.582 185.894 139.334 181.888 139.334C177.882 139.334 174.635 142.582 174.635 146.588C174.635 150.594 177.882 153.841 181.888 153.841Z" fill="#616262"/>
<path d="M176.104 55.745C176.104 55.745 176.708 -9.62369 197.862 1.2567C219.016 12.1371 199.33 53.0681 199.33 53.0681C199.33 53.0681 207.964 -4.35622 228.686 6.17876C249.409 16.7137 208.828 72.411 208.828 72.411C208.828 72.411 236.285 20.945 252.085 35.1068C267.886 49.2686 203.129 107.297 203.129 107.297L176.104 55.745Z" fill="#676091"/>
<path d="M72.9236 197.276C70.5923 203.407 71.5421 210.316 75.0822 215.756C84.6663 230.436 110.742 262.645 154.863 259.191C211.85 254.614 227.305 218.26 219.102 204.616C210.9 190.973 184.22 219.123 154.863 215.497C128.442 212.215 83.0257 171.025 72.9236 197.276Z" fill="#504E78"/>
<path d="M98.2222 241.402C98.2222 241.402 108.238 233.631 119.894 233.631C131.551 233.631 137.077 242.698 137.077 242.698C137.077 242.698 142.43 235.876 153.136 235.444C163.843 235.012 175.24 255.823 175.24 255.823C175.24 255.823 137.595 270.503 98.2222 241.402Z" fill="#E26827"/>
</svg>
